<?xml version="1.0"?>
<svg width="500" height="500" xmlns="http://www.w3.org/2000/svg" xmlns:svg="http://www.w3.org/2000/svg" enable-background="new 0 0 500 500" version="1.1" xml:space="preserve">
 <g class="layer">
  <title>Layer 1</title>
  <g id="svg_953" transform="translate(42.735 0) translate(0 7.75) matrix(1.57888 0 0 1.57888 -214.713 -273.52)">
   <g id="svg_954">
    <g id="svg_955">
     <path d="m209.45,457.68c-0.02,0 -0.03,0 -0.05,0c-0.55,-0.03 -0.98,-0.5 -0.95,-1.05c0.05,-0.83 4.89,-84 53.62,-133.5c48.09,-48.87 47.42,-85.71 47.41,-86.08c-0.02,-0.55 0.41,-1.01 0.96,-1.03c0.56,-0.03 1.02,0.41 1.03,0.96c0.06,1.53 0.79,38 -47.98,87.55c-48.2,48.97 -53,131.38 -53.04,132.21c-0.03,0.53 -0.47,0.94 -1,0.94z" fill="#4A6173" id="svg_956"/>
    </g>
    <g id="svg_957">
     <g id="svg_958">
      <g id="svg_959">
       <path d="m281.07,303.42c-0.07,0 -0.15,-0.03 -0.21,-0.07c-0.16,-0.12 -0.19,-0.34 -0.08,-0.49c0.2,-0.36 11.19,-28.2 -8.04,-69.43c-0.09,-0.18 -0.01,-0.39 0.17,-0.47c0.18,-0.08 0.39,-0.01 0.47,0.17c19.8,42.45 8.13,69.95 7.98,70.15c-0.08,0.09 -0.18,0.14 -0.29,0.14z" fill="#4A6173" id="svg_960"/>
      </g>
      <g id="svg_961">
       <path d="m283.62,277.61c-2.19,0 -8.12,-1.4 -15.56,-14.59c-5.38,-9.51 -4.22,-19.99 -3.29,-28.41c0.7,-6.27 1.29,-11.68 -0.77,-15.25l-1.25,-2.18l1.81,1.75c25.48,24.51 32.25,44.18 20.13,58.47l-0.07,0.08l-0.1,0.03c-0.06,0.02 -0.37,0.1 -0.9,0.1zm0.8,-0.44l0.01,0l-0.01,0zm-19.03,-56.44c1.23,3.64 0.7,8.48 0.09,13.96c-0.97,8.75 -2.06,18.67 3.2,27.99c8.35,14.79 14.71,14.31 15.54,14.17c11.52,-13.7 5.18,-32.57 -18.83,-56.12z" fill="#4A6173" id="svg_962"/>
      </g>
      <g id="svg_963">
       <path d="m284.49,276.54l-0.21,-0.12c-13.62,-7.48 -16.09,-34.61 -16.11,-34.89c-0.01,-0.1 0.07,-0.2 0.18,-0.21c0.13,-0.01 0.2,0.07 0.21,0.18c0.02,0.27 2.44,26.92 15.7,34.46c2.44,-7.9 4.3,-22.84 -0.98,-30.08c-0.06,-0.09 -0.04,-0.21 0.04,-0.27c0.09,-0.06 0.21,-0.05 0.27,0.04c5.46,7.48 3.57,22.43 0.97,30.66l-0.07,0.23z" fill="#4A6173" id="svg_964"/>
      </g>
      <g id="svg_965">
       <path d="m284.64,275.88l-0.31,-0.51c-8.55,-14.14 -8.77,-19.78 -8.47,-21.55l0.01,-0.06c0.01,-0.11 0.11,-0.19 0.2,-0.18c0.1,0 0.19,0.08 0.19,0.18c0,0.02 -0.01,0.06 -0.02,0.12c-0.23,1.33 -0.3,6.73 8.11,20.76c0.86,-11.85 -1.24,-21.77 -2.8,-25.3c-0.04,-0.1 0,-0.21 0.1,-0.25c0.1,-0.05 0.21,0 0.26,0.1c1.6,3.61 3.76,13.9 2.78,26.09l-0.05,0.6z" fill="#4A6173" id="svg_966"/>
      </g>
     </g>
     <g id="svg_967">
      <g id="svg_968">
       <path d="m245.12,346.66c-0.09,0 -0.17,-0.03 -0.24,-0.09c-0.14,-0.12 -0.16,-0.34 -0.04,-0.49c0.22,-0.35 13.05,-27.38 -3.37,-69.81c-0.07,-0.18 0.02,-0.39 0.2,-0.46c0.19,-0.07 0.39,0.02 0.46,0.21c16.91,43.68 3.42,70.33 3.26,70.52c-0.07,0.08 -0.17,0.12 -0.27,0.12z" fill="#4A6173" id="svg_969"/>
      </g>
      <g id="svg_970">
       <path d="m249.68,321.1c-1.88,0 -7.97,-1.23 -14.86,-15.61c-4.72,-9.85 -2.87,-20.23 -1.37,-28.58c1.11,-6.2 2.07,-11.56 0.25,-15.26l-1.11,-2.25l1.69,1.86c23.78,26.16 29.22,46.24 16.17,59.69l-0.08,0.07l-0.1,0.03c-0.05,0.01 -0.25,0.05 -0.59,0.05zm0.51,-0.4l0.01,0l-0.01,0zm-15.2,-57.59c0.98,3.72 0.13,8.51 -0.84,13.93c-1.56,8.67 -3.31,18.5 1.31,28.14c7.38,15.4 13.72,15.28 14.56,15.19c12.41,-12.9 7.35,-32.16 -15.03,-57.26z" fill="#4A6173" id="svg_971"/>
      </g>
      <g id="svg_972">
       <path d="m250.31,320.07l-0.2,-0.13c-13.09,-8.37 -13.73,-35.61 -13.74,-35.89c0,-0.1 0.09,-0.19 0.19,-0.19c0.12,0 0.2,0.08 0.2,0.19c0.01,0.27 0.64,27.02 13.36,35.44c2.96,-7.72 5.82,-22.5 1.04,-30.09c-0.06,-0.09 -0.03,-0.21 0.06,-0.26c0.09,-0.06 0.21,-0.03 0.27,0.06c4.94,7.83 2.05,22.62 -1.1,30.65l-0.08,0.22z" fill="#4A6173" id="svg_973"/>
      </g>
      <g id="svg_974">
       <path d="m250.5,319.43l-0.27,-0.54c-7.59,-14.68 -7.43,-20.32 -7.01,-22.07l0.01,-0.05c0.02,-0.11 0.12,-0.18 0.22,-0.17c0.1,0.01 0.18,0.1 0.17,0.2c0,0.02 -0.01,0.06 -0.02,0.11c-0.32,1.32 -0.76,6.7 6.69,21.26c1.66,-11.77 0.22,-21.81 -1.09,-25.43c-0.04,-0.1 0.01,-0.21 0.11,-0.24c0.1,-0.04 0.22,0.01 0.25,0.11c1.35,3.72 2.83,14.12 1.03,26.22l-0.09,0.6z" fill="#4A6173" id="svg_975"/>
      </g>
     </g>
     <g id="svg_976">
      <g id="svg_977">
       <path d="m215.24,419.69c-0.07,0 -0.13,-0.01 -0.19,-0.05c-0.16,-0.1 -0.22,-0.31 -0.12,-0.48c0.15,-0.38 8.21,-29.2 -15.17,-68.22c-0.1,-0.17 -0.04,-0.39 0.13,-0.49c0.17,-0.1 0.38,-0.05 0.48,0.12c24.07,40.18 15.3,68.74 15.17,68.95c-0.07,0.11 -0.18,0.17 -0.3,0.17z" fill="#4A6173" id="svg_978"/>
      </g>
      <g id="svg_979">
       <path d="m214.56,393.79c-2.56,0 -8.33,-1.56 -16.4,-12.93c-6.32,-8.91 -6.25,-19.46 -6.19,-27.93c0.04,-6.3 0.08,-11.75 -2.34,-15.08l-1.47,-2.04l1.97,1.55c27.87,21.75 36.64,40.62 26.06,56.08l-0.06,0.09l-0.1,0.04c-0.07,0.03 -0.58,0.22 -1.47,0.22zm1.34,-0.55l0,0l0,0zm-24.75,-54.18c1.6,3.5 1.57,8.36 1.53,13.87c-0.06,8.81 -0.13,18.79 6.06,27.52c9.83,13.85 16.11,12.72 16.93,12.49c10.04,-14.81 1.79,-32.93 -24.52,-53.88z" fill="#4A6173" id="svg_980"/>
      </g>
      <g id="svg_981">
       <path d="m215.9,392.6l-0.22,-0.09c-14.32,-6.03 -19.57,-32.77 -19.62,-33.04c-0.02,-0.11 0.05,-0.21 0.16,-0.23c0.11,-0.02 0.21,0.05 0.23,0.15c0.05,0.27 5.2,26.53 19.17,32.67c1.61,-8.11 1.91,-23.17 -4.08,-29.83c-0.07,-0.08 -0.07,-0.2 0.01,-0.27c0.08,-0.07 0.21,-0.07 0.28,0.01c6.19,6.88 5.86,21.95 4.12,30.4l-0.05,0.23z" fill="#4A6173" id="svg_982"/>
      </g>
      <g id="svg_983">
       <path d="m215.99,391.94l-0.37,-0.48c-9.96,-13.19 -10.77,-18.78 -10.65,-20.57l0.01,-0.06c0,-0.1 0.08,-0.19 0.18,-0.2c0.11,0 0.19,0.07 0.2,0.17c0.01,0.02 0,0.06 0,0.12c-0.09,1.35 0.4,6.72 10.21,19.81c-0.37,-11.88 -3.48,-21.53 -5.4,-24.87c-0.05,-0.1 -0.02,-0.21 0.08,-0.27c0.09,-0.05 0.21,-0.02 0.26,0.07c1.96,3.44 5.18,13.44 5.46,25.67l0.02,0.61z" fill="#4A6173" id="svg_984"/>
      </g>
     </g>
     <g id="svg_985">
      <g id="svg_986">
       <path d="m282.01,301.22c-0.03,0 -0.05,-0.01 -0.08,-0.01c-0.18,-0.04 -0.31,-0.21 -0.27,-0.4c0.04,-0.25 12.51,-27.4 57.22,-41.36c0.19,-0.06 0.39,0.05 0.44,0.23s-0.04,0.39 -0.23,0.45c-43.54,13.59 -56.66,40.56 -56.73,40.82c-0.05,0.16 -0.2,0.27 -0.35,0.27z" fill="#4A6173" id="svg_987"/>
      </g>
      <g id="svg_988">
       <path d="m309.32,284.96c-8.75,0 -10.65,-3.64 -10.75,-3.84l-0.05,-0.1l0.02,-0.11c2.39,-18.58 21.49,-26.82 56.77,-24.51l2.51,0.17l-2.45,0.54c-4.03,0.88 -7.62,4.96 -11.79,9.7c-5.6,6.36 -12.56,14.27 -23.21,16.71c-4.55,1.04 -8.17,1.44 -11.05,1.44zm-10.06,-4.08c0.46,0.72 4.39,5.74 20.95,1.95c10.42,-2.39 17.02,-9.88 22.84,-16.49c3.64,-4.14 6.85,-7.79 10.37,-9.34c-33.57,-1.89 -51.79,6.15 -54.16,23.88zm-0.37,0.08l0.01,0l-0.01,0z" fill="#4A6173" id="svg_989"/>
      </g>
      <g id="svg_990">
       <path d="m305.68,281.51c-2.13,0 -4.19,-0.29 -6.14,-0.95l-0.23,-0.08l0.12,-0.21c4.33,-7.46 14.11,-18.92 23.31,-19.93c0.12,-0.02 0.2,0.06 0.22,0.17c0.01,0.11 -0.07,0.2 -0.18,0.21c-8.9,0.98 -18.7,12.42 -22.89,19.54c14.51,4.72 35.83,-11.44 36.05,-11.61c0.08,-0.06 0.2,-0.05 0.27,0.04c0.06,0.08 0.05,0.2 -0.04,0.27c-0.18,0.14 -16.55,12.55 -30.49,12.55z" fill="#4A6173" id="svg_991"/>
      </g>
      <g id="svg_992">
       <path d="m299.69,279.92l0.41,-0.44c8.35,-8.94 17.41,-14.26 21.16,-15.52c0.11,-0.03 0.22,0.03 0.25,0.13c0.03,0.1 -0.02,0.21 -0.12,0.24c-3.65,1.23 -12.4,6.36 -20.59,14.98c16.04,-3.24 19.98,-6.93 20.81,-8c0.04,-0.04 0.06,-0.07 0.08,-0.09c0.08,-0.07 0.2,-0.06 0.27,0.02c0.07,0.07 0.07,0.19 -0.01,0.27l-0.03,0.04c-1.11,1.42 -5.43,5.06 -21.64,8.26l-0.59,0.11z" fill="#4A6173" id="svg_993"/>
      </g>
     </g>
     <g id="svg_994">
      <g id="svg_995">
       <path d="m225.6,386.99c-0.02,0 -0.05,0 -0.07,-0.01c-0.19,-0.04 -0.31,-0.21 -0.27,-0.4c0.04,-0.25 12.51,-27.39 57.22,-41.36c0.19,-0.05 0.38,0.05 0.44,0.24s-0.04,0.39 -0.23,0.44c-43.54,13.6 -56.66,40.57 -56.74,40.82c-0.04,0.16 -0.19,0.27 -0.35,0.27z" fill="#4A6173" id="svg_996"/>
      </g>
      <g id="svg_997">
       <path d="m252.92,370.73c-8.75,0 -10.65,-3.64 -10.75,-3.84l-0.05,-0.1l0.02,-0.1c2.39,-18.58 21.49,-26.82 56.77,-24.51l2.51,0.16l-2.45,0.54c-4.03,0.88 -7.62,4.97 -11.79,9.7c-5.6,6.36 -12.56,14.28 -23.21,16.72c-4.55,1.04 -8.17,1.43 -11.05,1.43zm-10.06,-4.07c0.46,0.72 4.39,5.73 20.95,1.94c10.42,-2.38 17.02,-9.88 22.84,-16.49c3.64,-4.14 6.85,-7.79 10.37,-9.33c-33.57,-1.89 -51.8,6.14 -54.16,23.88zm-0.37,0.07l0.01,0l-0.01,0z" fill="#4A6173" id="svg_998"/>
      </g>
      <g id="svg_999">
       <path d="m249.28,367.29c-2.13,0 -4.2,-0.29 -6.14,-0.96l-0.23,-0.08l0.12,-0.2c4.33,-7.46 14.11,-18.93 23.31,-19.94c0.12,-0.02 0.2,0.07 0.21,0.17c0.02,0.11 -0.06,0.21 -0.17,0.22c-8.91,0.98 -18.7,12.41 -22.89,19.54c14.51,4.72 35.83,-11.45 36.04,-11.61c0.09,-0.07 0.21,-0.05 0.28,0.03c0.06,0.09 0.05,0.21 -0.04,0.27c-0.19,0.15 -16.56,12.56 -30.49,12.56z" fill="#4A6173" id="svg_1000"/>
      </g>
      <g id="svg_1001">
       <path d="m243.29,365.7l0.41,-0.44c8.35,-8.94 17.41,-14.26 21.16,-15.52c0.1,-0.03 0.21,0.02 0.25,0.12c0.03,0.1 -0.02,0.21 -0.13,0.25c-3.65,1.22 -12.39,6.35 -20.58,14.97c16.03,-3.24 19.98,-6.93 20.81,-7.99c0.03,-0.05 0.06,-0.08 0.07,-0.09c0.08,-0.07 0.21,-0.07 0.28,0.01c0.07,0.08 0.06,0.2 -0.01,0.27l-0.04,0.05c-1.1,1.41 -5.42,5.05 -21.63,8.25l-0.59,0.12z" fill="#4A6173" id="svg_1002"/>
      </g>
     </g>
     <g id="svg_1003">
      <g id="svg_1004">
       <path d="m209.37,455.65c-0.03,0 -0.05,-0.01 -0.08,-0.01c-0.18,-0.04 -0.3,-0.21 -0.27,-0.4c0.04,-0.25 12.51,-27.4 57.22,-41.36c0.19,-0.06 0.39,0.05 0.45,0.23c0.05,0.19 -0.05,0.39 -0.24,0.45c-43.54,13.6 -56.66,40.56 -56.73,40.82c-0.05,0.16 -0.19,0.27 -0.35,0.27z" fill="#4A6173" id="svg_1005"/>
      </g>
      <g id="svg_1006">
       <path d="m236.68,439.39c-8.75,0 -10.65,-3.64 -10.75,-3.85l-0.05,-0.09l0.02,-0.11c2.4,-18.58 21.49,-26.82 56.78,-24.51l2.5,0.17l-2.45,0.53c-4.03,0.89 -7.62,4.97 -11.79,9.7c-5.6,6.37 -12.56,14.28 -23.21,16.72c-4.54,1.04 -8.17,1.44 -11.05,1.44zm-10.06,-4.08c0.47,0.72 4.39,5.74 20.95,1.95c10.42,-2.39 17.02,-9.88 22.84,-16.5c3.64,-4.13 6.85,-7.78 10.38,-9.33c-33.58,-1.89 -51.8,6.15 -54.17,23.88zm-0.37,0.08l0.01,0l-0.01,0z" fill="#4A6173" id="svg_1007"/>
      </g>
      <g id="svg_1008">
       <path d="m233.04,435.94c-2.12,0 -4.19,-0.29 -6.14,-0.96l-0.22,-0.07l0.11,-0.21c4.33,-7.46 14.11,-18.92 23.31,-19.93c0.12,-0.02 0.21,0.06 0.22,0.17c0.01,0.11 -0.07,0.2 -0.17,0.21c-8.91,0.98 -18.7,12.41 -22.9,19.54c14.51,4.72 35.83,-11.44 36.05,-11.61c0.08,-0.06 0.21,-0.05 0.27,0.04c0.07,0.08 0.05,0.2 -0.03,0.27c-0.19,0.15 -16.56,12.55 -30.5,12.55z" fill="#4A6173" id="svg_1009"/>
      </g>
      <g id="svg_1010">
       <path d="m227.05,434.36l0.41,-0.44c8.35,-8.94 17.41,-14.27 21.17,-15.52c0.1,-0.04 0.21,0.02 0.24,0.12c0.04,0.1 -0.02,0.21 -0.12,0.24c-3.65,1.23 -12.4,6.36 -20.59,14.98c16.04,-3.24 19.98,-6.93 20.81,-8c0.04,-0.04 0.06,-0.07 0.08,-0.08c0.08,-0.08 0.2,-0.07 0.27,0.01c0.07,0.08 0.07,0.2 -0.01,0.27l-0.03,0.04c-1.11,1.42 -5.43,5.06 -21.64,8.26l-0.59,0.12z" fill="#4A6173" id="svg_1011"/>
      </g>
     </g>
    </g>
    <g id="svg_1012">
     <g id="svg_1013">
      <path d="m218.84,405.26c-0.06,0 -0.11,-0.01 -0.17,-0.04c-0.17,-0.09 -0.24,-0.31 -0.14,-0.48c4.97,-9.38 22.5,-19.73 36.81,-26.96c-27.44,-1.77 -33.11,17.2 -33.16,17.4c-0.05,0.19 -0.25,0.3 -0.44,0.25c-0.19,-0.06 -0.3,-0.25 -0.25,-0.44c0.06,-0.21 6.06,-20.32 35.19,-17.83l1.25,0.11l-1.13,0.57c-11.79,5.89 -32.36,17.27 -37.64,27.23c-0.07,0.12 -0.19,0.19 -0.32,0.19z" fill="#4A6173" id="svg_1014"/>
     </g>
     <g id="svg_1015">
      <path d="m220.17,400.29c-0.07,0 -0.14,-0.02 -0.2,-0.06c-0.16,-0.11 -0.2,-0.33 -0.1,-0.49c0.14,-0.21 14.25,-21.08 36.75,-22.58c0.2,0.01 0.37,0.14 0.38,0.33c0.01,0.2 -0.14,0.37 -0.33,0.38c-22.14,1.47 -36.07,22.05 -36.2,22.26c-0.07,0.1 -0.19,0.16 -0.3,0.16z" fill="#4A6173" id="svg_1016"/>
     </g>
    </g>
    <g id="svg_1017">
     <g id="svg_1018">
      <path d="m257,330.44c-0.12,0 -0.24,-0.06 -0.31,-0.17c-0.1,-0.17 -0.04,-0.39 0.12,-0.49c10.67,-6.31 35.6,-5.05 44.87,-4.33c-22.47,-15.81 -37.23,-2.6 -37.37,-2.46c-0.15,0.13 -0.37,0.12 -0.51,-0.02c-0.13,-0.14 -0.12,-0.37 0.02,-0.5c0.16,-0.15 15.77,-14.18 39.31,3.15l1.02,0.75l-1.26,-0.11c-7.94,-0.67 -34.69,-2.39 -45.71,4.13c-0.06,0.04 -0.12,0.05 -0.18,0.05z" fill="#4A6173" id="svg_1019"/>
     </g>
     <g id="svg_1020">
      <path d="m260.11,326.35c-0.13,0 -0.26,-0.07 -0.32,-0.2c-0.08,-0.18 -0.01,-0.39 0.17,-0.48c0.23,-0.1 23.16,-10.54 43.13,-0.08c0.17,0.1 0.24,0.31 0.15,0.48c-0.09,0.18 -0.31,0.24 -0.48,0.15c-19.66,-10.3 -42.27,-0.01 -42.5,0.1c-0.05,0.02 -0.1,0.03 -0.15,0.03z" fill="#4A6173" id="svg_1021"/>
     </g>
    </g>
    <g id="svg_1022">
     <g id="svg_1023">
      <path d="m307.76,253.19c-0.05,0 -0.11,-0.02 -0.16,-0.04c-0.17,-0.09 -0.24,-0.31 -0.15,-0.48c4.87,-9.43 22.3,-19.97 36.53,-27.35c-27.46,-1.49 -32.92,17.55 -32.98,17.75c-0.05,0.19 -0.24,0.3 -0.43,0.25c-0.19,-0.05 -0.31,-0.25 -0.25,-0.44c0.05,-0.2 5.86,-20.38 34.99,-18.18l1.26,0.09l-1.12,0.58c-11.74,6.02 -32.19,17.61 -37.37,27.62c-0.06,0.13 -0.19,0.2 -0.32,0.2z" fill="#4A6173" id="svg_1024"/>
     </g>
     <g id="svg_1025">
      <path d="m309.04,248.2c-0.06,0 -0.13,-0.02 -0.19,-0.06c-0.16,-0.1 -0.21,-0.32 -0.1,-0.49c0.13,-0.21 14.02,-21.23 36.51,-22.95c0.22,-0.01 0.37,0.13 0.38,0.32c0.02,0.2 -0.13,0.37 -0.33,0.39c-22.13,1.7 -35.83,22.42 -35.97,22.63c-0.07,0.1 -0.18,0.16 -0.3,0.16z" fill="#4A6173" id="svg_1026"/>
     </g>
    </g>
    <g id="svg_1027">
     <g id="svg_1028">
      <path d="m212.01,433.91c0,0 0,0 -0.01,0c-0.19,-0.01 -0.35,-0.17 -0.34,-0.37c0.3,-11.27 -12.01,-31.3 -19.37,-42.24l-0.71,-1.04l1.15,0.52c26.58,12.16 21.91,32.62 21.86,32.83c-0.05,0.19 -0.25,0.31 -0.43,0.26c-0.2,-0.05 -0.31,-0.24 -0.27,-0.43c0.05,-0.2 4.44,-19.51 -20.3,-31.47c8.9,13.34 19.07,30.98 18.78,41.59c0,0.19 -0.16,0.35 -0.36,0.35z" fill="#4A6173" id="svg_1029"/>
     </g>
     <g id="svg_1030">
      <path d="m213.3,428.92c-0.18,0 -0.34,-0.14 -0.35,-0.33c-0.02,-0.25 -2.01,-25.01 -20.56,-37.19c-0.17,-0.11 -0.21,-0.33 -0.11,-0.49c0.11,-0.17 0.33,-0.21 0.5,-0.1c18.85,12.37 20.86,37.48 20.88,37.73c0.01,0.2 -0.13,0.37 -0.33,0.38c-0.01,0 -0.02,0 -0.03,0z" fill="#4A6173" id="svg_1031"/>
     </g>
    </g>
    <g id="svg_1032">
     <g id="svg_1033">
      <path d="m238.41,358.01c-0.02,0 -0.03,0 -0.04,0c-0.2,-0.02 -0.34,-0.2 -0.32,-0.4c1.42,-11.93 -8.5,-33.88 -13.95,-43.83l-0.61,-1.11l1.1,0.63c25.36,14.54 18.83,34.49 18.76,34.69c-0.06,0.19 -0.26,0.29 -0.45,0.22c-0.18,-0.06 -0.28,-0.26 -0.22,-0.45c0.07,-0.19 6.2,-19.03 -17.35,-33.19c5.58,10.46 14.82,31.46 13.43,43.13c-0.02,0.18 -0.17,0.31 -0.35,0.31z" fill="#4A6173" id="svg_1034"/>
     </g>
     <g id="svg_1035">
      <path d="m241.6,351.66c-0.01,0 -0.01,0 -0.01,0c-0.2,0 -0.35,-0.16 -0.35,-0.36c0.01,-0.23 0.31,-23.59 -17.05,-37.41c-0.15,-0.12 -0.18,-0.34 -0.06,-0.5c0.13,-0.15 0.35,-0.18 0.5,-0.06c17.65,14.05 17.33,37.75 17.32,37.99c0,0.19 -0.16,0.34 -0.35,0.34z" fill="#4A6173" id="svg_1036"/>
     </g>
    </g>
    <g id="svg_1037">
     <g id="svg_1038">
      <path d="m271.94,315.79c-0.02,0 -0.06,-0.01 -0.08,-0.01c-0.19,-0.05 -0.31,-0.25 -0.26,-0.44c3.01,-11.63 -3.89,-34.72 -7.95,-45.31l-0.46,-1.18l1.01,0.77c23.18,17.81 14.04,36.71 13.94,36.9c-0.09,0.17 -0.3,0.24 -0.47,0.15c-0.18,-0.09 -0.25,-0.3 -0.16,-0.47c0.09,-0.19 8.68,-18.03 -12.75,-35.23c4.13,11.12 10.47,33.17 7.53,44.55c-0.04,0.16 -0.19,0.27 -0.35,0.27z" fill="#4A6173" id="svg_1039"/>
     </g>
     <g id="svg_1040">
      <path d="m275.96,309.92c-0.02,0 -0.04,0 -0.06,0c-0.19,-0.03 -0.33,-0.22 -0.3,-0.41c0.04,-0.23 3.47,-23.33 -11.88,-39.36c-0.14,-0.14 -0.13,-0.36 0.01,-0.5c0.14,-0.14 0.37,-0.13 0.5,0.01c15.61,16.28 12.11,39.73 12.08,39.96c-0.03,0.18 -0.18,0.3 -0.35,0.3z" fill="#4A6173" id="svg_1041"/>
     </g>
    </g>
    <g id="svg_1042">
     <g id="svg_1043">
      <path d="m299.2,273.23c-0.02,0 -0.04,0 -0.05,0c-0.2,-0.03 -0.33,-0.21 -0.31,-0.41c1.75,-11.88 -7.57,-34.1 -12.75,-44.19l-0.57,-1.13l1.08,0.66c24.95,15.22 17.88,34.99 17.81,35.19c-0.07,0.18 -0.27,0.28 -0.46,0.21c-0.19,-0.07 -0.28,-0.28 -0.21,-0.46c0.07,-0.19 6.71,-18.85 -16.44,-33.66c5.3,10.61 13.96,31.85 12.25,43.49c-0.03,0.17 -0.18,0.3 -0.35,0.3z" fill="#4A6173" id="svg_1044"/>
     </g>
     <g id="svg_1045">
      <path d="m302.56,266.97c-0.01,0 -0.01,0 -0.02,0c-0.19,-0.01 -0.35,-0.18 -0.34,-0.37c0.02,-0.24 0.96,-23.57 -16.02,-37.86c-0.15,-0.13 -0.17,-0.35 -0.04,-0.5c0.13,-0.16 0.35,-0.17 0.5,-0.05c17.25,14.52 16.29,38.2 16.27,38.44c-0.01,0.19 -0.16,0.34 -0.35,0.34z" fill="#4A6173" id="svg_1046"/>
     </g>
    </g>
    <g id="svg_1047">
     <g id="svg_1048">
      <path d="m209.45,450.71c-0.01,0 -0.03,0 -0.04,-0.01c-0.2,-0.02 -0.34,-0.2 -0.31,-0.4c0.02,-0.17 2.39,-17.35 13.36,-33.48c10.14,-14.91 29.88,-31.94 66.39,-28.49c0.19,0.02 0.34,0.19 0.32,0.39c-0.02,0.19 -0.19,0.34 -0.39,0.32c-36.17,-3.43 -55.7,13.43 -65.73,28.18c-10.88,15.99 -13.22,33.01 -13.25,33.18c-0.02,0.18 -0.17,0.31 -0.35,0.31z" fill="#4A6173" id="svg_1049"/>
     </g>
     <g id="svg_1050">
      <circle cx="289.73" cy="388.6" fill="#4A6173" id="svg_1051" r="2.5"/>
     </g>
     <g id="svg_1052">
      <circle cx="285.64" cy="384.27" fill="#4A6173" id="svg_1053" r="1.83"/>
     </g>
     <g id="svg_1054">
      <path d="m280.19,384.54c0,1.16 -0.94,2.11 -2.11,2.11s-2.1,-0.95 -2.1,-2.11c0,-1.16 0.94,-2.11 2.1,-2.11s2.11,0.95 2.11,2.11z" fill="#4A6173" id="svg_1055"/>
     </g>
     <g id="svg_1056">
      <circle cx="283.33" cy="391.37" fill="#4A6173" id="svg_1057" r="3.14"/>
     </g>
     <g id="svg_1058">
      <circle cx="275.66" cy="389.19" fill="#4A6173" id="svg_1059" r="2.18"/>
     </g>
     <g id="svg_1060">
      <circle cx="268.52" cy="385.89" fill="#4A6173" id="svg_1061" r="2.71"/>
     </g>
     <g id="svg_1062">
      <path d="m265.13,390.02c0,1.42 -1.15,2.58 -2.58,2.58c-1.43,0 -2.58,-1.16 -2.58,-2.58s1.15,-2.59 2.58,-2.59c1.43,0 2.58,1.16 2.58,2.59z" fill="#4A6173" id="svg_1063"/>
     </g>
     <g id="svg_1064">
      <circle cx="269.98" cy="393.02" fill="#4A6173" id="svg_1065" r="3"/>
     </g>
     <g id="svg_1066">
      <path d="m276.08,382.4c0,1.18 -0.95,2.14 -2.13,2.14s-2.14,-0.96 -2.14,-2.14c0,-1.18 0.96,-2.13 2.14,-2.13s2.13,0.95 2.13,2.13z" fill="#4A6173" id="svg_1067"/>
     </g>
     <g id="svg_1068">
      <circle cx="255.21" cy="386.91" fill="#4A6173" id="svg_1069" r="1.81"/>
     </g>
     <g id="svg_1070">
      <path d="m262.88,384.64c0,0.81 -0.65,1.46 -1.46,1.46c-0.8,0 -1.45,-0.65 -1.45,-1.46c0,-0.8 0.65,-1.46 1.45,-1.46c0.81,0 1.46,0.66 1.46,1.46z" fill="#4A6173" id="svg_1071"/>
     </g>
     <g id="svg_1072">
      <circle cx="255.06" cy="392.52" fill="#4A6173" id="svg_1073" r="2.5"/>
     </g>
     <g id="svg_1074">
      <circle cx="260.71" cy="395.08" fill="#4A6173" id="svg_1075" r="1.31"/>
     </g>
     <g id="svg_1076">
      <circle cx="265.35" cy="395.64" fill="#4A6173" id="svg_1077" r="1.13"/>
     </g>
     <g id="svg_1078">
      <path d="m279.65,394.18c0,1.11 -0.89,2 -1.99,2c-1.11,0 -2,-0.89 -2,-2c0,-1.1 0.89,-2 2,-2c1.1,0 1.99,0.9 1.99,2z" fill="#4A6173" id="svg_1079"/>
     </g>
     <g id="svg_1080">
      <path d="m252.46,393.69c0,1.29 -1.04,2.33 -2.33,2.33c-1.28,0 -2.32,-1.04 -2.32,-2.33c0,-1.28 1.04,-2.32 2.32,-2.32c1.29,0 2.33,1.04 2.33,2.32z" fill="#4A6173" id="svg_1081"/>
     </g>
    </g>
    <g id="svg_1082">
     <g id="svg_1083">
      <path d="m256.51,330.37c-0.08,0 -0.16,-0.02 -0.23,-0.08c-0.15,-0.13 -0.17,-0.35 -0.04,-0.5c14.23,-16.89 34.2,-25.95 54.8,-24.86c7.86,0.41 16.16,2.16 24.66,5.19c0.18,0.07 0.28,0.27 0.21,0.46c-0.06,0.18 -0.27,0.28 -0.45,0.21c-8.44,-3.01 -16.67,-4.74 -24.45,-5.15c-20.39,-1.08 -40.14,7.89 -54.23,24.61c-0.07,0.08 -0.17,0.12 -0.27,0.12z" fill="#4A6173" id="svg_1084"/>
     </g>
     <g id="svg_1085">
      <path d="m338.91,311.22c-0.34,1.34 -1.7,2.15 -3.04,1.81s-2.15,-1.7 -1.81,-3.04c0.34,-1.34 1.7,-2.15 3.04,-1.81c1.34,0.34 2.15,1.7 1.81,3.04z" fill="#4A6173" id="svg_1086"/>
     </g>
     <g id="svg_1087">
      <path d="m335.37,305.85c-0.25,0.98 -1.25,1.57 -2.23,1.32c-0.98,-0.25 -1.58,-1.24 -1.33,-2.22c0.25,-0.99 1.25,-1.58 2.23,-1.33c0.98,0.25 1.58,1.25 1.33,2.23z" fill="#4A6173" id="svg_1088"/>
     </g>
     <g id="svg_1089">
      <path d="m328.24,304.32c-0.29,1.13 -1.43,1.81 -2.56,1.53c-1.13,-0.29 -1.81,-1.44 -1.53,-2.56c0.29,-1.13 1.43,-1.81 2.56,-1.53c1.13,0.29 1.81,1.43 1.53,2.56z" fill="#4A6173" id="svg_1090"/>
     </g>
     <g id="svg_1091">
      <path d="m332.65,312.49c-0.42,1.68 -2.13,2.7 -3.82,2.28c-1.68,-0.43 -2.7,-2.14 -2.27,-3.82c0.42,-1.69 2.13,-2.7 3.82,-2.28c1.68,0.43 2.7,2.14 2.27,3.82z" fill="#4A6173" id="svg_1092"/>
     </g>
     <g id="svg_1093">
      <path d="m324.81,308.26c-0.3,1.16 -1.48,1.87 -2.65,1.57c-1.16,-0.29 -1.87,-1.48 -1.57,-2.64c0.29,-1.17 1.48,-1.88 2.64,-1.58c1.17,0.29 1.88,1.48 1.58,2.65z" fill="#4A6173" id="svg_1094"/>
     </g>
     <g id="svg_1095">
      <path d="m319.22,303.43c-0.37,1.45 -1.84,2.33 -3.29,1.96c-1.45,-0.36 -2.33,-1.84 -1.96,-3.29c0.36,-1.45 1.84,-2.32 3.29,-1.96c1.45,0.37 2.32,1.84 1.96,3.29z" fill="#4A6173" id="svg_1096"/>
     </g>
     <g id="svg_1097">
      <path d="m312.3,305.94c-0.36,1.38 -1.76,2.22 -3.14,1.87c-1.39,-0.36 -2.22,-1.76 -1.87,-3.14c0.35,-1.39 1.75,-2.22 3.14,-1.87c1.38,0.35 2.21,1.75 1.87,3.14z" fill="#4A6173" id="svg_1098"/>
     </g>
     <g id="svg_1099">
      <path d="m319.16,310.77c-0.4,1.61 -2.03,2.58 -3.64,2.17c-1.61,-0.41 -2.58,-2.04 -2.17,-3.64c0.4,-1.61 2.03,-2.58 3.64,-2.18c1.61,0.41 2.58,2.04 2.17,3.65z" fill="#4A6173" id="svg_1100"/>
     </g>
     <g id="svg_1101">
      <path d="m324.78,301.24c-0.29,1.15 -1.45,1.84 -2.6,1.55c-1.14,-0.29 -1.83,-1.45 -1.54,-2.6c0.29,-1.14 1.45,-1.83 2.59,-1.54c1.15,0.29 1.84,1.45 1.55,2.59z" fill="#4A6173" id="svg_1102"/>
     </g>
     <g id="svg_1103">
      <path d="m305.19,300.93c-0.24,0.97 -1.23,1.56 -2.2,1.32c-0.97,-0.25 -1.56,-1.24 -1.31,-2.21c0.24,-0.97 1.23,-1.55 2.2,-1.31c0.97,0.25 1.56,1.23 1.31,2.2z" fill="#4A6173" id="svg_1104"/>
     </g>
     <g id="svg_1105">
      <path d="m311.43,300.17c-0.19,0.78 -0.99,1.26 -1.77,1.06c-0.78,-0.2 -1.25,-0.99 -1.05,-1.77c0.19,-0.78 0.99,-1.26 1.77,-1.06c0.78,0.2 1.25,0.99 1.05,1.77z" fill="#4A6173" id="svg_1106"/>
     </g>
     <g id="svg_1107">
      <path d="m304.34,306.5c-0.34,1.34 -1.7,2.15 -3.03,1.81c-1.34,-0.34 -2.15,-1.7 -1.81,-3.04c0.33,-1.34 1.69,-2.15 3.03,-1.81c1.34,0.34 2.15,1.7 1.81,3.04z" fill="#4A6173" id="svg_1108"/>
     </g>
     <g id="svg_1109">
      <path d="m308.03,310.08c-0.17,0.7 -0.89,1.13 -1.59,0.95c-0.7,-0.18 -1.13,-0.89 -0.95,-1.6c0.18,-0.7 0.89,-1.13 1.59,-0.95c0.71,0.18 1.13,0.9 0.95,1.6z" fill="#4A6173" id="svg_1110"/>
     </g>
     <g id="svg_1111">
      <path d="m312.22,311.72c-0.15,0.6 -0.77,0.97 -1.37,0.81s-0.97,-0.76 -0.81,-1.36c0.15,-0.61 0.76,-0.97 1.36,-0.82c0.61,0.15 0.97,0.77 0.82,1.37z" fill="#4A6173" id="svg_1112"/>
     </g>
     <g id="svg_1113">
      <path d="m325.35,313.54c-0.27,1.07 -1.36,1.71 -2.43,1.44c-1.07,-0.27 -1.72,-1.35 -1.45,-2.42c0.27,-1.07 1.36,-1.72 2.43,-1.45c1.07,0.27 1.72,1.36 1.45,2.43z" fill="#4A6173" id="svg_1114"/>
     </g>
     <g id="svg_1115">
      <path d="m299.1,306.39c-0.31,1.24 -1.58,1.99 -2.82,1.68c-1.24,-0.32 -1.99,-1.58 -1.68,-2.82c0.31,-1.25 1.58,-2 2.82,-1.68c1.25,0.31 2,1.57 1.68,2.82z" fill="#4A6173" id="svg_1116"/>
     </g>
    </g>
    <g id="svg_1117">
     <g id="svg_1118">
      <path d="m219.03,405.01c-0.04,0 -0.08,-0.01 -0.13,-0.02c-0.18,-0.08 -0.27,-0.28 -0.2,-0.47c0.07,-0.16 6.34,-16.17 4.67,-35.44c-1.54,-17.76 -10.34,-42.01 -43.54,-56.7c-0.18,-0.08 -0.27,-0.29 -0.19,-0.47c0.08,-0.18 0.29,-0.26 0.47,-0.18c33.54,14.83 42.42,39.36 43.97,57.31c1.68,19.44 -4.65,35.59 -4.72,35.75c-0.05,0.14 -0.18,0.22 -0.33,0.22z" fill="#4A6173" id="svg_1119"/>
     </g>
     <g id="svg_1120">
      <path d="m177.03,310.31c-0.68,1.2 -0.25,2.73 0.96,3.4c1.2,0.68 2.73,0.25 3.4,-0.95c0.68,-1.21 0.25,-2.73 -0.96,-3.41c-1.2,-0.67 -2.73,-0.24 -3.4,0.96z" fill="#4A6173" id="svg_1121"/>
     </g>
     <g id="svg_1122">
      <path d="m183.29,308.85c-0.49,0.89 -0.18,2 0.71,2.5c0.88,0.49 2,0.18 2.49,-0.7c0.5,-0.89 0.18,-2 -0.7,-2.5c-0.88,-0.5 -2,-0.18 -2.5,0.7z" fill="#4A6173" id="svg_1123"/>
     </g>
     <g id="svg_1124">
      <path d="m189.52,312.65c-0.57,1.02 -0.21,2.3 0.8,2.87c1.02,0.57 2.3,0.21 2.87,-0.81c0.57,-1.01 0.21,-2.29 -0.81,-2.86c-1.01,-0.57 -2.29,-0.21 -2.86,0.8z" fill="#4A6173" id="svg_1125"/>
     </g>
     <g id="svg_1126">
      <path d="m180.69,315.54c-0.85,1.52 -0.31,3.43 1.21,4.28c1.51,0.85 3.43,0.31 4.28,-1.2c0.85,-1.52 0.31,-3.43 -1.21,-4.28c-1.51,-0.85 -3.43,-0.31 -4.28,1.2z" fill="#4A6173" id="svg_1127"/>
     </g>
     <g id="svg_1128">
      <path d="m189.29,317.87c-0.58,1.05 -0.21,2.38 0.84,2.96c1.05,0.59 2.38,0.22 2.96,-0.83c0.59,-1.05 0.22,-2.38 -0.83,-2.97c-1.05,-0.59 -2.38,-0.21 -2.97,0.84z" fill="#4A6173" id="svg_1129"/>
     </g>
     <g id="svg_1130">
      <path d="m196.67,318.22c-0.73,1.3 -0.26,2.95 1.04,3.69c1.31,0.73 2.96,0.26 3.69,-1.04c0.73,-1.31 0.27,-2.96 -1.04,-3.69c-1.3,-0.73 -2.95,-0.27 -3.69,1.04z" fill="#4A6173" id="svg_1131"/>
     </g>
     <g id="svg_1132">
      <path d="m199.97,324.8c-0.69,1.24 -0.25,2.82 0.99,3.51c1.25,0.7 2.82,0.26 3.52,-0.99c0.7,-1.24 0.26,-2.82 -0.99,-3.51c-1.24,-0.7 -2.82,-0.26 -3.52,0.99z" fill="#4A6173" id="svg_1133"/>
     </g>
     <g id="svg_1134">
      <path d="m191.66,323.58c-0.81,1.44 -0.29,3.27 1.15,4.08s3.28,0.3 4.09,-1.15c0.81,-1.44 0.29,-3.27 -1.15,-4.08c-1.45,-0.81 -3.28,-0.3 -4.09,1.15z" fill="#4A6173" id="svg_1135"/>
     </g>
     <g id="svg_1136">
      <path d="m194.14,312.8c-0.57,1.03 -0.21,2.33 0.82,2.91s2.33,0.21 2.91,-0.82c0.58,-1.03 0.21,-2.33 -0.82,-2.91c-1.03,-0.58 -2.33,-0.21 -2.91,0.82z" fill="#4A6173" id="svg_1137"/>
     </g>
     <g id="svg_1138">
      <path d="m208.57,326.06c-0.49,0.87 -0.18,1.98 0.69,2.46c0.87,0.49 1.98,0.18 2.47,-0.69c0.49,-0.87 0.18,-1.98 -0.7,-2.47c-0.87,-0.49 -1.97,-0.18 -2.46,0.7z" fill="#4A6173" id="svg_1139"/>
     </g>
     <g id="svg_1140">
      <path d="m204.56,321.21c-0.39,0.7 -0.14,1.59 0.56,1.98c0.71,0.4 1.59,0.15 1.99,-0.56c0.39,-0.7 0.14,-1.59 -0.56,-1.98c-0.7,-0.39 -1.59,-0.14 -1.99,0.56z" fill="#4A6173" id="svg_1141"/>
     </g>
     <g id="svg_1142">
      <path d="m205.35,330.68c-0.67,1.2 -0.24,2.73 0.96,3.4c1.21,0.68 2.73,0.25 3.41,-0.95c0.67,-1.21 0.24,-2.73 -0.96,-3.41c-1.21,-0.67 -2.73,-0.24 -3.41,0.96z" fill="#4A6173" id="svg_1143"/>
     </g>
     <g id="svg_1144">
      <path d="m200.21,330.74c-0.35,0.63 -0.13,1.43 0.5,1.78c0.64,0.36 1.44,0.13 1.79,-0.5c0.36,-0.63 0.13,-1.43 -0.5,-1.79c-0.63,-0.35 -1.43,-0.13 -1.79,0.51z" fill="#4A6173" id="svg_1145"/>
     </g>
     <g id="svg_1146">
      <path d="m196.05,329.05c-0.31,0.54 -0.11,1.22 0.43,1.53c0.54,0.3 1.23,0.11 1.53,-0.43c0.31,-0.55 0.11,-1.23 -0.43,-1.54c-0.54,-0.3 -1.23,-0.11 -1.53,0.44z" fill="#4A6173" id="svg_1147"/>
     </g>
     <g id="svg_1148">
      <path d="m185.27,321.33c-0.54,0.96 -0.2,2.18 0.77,2.72c0.96,0.54 2.18,0.2 2.72,-0.77c0.54,-0.96 0.19,-2.18 -0.77,-2.72c-0.96,-0.54 -2.18,-0.19 -2.72,0.77z" fill="#4A6173" id="svg_1149"/>
     </g>
     <g id="svg_1150">
      <path d="m209.23,334.21c-0.63,1.11 -0.23,2.53 0.89,3.16c1.12,0.62 2.54,0.23 3.16,-0.89c0.63,-1.12 0.23,-2.54 -0.89,-3.16c-1.12,-0.63 -2.53,-0.23 -3.16,0.89z" fill="#4A6173" id="svg_1151"/>
     </g>
    </g>
   </g>
   <g id="svg_1152">
    <g id="svg_1153">
     <path d="m296.56,280.5c-0.06,0 -0.12,-0.02 -0.18,-0.06c-0.17,-0.1 -0.22,-0.32 -0.12,-0.48c11.33,-18.7 13.5,-40.3 5.96,-59.25c-2.88,-7.25 -7.15,-14.49 -12.71,-21.52c-0.12,-0.15 -0.09,-0.38 0.06,-0.5c0.16,-0.12 0.38,-0.09 0.5,0.06c5.6,7.09 9.91,14.38 12.82,21.69c7.62,19.17 5.43,41 -6.02,59.89c-0.07,0.11 -0.19,0.17 -0.31,0.17z" fill="#4A6173" id="svg_1154"/>
    </g>
    <g id="svg_1155">
     <path d="m288.01,196.05c-1.16,0.75 -1.5,2.3 -0.75,3.46c0.75,1.16 2.3,1.49 3.46,0.74c1.16,-0.75 1.49,-2.29 0.74,-3.45c-0.75,-1.17 -2.29,-1.5 -3.45,-0.75z" fill="#4A6173" id="svg_1156"/>
    </g>
    <g id="svg_1157">
     <path d="m294.23,197.69c-0.85,0.55 -1.1,1.69 -0.55,2.54c0.55,0.85 1.69,1.09 2.54,0.54c0.85,-0.55 1.09,-1.68 0.54,-2.53c-0.55,-0.85 -1.68,-1.1 -2.53,-0.55z" fill="#4A6173" id="svg_1158"/>
    </g>
    <g id="svg_1159">
     <path d="m297.95,203.96c-0.97,0.63 -1.25,1.94 -0.62,2.91c0.63,0.98 1.93,1.26 2.91,0.63c0.98,-0.63 1.26,-1.94 0.63,-2.91c-0.63,-0.98 -1.94,-1.26 -2.92,-0.63z" fill="#4A6173" id="svg_1160"/>
    </g>
    <g id="svg_1161">
     <path d="m288.8,202.39c-1.46,0.94 -1.87,2.89 -0.93,4.35c0.94,1.45 2.89,1.87 4.34,0.93c1.46,-0.94 1.88,-2.89 0.94,-4.35c-0.94,-1.45 -2.89,-1.87 -4.35,-0.93z" fill="#4A6173" id="svg_1162"/>
    </g>
    <g id="svg_1163">
     <path d="m295.32,208.47c-1.01,0.65 -1.3,2 -0.64,3.01c0.65,1.01 2,1.3 3.01,0.65c1.01,-0.66 1.3,-2.01 0.64,-3.02c-0.65,-1.01 -2,-1.3 -3.01,-0.64z" fill="#4A6173" id="svg_1164"/>
    </g>
    <g id="svg_1165">
     <path d="m301.68,212.22c-1.25,0.81 -1.61,2.49 -0.8,3.75c0.81,1.25 2.49,1.61 3.74,0.8c1.26,-0.81 1.62,-2.49 0.81,-3.74c-0.81,-1.26 -2.49,-1.62 -3.75,-0.81z" fill="#4A6173" id="svg_1166"/>
    </g>
    <g id="svg_1167">
     <path d="m301.53,219.58c-1.2,0.77 -1.54,2.37 -0.77,3.57c0.78,1.2 2.38,1.54 3.57,0.77c1.2,-0.77 1.55,-2.37 0.77,-3.57c-0.78,-1.2 -2.37,-1.54 -3.57,-0.77z" fill="#4A6173" id="svg_1168"/>
    </g>
    <g id="svg_1169">
     <path d="m294.75,214.62c-1.39,0.9 -1.79,2.76 -0.89,4.15c0.9,1.39 2.76,1.79 4.15,0.89c1.39,-0.9 1.79,-2.76 0.89,-4.15c-0.9,-1.39 -2.76,-1.79 -4.15,-0.89z" fill="#4A6173" id="svg_1170"/>
    </g>
    <g id="svg_1171">
     <path d="m301.98,206.25c-0.99,0.64 -1.28,1.96 -0.64,2.95c0.64,0.99 1.97,1.28 2.96,0.64c0.99,-0.64 1.27,-1.96 0.63,-2.96c-0.64,-0.99 -1.96,-1.27 -2.95,-0.63z" fill="#4A6173" id="svg_1172"/>
    </g>
    <g id="svg_1173">
     <path d="m308.54,224.71c-0.84,0.54 -1.08,1.66 -0.54,2.5s1.67,1.09 2.51,0.54s1.08,-1.66 0.53,-2.5c-0.54,-0.84 -1.66,-1.09 -2.5,-0.54z" fill="#4A6173" id="svg_1174"/>
    </g>
    <g id="svg_1175">
     <path d="m307.26,218.55c-0.67,0.44 -0.87,1.34 -0.43,2.02c0.44,0.67 1.34,0.87 2.02,0.43c0.67,-0.44 0.87,-1.34 0.43,-2.02c-0.44,-0.67 -1.34,-0.86 -2.02,-0.43z" fill="#4A6173" id="svg_1176"/>
    </g>
    <g id="svg_1177">
     <path d="m303.54,227.29c-1.16,0.75 -1.49,2.3 -0.74,3.46c0.74,1.16 2.29,1.49 3.45,0.74c1.16,-0.75 1.49,-2.29 0.75,-3.45c-0.75,-1.16 -2.3,-1.49 -3.46,-0.75z" fill="#4A6173" id="svg_1178"/>
    </g>
    <g id="svg_1179">
     <path d="m298.96,224.94c-0.6,0.4 -0.78,1.21 -0.39,1.82c0.4,0.61 1.21,0.78 1.82,0.39c0.61,-0.4 0.78,-1.21 0.39,-1.82c-0.39,-0.61 -1.21,-0.78 -1.82,-0.39z" fill="#4A6173" id="svg_1180"/>
    </g>
    <g id="svg_1181">
     <path d="m296.07,221.5c-0.52,0.34 -0.67,1.04 -0.33,1.56c0.34,0.52 1.03,0.67 1.55,0.33c0.53,-0.33 0.68,-1.03 0.34,-1.55c-0.34,-0.53 -1.03,-0.67 -1.56,-0.34z" fill="#4A6173" id="svg_1182"/>
    </g>
    <g id="svg_1183">
     <path d="m290.15,209.65c-0.93,0.59 -1.19,1.83 -0.6,2.76c0.6,0.93 1.84,1.19 2.77,0.59c0.92,-0.6 1.19,-1.83 0.59,-2.76c-0.6,-0.93 -1.84,-1.19 -2.76,-0.59z" fill="#4A6173" id="svg_1184"/>
    </g>
    <g id="svg_1185">
     <path d="m305.32,232.22c-1.08,0.7 -1.39,2.14 -0.69,3.21c0.7,1.08 2.13,1.39 3.21,0.69c1.08,-0.69 1.39,-2.13 0.69,-3.21c-0.7,-1.07 -2.13,-1.38 -3.21,-0.69z" fill="#4A6173" id="svg_1186"/>
    </g>
   </g>
  </g>
 </g>
</svg>