<?xml version="1.0"?>
<svg width="500" height="500" xmlns="http://www.w3.org/2000/svg" xmlns:svg="http://www.w3.org/2000/svg" enable-background="new 0 0 500 500" version="1.1" xml:space="preserve">
 <g class="layer">
  <title>Layer 1</title>
  <g id="svg_1" transform="translate(0 14.09) translate(-41.235 0) matrix(2.08108 0 0 2.08108 -491.741 -488.422)">
   <g id="svg_1597" transform="matrix(1 0 0 1 -7 -8)">
    <g id="svg_1598">
     <g id="svg_1599">
      <path d="m308.27,451.05l0.39,-0.6c0.79,-1.2 1.32,-2.26 1.84,-3.29c1.39,-2.75 2.7,-5.35 8.28,-10.34c7.76,-6.93 21.75,-2.82 22.34,-2.64l0.73,0.22l-0.64,0.42c-2.81,1.84 -5.38,3.61 -7.64,5.18c-9.11,6.29 -15.12,10.44 -24.59,11.01l-0.71,0.04zm23.06,-17.49c-4.12,0 -8.76,0.82 -12.08,3.8c-5.48,4.9 -6.76,7.43 -8.11,10.12c-0.44,0.88 -0.9,1.77 -1.5,2.77c8.87,-0.71 14.75,-4.77 23.53,-10.84c2.08,-1.44 4.43,-3.06 6.99,-4.75c-1.48,-0.36 -4.93,-1.1 -8.83,-1.1z" fill="#4A6173" id="svg_1600"/>
     </g>
     <g id="svg_1601">
      <path d="m320.98,457.63l-0.16,-0.63c-1.97,-7.65 0,-9.8 0.09,-9.88c0.14,-0.14 0.36,-0.15 0.5,-0.01c0.14,0.13 0.15,0.36 0.01,0.5c-0.03,0.04 -1.65,1.96 -0.07,8.59c2.82,-2.77 5.77,-3.42 8.64,-4.04c2.61,-0.57 5.32,-1.15 7.98,-3.38c5.3,-4.44 4.68,-14.37 4.58,-15.52c-0.75,-0.87 -7.56,-8.32 -17.52,-7.29c-7.78,0.81 -12.88,5.59 -16.26,8.76c-0.94,0.89 -1.73,1.63 -2.42,2.13c7.07,2.26 11.48,0.87 11.52,0.86c0.19,-0.07 0.39,0.04 0.45,0.23c0.06,0.18 -0.04,0.38 -0.23,0.44c-0.19,0.07 -4.97,1.58 -12.68,-1.1l-0.8,-0.28l0.75,-0.37c0.73,-0.36 1.7,-1.28 2.93,-2.43c3.44,-3.23 8.64,-8.12 16.66,-8.95c10.92,-1.13 18.15,7.54 18.22,7.63l0.07,0.08l0.01,0.11c0.05,0.46 1.06,11.31 -4.83,16.25c-2.79,2.34 -5.58,2.94 -8.28,3.53c-3.04,0.66 -5.92,1.28 -8.71,4.29l-0.45,0.48z" fill="#4A6173" id="svg_1602"/>
     </g>
     <g id="svg_1603">
      <path d="m333.81,459.79l-0.06,-0.39c-0.03,-0.23 -0.83,-5.67 0.4,-8.28c0.09,-0.17 0.3,-0.25 0.48,-0.17c0.18,0.09 0.25,0.3 0.17,0.48c-0.96,2.01 -0.56,6.12 -0.4,7.44c1.45,-0.53 6.59,-2.85 9.19,-9.55c3.06,-7.88 0.03,-16 0,-16.08c-0.07,-0.18 0.03,-0.39 0.21,-0.46c0.18,-0.07 0.39,0.02 0.46,0.21c0.03,0.08 3.15,8.46 0,16.58c-3.17,8.17 -9.78,10.04 -10.06,10.12l-0.39,0.1z" fill="#4A6173" id="svg_1604"/>
     </g>
     <g id="svg_1605">
      <path d="m343.73,432.79c-0.12,0 -0.24,-0.06 -0.31,-0.17c-7.55,-12.7 -23.69,-12.17 -32.45,-8.8c2.52,2.79 6.53,3.63 6.57,3.64c0.2,0.04 0.32,0.23 0.28,0.42c-0.04,0.19 -0.23,0.32 -0.42,0.28c-0.19,-0.04 -4.66,-0.98 -7.3,-4.26l-0.3,-0.37l0.44,-0.18c8.87,-3.63 25.87,-4.4 33.79,8.9c0.1,0.17 0.05,0.39 -0.12,0.49c-0.06,0.03 -0.12,0.05 -0.18,0.05z" fill="#4A6173" id="svg_1606"/>
     </g>
    </g>
    <g id="svg_1607">
     <path d="m345.94,431.56c0,0 -3,-5.23 -5.32,-6.98s-3.37,0.98 -1.87,3.49c-4.75,-1.19 -6.89,2.27 -2.31,4.36c-4.82,2.15 -1.7,7.17 3.13,4.71c-2.63,6.63 2.12,8.13 3.87,2.5c1.56,5.89 4.43,4.57 4.75,0.69s-2.25,-8.5 -2.25,-8.5" fill="#4A6173" id="svg_1608"/>
    </g>
    <g id="svg_1609">
     <path d="m328.06,448.71c-0.08,0 -0.15,-0.05 -0.18,-0.13c-0.04,-0.1 0.01,-0.21 0.11,-0.25c6.71,-2.49 11.79,-9.76 12.14,-10.27c0.09,-0.38 0.71,-3.73 -3.86,-6.56c-11.85,-4.77 -22.24,2.42 -22.35,2.5c-0.08,0.06 -0.2,0.04 -0.27,-0.05c-0.06,-0.09 -0.04,-0.21 0.05,-0.27c0.1,-0.08 10.67,-7.39 22.75,-2.53c5.03,3.12 4.06,7 4.05,7.04l-0.03,0.06c-0.05,0.08 -5.3,7.83 -12.34,10.45c-0.02,0.01 -0.05,0.01 -0.07,0.01z" fill="#4A6173" id="svg_1610"/>
    </g>
    <g id="svg_1611">
     <path d="m319.25,442.52c-0.05,0 -0.11,-0.02 -0.14,-0.06c-0.08,-0.08 -0.07,-0.2 0.01,-0.27c0.07,-0.07 7.18,-6.43 18.74,-6.99c0.01,0 0.01,0 0.01,0c0.11,0 0.19,0.08 0.2,0.18c0,0.11 -0.08,0.2 -0.19,0.21c-11.42,0.55 -18.43,6.82 -18.5,6.88c-0.04,0.04 -0.08,0.05 -0.13,0.05z" fill="#4A6173" id="svg_1612"/>
    </g>
    <g id="svg_1613">
     <path d="m339.06,429.15c-0.05,0 -0.1,-0.02 -0.13,-0.06c-4.24,-4.2 -10.89,-6.22 -19.77,-6.01c-0.78,0.02 -0.84,0.03 -0.93,-0.07c-0.07,-0.07 -0.07,-0.2 0.01,-0.27c0.06,-0.05 0.14,-0.07 0.21,-0.04c0.09,0.01 0.39,0.01 0.7,0c9,-0.23 15.73,1.84 20.05,6.12c0.07,0.07 0.08,0.19 0,0.27c-0.04,0.04 -0.09,0.06 -0.14,0.06z" fill="#4A6173" id="svg_1614"/>
    </g>
    <g id="svg_1615">
     <path d="m337.87,453.71c-0.04,0 -0.09,-0.02 -0.13,-0.05c-0.08,-0.07 -0.08,-0.19 -0.01,-0.27c7.1,-7.78 5.82,-15.52 5.81,-15.6c-0.02,-0.1 0.05,-0.21 0.15,-0.23c0.12,-0.01 0.21,0.06 0.23,0.16c0.01,0.08 1.33,8.01 -5.9,15.93c-0.04,0.04 -0.09,0.06 -0.15,0.06z" fill="#4A6173" id="svg_1616"/>
    </g>
   </g>
   <g id="svg_1617" transform="matrix(1 0 0 1 -7 -8)">
    <g id="svg_1618">
     <g id="svg_1619">
      <g id="svg_1620">
       <path d="m447.81,453.63c-0.24,0 -0.48,-0.08 -0.67,-0.26c-26.85,-24.47 -70.58,-40.99 -103.15,-19.41c-0.46,0.3 -1.08,0.18 -1.39,-0.28c-0.3,-0.46 -0.17,-1.08 0.29,-1.39c33.46,-22.17 78.2,-5.38 105.6,19.6c0.4,0.38 0.43,1.01 0.06,1.42c-0.2,0.21 -0.47,0.32 -0.74,0.32z" fill="#4A6173" id="svg_1621"/>
      </g>
      <g id="svg_1622">
       <path d="m440.54,447.77c-0.32,0 -0.63,-0.14 -0.82,-0.42c-27.45,-38.88 -28.57,-81.33 -24.68,-110.1c4.21,-31.14 15.06,-53.42 15.17,-53.64c0.25,-0.5 0.85,-0.7 1.34,-0.46c0.5,0.25 0.7,0.85 0.46,1.34c-0.11,0.22 -10.83,22.26 -15,53.09c-3.83,28.4 -2.72,70.29 24.34,108.62c0.32,0.45 0.21,1.07 -0.24,1.39c-0.17,0.12 -0.37,0.18 -0.57,0.18z" fill="#4A6173" id="svg_1623"/>
      </g>
      <g id="svg_1624">
       <path d="m431.65,433.47c-0.06,0 -0.12,-0.01 -0.19,-0.02c-0.54,-0.1 -0.9,-0.62 -0.8,-1.16c2.45,-13.13 2.8,-25.49 1.03,-36.72c-2.56,-16.32 -9.93,-31.13 -21.29,-42.84c-8.21,-8.46 -18.35,-15.42 -30.13,-20.69c-0.51,-0.22 -0.73,-0.81 -0.51,-1.32c0.23,-0.5 0.82,-0.73 1.32,-0.5c12.02,5.37 22.36,12.47 30.75,21.11c11.66,12.01 19.21,27.2 21.84,43.93c1.8,11.46 1.45,24.04 -1.04,37.39c-0.09,0.48 -0.51,0.82 -0.98,0.82z" fill="#4A6173" id="svg_1625"/>
      </g>
     </g>
     <g id="svg_1626">
      <path d="m443.87,449.77l-0.72,-0.55c-0.91,-0.71 -5.4,-4.58 -3.94,-11.47l0.07,-0.33c1.3,-6.14 3.72,-17.56 12.95,-22.39c0.17,-0.09 0.39,-0.02 0.48,0.15c0.09,0.18 0.02,0.39 -0.15,0.48c-8.93,4.67 -11.31,15.89 -12.58,21.91l-0.07,0.33c-1.14,5.36 1.54,8.76 2.98,10.15c-1.14,-10.75 6.79,-29.06 13.48,-34.5c-6.94,0.16 -12.12,2.35 -15.41,6.49c-6.54,8.23 -3.45,21.56 -3.42,21.69c0.04,0.2 -0.08,0.39 -0.27,0.43c-0.19,0.05 -0.38,-0.07 -0.43,-0.26c-0.03,-0.14 -3.19,-13.8 3.56,-22.3c3.57,-4.5 9.24,-6.77 16.84,-6.77c0.08,0 0.16,0 0.24,0l1.2,0l-1.01,0.65c-6.8,4.37 -15.69,24.85 -13.95,35.4l0.15,0.89z" fill="#4A6173" id="svg_1627"/>
     </g>
     <g id="svg_1628">
      <path d="m407.08,427.34l-0.91,-0.01c-1.15,-0.01 -7.07,-0.38 -10.07,-6.76l-0.14,-0.3c-2.67,-5.67 -7.65,-16.24 -3.21,-25.66c0.08,-0.18 0.29,-0.25 0.47,-0.17c0.18,0.08 0.26,0.29 0.17,0.47c-4.3,9.12 0.59,19.49 3.22,25.06l0.14,0.3c2.33,4.96 6.52,6.05 8.51,6.29c-7.41,-7.88 -12.15,-27.26 -10.11,-35.64c-5.43,4.33 -8.24,9.2 -8.36,14.49c-0.23,10.51 10.28,19.27 10.39,19.35c0.15,0.13 0.17,0.35 0.05,0.5c-0.13,0.16 -0.35,0.18 -0.5,0.05c-0.11,-0.09 -10.89,-9.06 -10.65,-19.91c0.13,-5.8 3.33,-11.09 9.52,-15.72l0.96,-0.72l-0.41,1.12c-2.78,7.6 2.51,29.29 10.27,36.64l0.66,0.62z" fill="#4A6173" id="svg_1629"/>
     </g>
     <g id="svg_1630">
      <path d="m360.04,456.34l-0.64,-1.01c-4.17,-6.51 -5.32,-12.58 -3.41,-18.06c3.58,-10.25 16.82,-14.88 16.95,-14.92c0.19,-0.07 0.39,0.03 0.45,0.22c0.07,0.18 -0.03,0.39 -0.22,0.45c-0.13,0.04 -13.05,4.57 -16.51,14.49c-1.74,5 -0.81,10.54 2.76,16.5c1.02,-8.57 12.25,-25.06 21.95,-29.84c-1.94,-0.48 -6.25,-0.92 -10.17,2.91l-0.24,0.23c-4.42,4.3 -12.62,12.3 -11.79,22.34c0.01,0.2 -0.13,0.37 -0.33,0.38c-0.19,0.03 -0.37,-0.13 -0.38,-0.32c-0.86,-10.38 7.5,-18.53 12,-22.91l0.24,-0.23c5.04,-4.92 10.71,-3.2 11.8,-2.8l0.85,0.31l-0.84,0.35c-9.84,4.17 -22.4,22.63 -22.46,30.71l-0.01,1.2z" fill="#4A6173" id="svg_1631"/>
     </g>
     <g id="svg_1632">
      <path d="m418.15,397.59l-0.56,-0.71c-6.69,-8.33 -27.88,-15.39 -35.67,-13.24l-1.16,0.32l0.8,-0.9c5.12,-5.78 10.65,-8.55 16.44,-8.2c10.84,0.65 18.9,12.13 18.98,12.25c0.11,0.16 0.07,0.38 -0.09,0.49c-0.16,0.11 -0.38,0.07 -0.5,-0.09c-0.07,-0.11 -7.95,-11.31 -18.43,-11.94c-5.28,-0.32 -10.37,2.09 -15.13,7.15c8.53,-1.35 27.45,4.97 34.69,12.99c-0.07,-2 -0.82,-6.27 -5.56,-9l-0.3,-0.16c-5.33,-3.08 -15.27,-8.8 -24.7,-5.26c-0.18,0.07 -0.39,-0.03 -0.46,-0.21c-0.07,-0.18 0.02,-0.39 0.21,-0.46c9.75,-3.65 19.87,2.18 25.31,5.31l0.29,0.17c6.11,3.51 5.99,9.43 5.91,10.59l-0.07,0.9z" fill="#4A6173" id="svg_1633"/>
     </g>
     <g id="svg_1634">
      <path d="m433.14,395.69l-0.42,-0.79c-0.54,-1.02 -3.04,-6.4 1.13,-12.08l0.21,-0.27c3.71,-5.06 10.63,-14.47 21.02,-15.06c0.19,0 0.36,0.14 0.38,0.34c0.01,0.19 -0.14,0.36 -0.34,0.37c-10.06,0.57 -16.85,9.81 -20.49,14.77l-0.2,0.28c-3.25,4.41 -2.21,8.61 -1.47,10.47c3.39,-10.26 18.17,-23.68 26.51,-25.87c-6.39,-2.71 -12.02,-2.86 -16.73,-0.44c-9.34,4.8 -12.03,18.22 -12.05,18.35c-0.04,0.19 -0.22,0.32 -0.42,0.28c-0.19,-0.03 -0.32,-0.22 -0.28,-0.41c0.02,-0.14 2.78,-13.9 12.43,-18.86c5.16,-2.65 11.33,-2.35 18.35,0.88l1.09,0.5l-1.18,0.17c-8,1.18 -24.54,16.17 -27.31,26.5l-0.23,0.87z" fill="#4A6173" id="svg_1635"/>
     </g>
     <g id="svg_1636">
      <path d="m382.81,452.1l0.52,-1.07c12.16,-25.16 39.73,-15.74 40,-15.64c0.19,0.06 0.29,0.27 0.22,0.45c-0.06,0.19 -0.26,0.28 -0.45,0.22c-0.27,-0.1 -26.47,-9.03 -38.6,14.23c12.1,-6.72 30.71,-8.97 51.5,-6.22c-9.57,-5.64 -25.06,-8.72 -41.54,-1.21c-0.18,0.08 -0.39,0 -0.47,-0.18c-0.08,-0.18 0,-0.39 0.18,-0.47c17.58,-8.01 34.06,-4.14 43.63,2.14l1.33,0.88l-1.58,-0.23c-21.9,-3.16 -41.48,-0.79 -53.72,6.49l-1.02,0.61z" fill="#4A6173" id="svg_1637"/>
     </g>
     <g id="svg_1638">
      <path d="m426.48,374.77l-1.3,-0.92c-18.09,-12.74 -36.61,-19.51 -50.83,-18.57l-1.18,0.07l0.94,-0.71c22.25,-16.92 42.55,3.98 42.75,4.19c0.14,0.15 0.13,0.37 -0.01,0.51c-0.14,0.13 -0.37,0.13 -0.5,-0.02c-0.2,-0.2 -19.5,-20.05 -40.86,-4.82c13.83,-0.52 31.44,5.94 48.72,17.81c-5.97,-9.37 -18.38,-19.13 -36.47,-19.91c-0.2,-0.01 -0.35,-0.17 -0.34,-0.37c0.01,-0.19 0.14,-0.34 0.37,-0.34c19.3,0.84 32.24,11.75 37.92,21.69l0.79,1.39z" fill="#4A6173" id="svg_1639"/>
     </g>
     <g id="svg_1640">
      <path d="m415.26,344.37l0.15,-1.59c1.06,-11.39 8.32,-26.69 25.55,-35.43c0.17,-0.09 0.39,-0.02 0.48,0.16c0.09,0.17 0.02,0.39 -0.16,0.47c-16.15,8.2 -23.41,22.22 -24.97,33.22c10.82,-17.96 24.19,-31.1 36.99,-36.37c-25.76,-5.03 -35.11,21.02 -35.2,21.29c-0.07,0.18 -0.27,0.28 -0.45,0.22c-0.19,-0.07 -0.29,-0.27 -0.22,-0.45c0.09,-0.28 9.92,-27.7 37.18,-21.51l1.16,0.26l-1.11,0.42c-13.33,5.03 -27.4,18.85 -38.59,37.94l-0.81,1.37z" fill="#4A6173" id="svg_1641"/>
     </g>
    </g>
    <g id="svg_1642">
     <g id="svg_1643">
      <g id="svg_1644">
       <path d="m387.31,334.58l-0.69,-0.31c-3.06,-1.39 -5.92,-2.61 -8.45,-3.68c-10.19,-4.34 -16.92,-7.2 -22.47,-14.9l-0.41,-0.57l0.71,0.01c1.43,0.03 2.62,-0.09 3.77,-0.2c3.06,-0.3 5.96,-0.59 13.16,1.46c10.01,2.84 14.02,16.86 14.18,17.46l0.2,0.73zm-30.61,-18.74c5.35,7.12 11.92,9.91 21.74,14.09c2.34,0.99 4.96,2.1 7.75,3.36c-0.98,-2.96 -5.12,-13.85 -13.46,-16.22c-7.07,-2.01 -9.9,-1.73 -12.89,-1.44c-0.98,0.1 -1.98,0.2 -3.14,0.21z" fill="#4A6173" id="svg_1645"/>
      </g>
      <g id="svg_1646">
       <path d="m376.2,340.17c-1.12,0 -2.24,-0.15 -3.32,-0.5c-3.48,-1.11 -5.48,-3.14 -7.42,-5.11c-2.19,-2.22 -4.25,-4.31 -8.29,-5.06l-0.64,-0.12l0.45,-0.48c5.4,-5.75 8.27,-5.23 8.39,-5.21c0.19,0.04 0.32,0.23 0.28,0.42c-0.04,0.19 -0.22,0.32 -0.42,0.28c-0.05,-0.01 -2.54,-0.35 -7.3,4.54c3.85,0.89 5.98,3.05 8.03,5.13c1.88,1.91 3.83,3.88 7.13,4.93c6.58,2.11 14.64,-3.73 15.57,-4.42c0.33,-1.11 2.98,-10.86 -3.22,-18.71c-4.84,-6.14 -11.62,-7.89 -16.1,-9.05c-1.25,-0.32 -2.31,-0.59 -3.09,-0.91c1.87,7.19 5.4,10.17 5.44,10.2c0.15,0.12 0.17,0.35 0.04,0.5c-0.12,0.15 -0.34,0.17 -0.5,0.05c-0.16,-0.14 -3.99,-3.36 -5.85,-11.31l-0.19,-0.83l0.72,0.44c0.69,0.42 1.98,0.75 3.61,1.17c4.57,1.19 11.49,2.97 16.48,9.3c6.79,8.6 3.34,19.37 3.3,19.47l-0.03,0.11l-0.09,0.06c-0.3,0.24 -6.6,5.11 -12.98,5.11z" fill="#4A6173" id="svg_1647"/>
      </g>
      <g id="svg_1648">
       <path d="m372.29,345.05c-8.23,0 -18.3,-4.31 -18.79,-4.52l-0.72,-0.32l0.71,-0.33c0.42,-0.2 10.17,-4.77 12.98,-5.12c0.21,-0.02 0.37,0.12 0.4,0.32c0.02,0.19 -0.12,0.37 -0.31,0.39c-2.27,0.28 -9.66,3.62 -12.03,4.71c2.95,1.18 13.94,5.27 21.12,3.86c8.28,-1.63 13.53,-8.53 13.58,-8.6c0.12,-0.16 0.34,-0.19 0.5,-0.07c0.16,0.12 0.19,0.34 0.07,0.5c-0.05,0.07 -5.46,7.19 -14.01,8.87c-1.1,0.21 -2.28,0.31 -3.5,0.31z" fill="#4A6173" id="svg_1649"/>
      </g>
      <g id="svg_1650">
       <path d="m389.99,335.47c-0.06,0 -0.11,-0.01 -0.17,-0.03c-0.17,-0.09 -0.24,-0.31 -0.15,-0.48c6.68,-13.18 -2.4,-26.53 -9.93,-32.12c-1.01,3.62 0.43,7.46 0.44,7.5c0.07,0.18 -0.02,0.39 -0.2,0.45c-0.19,0.08 -0.39,-0.02 -0.46,-0.2c-0.07,-0.18 -1.67,-4.46 -0.31,-8.45l0.15,-0.45l0.39,0.28c7.8,5.55 17.56,19.5 10.55,33.31c-0.06,0.12 -0.18,0.19 -0.31,0.19z" fill="#4A6173" id="svg_1651"/>
      </g>
     </g>
     <g id="svg_1652">
      <path d="m391.91,336.51c0,0 2.81,-5.32 3.05,-8.22c0.24,-2.89 -2.63,-2.32 -3.95,0.29c-1.53,-4.65 -5.61,-4.61 -4.92,0.38c-4.39,-2.92 -6.97,2.4 -2.3,5.17c-7.01,1.31 -5.74,6.13 -0.05,4.6c-4.14,4.47 -1.48,6.19 1.96,4.38c3.44,-1.81 5.98,-6.45 5.98,-6.45" fill="#4A6173" id="svg_1653"/>
     </g>
     <g id="svg_1654">
      <path d="m383.36,335.48l-0.03,0c-0.09,0 -9.45,-0.29 -15.43,-4.84c-0.09,-0.06 -0.1,-0.19 -0.04,-0.27c0.07,-0.09 0.19,-0.1 0.27,-0.04c5.7,4.34 14.56,4.74 15.18,4.76c0.36,-0.13 3.53,-1.4 3.48,-6.77c-2.32,-12.56 -13.95,-17.5 -14.07,-17.54c-0.1,-0.05 -0.15,-0.16 -0.1,-0.26c0.04,-0.1 0.15,-0.14 0.25,-0.1c0.12,0.05 11.95,5.05 14.31,17.86c0.05,5.92 -3.75,7.18 -3.79,7.19l-0.03,0.01z" fill="#4A6173" id="svg_1655"/>
     </g>
     <g id="svg_1656">
      <path d="m384.36,331.95c-0.07,0 -0.13,-0.03 -0.16,-0.08c-6.58,-9.36 -15.63,-11.93 -15.72,-11.95c-0.1,-0.03 -0.17,-0.14 -0.14,-0.24c0.03,-0.1 0.13,-0.17 0.24,-0.14c0.09,0.03 9.28,2.64 15.93,12.11c0.06,0.08 0.04,0.21 -0.04,0.27c-0.04,0.02 -0.08,0.03 -0.11,0.03z" fill="#4A6173" id="svg_1657"/>
     </g>
     <g id="svg_1658">
      <path d="m390.43,329.51c-0.02,0 -0.03,0 -0.04,0c-0.11,-0.03 -0.17,-0.13 -0.15,-0.24c1.28,-5.83 -0.57,-12.52 -5.49,-19.91c-0.44,-0.65 -0.48,-0.7 -0.44,-0.82c0.02,-0.1 0.13,-0.17 0.23,-0.14c0.08,0.02 0.13,0.08 0.15,0.16c0.03,0.07 0.2,0.32 0.38,0.59c4.99,7.47 6.86,14.27 5.55,20.21c-0.02,0.09 -0.1,0.15 -0.19,0.15z" fill="#4A6173" id="svg_1659"/>
     </g>
     <g id="svg_1660">
      <path d="m373.41,342.04c-1.36,0 -2.83,-0.12 -4.4,-0.4c-0.11,-0.02 -0.18,-0.12 -0.16,-0.22c0.02,-0.11 0.11,-0.18 0.22,-0.16c10.37,1.84 16.23,-3.38 16.29,-3.44c0.08,-0.07 0.2,-0.06 0.27,0.02c0.07,0.08 0.07,0.2 -0.01,0.27c-0.05,0.05 -4.4,3.93 -12.21,3.93z" fill="#4A6173" id="svg_1661"/>
     </g>
    </g>
    <g id="svg_1662">
     <g id="svg_1663">
      <g id="svg_1664">
       <path d="m428.66,289.15l0.05,-0.76c0.22,-3.35 0.35,-6.46 0.46,-9.21c0.45,-11.06 0.74,-18.37 5.98,-26.27l0.39,-0.59l0.24,0.66c0.49,1.35 1.02,2.42 1.53,3.46c1.36,2.76 2.65,5.36 3.28,12.82c0.88,10.37 -10.82,19.08 -11.31,19.44l-0.62,0.45zm6.71,-35.26c-4.77,7.52 -5.06,14.66 -5.49,25.32c-0.1,2.53 -0.22,5.38 -0.41,8.44c2.43,-1.97 11.15,-9.69 10.42,-18.33c-0.63,-7.32 -1.88,-9.87 -3.22,-12.57c-0.43,-0.88 -0.88,-1.78 -1.3,-2.86z" fill="#4A6173" id="svg_1665"/>
      </g>
      <g id="svg_1666">
       <path d="m428.97,291.13l-0.09,-0.06c-0.4,-0.24 -9.68,-5.95 -10.08,-13.63c-0.19,-3.63 1,-6.23 2.15,-8.74c1.3,-2.83 2.53,-5.5 1.81,-9.54l-0.11,-0.64l0.6,0.25c7.29,3.02 7.82,5.89 7.84,6.01c0.03,0.19 -0.1,0.38 -0.29,0.41c-0.2,0.02 -0.38,-0.11 -0.41,-0.3c-0.01,-0.04 -0.57,-2.49 -6.83,-5.22c0.53,3.92 -0.73,6.67 -1.96,9.33c-1.12,2.43 -2.27,4.95 -2.09,8.41c0.36,6.9 8.67,12.38 9.64,12.99c1.15,-0.08 11.21,-1.04 16.37,-9.62c4.03,-6.7 3.27,-13.66 2.77,-18.26c-0.15,-1.28 -0.26,-2.37 -0.25,-3.21c-6.06,4.29 -7.6,8.64 -7.61,8.69c-0.07,0.19 -0.27,0.28 -0.45,0.22c-0.19,-0.06 -0.29,-0.26 -0.23,-0.45c0.07,-0.2 1.74,-4.92 8.52,-9.48l0.7,-0.47l-0.16,0.83c-0.14,0.8 0,2.12 0.18,3.79c0.52,4.7 1.29,11.8 -2.86,18.71c-5.65,9.39 -16.94,9.97 -17.05,9.97l-0.11,0.01z" fill="#4A6173" id="svg_1667"/>
      </g>
      <g id="svg_1668">
       <path d="m428.44,291.95c-0.03,0 -0.06,-0.01 -0.1,-0.02c-0.08,-0.02 -8.66,-2.56 -13.25,-9.97c-4.59,-7.38 -3.97,-21.72 -3.94,-22.33l0.03,-0.79l0.57,0.55c0.33,0.32 8.05,7.82 9.37,10.33c0.09,0.18 0.02,0.39 -0.15,0.48c-0.17,0.09 -0.39,0.03 -0.48,-0.15c-1.06,-2.02 -6.8,-7.75 -8.66,-9.58c-0.06,3.17 0,14.9 3.86,21.12c4.45,7.16 12.77,9.64 12.85,9.66c0.19,0.06 0.3,0.25 0.24,0.44c-0.04,0.16 -0.18,0.26 -0.34,0.26z" fill="#4A6173" id="svg_1669"/>
      </g>
      <g id="svg_1670">
       <path d="m431.56,292.33c-0.82,0 -1.65,-0.04 -2.49,-0.14c-0.2,-0.02 -0.34,-0.19 -0.32,-0.39c0.02,-0.19 0.2,-0.34 0.39,-0.31c14.68,1.59 23.97,-11.62 26.54,-20.65c-3.74,0.34 -6.83,3.04 -6.86,3.07c-0.14,0.12 -0.37,0.11 -0.5,-0.03c-0.13,-0.15 -0.12,-0.38 0.03,-0.51c0.14,-0.12 3.58,-3.13 7.79,-3.27l0.48,-0.02l-0.12,0.47c-2.3,8.74 -11.01,21.78 -24.94,21.78z" fill="#4A6173" id="svg_1671"/>
      </g>
     </g>
     <g id="svg_1672">
      <path d="m428.48,294.13c0,0 5.98,0.75 8.77,-0.05c2.78,-0.79 1.24,-3.28 -1.66,-3.59c3.8,-3.08 2.32,-6.88 -2.1,-4.48c1.18,-5.13 -4.71,-5.66 -5.65,-0.32c-3.71,-6.09 -7.77,-3.19 -4.32,1.59c-5.64,-2.29 -6.31,0.8 -3.41,3.38c2.91,2.58 8.15,3.31 8.15,3.31" fill="#4A6173" id="svg_1673"/>
     </g>
     <g id="svg_1674">
      <path d="m430.85,287.55c-2.99,0 -4.39,-1.73 -4.41,-1.75l-0.03,-0.06c-0.03,-0.08 -3.07,-8.94 -0.93,-16.14c0.04,-0.1 0.14,-0.17 0.25,-0.13c0.1,0.03 0.16,0.14 0.13,0.24c-2.04,6.86 0.71,15.29 0.91,15.87c0.25,0.3 2.56,2.81 7.57,0.87c10.94,-6.61 11.43,-19.24 11.43,-19.36c0.01,-0.11 0.1,-0.2 0.2,-0.19c0.11,0 0.19,0.09 0.19,0.2c0,0.13 -0.5,12.96 -11.65,19.7c-1.41,0.55 -2.63,0.75 -3.66,0.75z" fill="#4A6173" id="svg_1675"/>
     </g>
     <g id="svg_1676">
      <path d="m430.26,285.58c-0.04,0 -0.08,-0.01 -0.11,-0.03c-0.09,-0.06 -0.11,-0.19 -0.05,-0.27c6.42,-9.46 5.63,-18.84 5.62,-18.93c-0.01,-0.11 0.07,-0.2 0.17,-0.21c0.13,-0.01 0.21,0.07 0.22,0.17c0.01,0.1 0.81,9.61 -5.69,19.19c-0.04,0.05 -0.1,0.08 -0.16,0.08z" fill="#4A6173" id="svg_1677"/>
     </g>
     <g id="svg_1678">
      <path d="m434.69,290.4c-0.1,0 -0.18,-0.07 -0.19,-0.17c-0.02,-0.1 0.06,-0.2 0.16,-0.22c5.91,-0.86 11.52,-4.96 16.68,-12.18c0.46,-0.63 0.5,-0.69 0.62,-0.7c0.11,-0.01 0.2,0.07 0.21,0.17c0.01,0.08 -0.03,0.15 -0.09,0.19c-0.06,0.07 -0.24,0.31 -0.42,0.57c-5.23,7.31 -10.93,11.46 -16.94,12.34c-0.01,0 -0.02,0 -0.03,0z" fill="#4A6173" id="svg_1679"/>
     </g>
     <g id="svg_1680">
      <path d="m424.85,288.83c-0.03,0 -0.06,0 -0.09,-0.02c-0.07,-0.03 -7.2,-3.75 -9.18,-14.29c-0.02,-0.1 0.05,-0.2 0.16,-0.22c0.11,-0.02 0.21,0.05 0.23,0.15c1.94,10.35 8.9,13.98 8.97,14.02c0.09,0.05 0.13,0.16 0.08,0.26c-0.03,0.07 -0.1,0.1 -0.17,0.1z" fill="#4A6173" id="svg_1681"/>
     </g>
    </g>
   </g>
  </g>
 </g>
</svg>