<?xml version="1.0"?>
<svg width="500" height="500" xmlns="http://www.w3.org/2000/svg" xmlns:svg="http://www.w3.org/2000/svg" enable-background="new 0 0 500 500" version="1.1" xml:space="preserve">
 <g class="layer">
  <title>Layer 1</title>
  <g id="svg_2" transform="translate(0 -13.34) translate(34.26 0) matrix(2.37516 0 0 2.37516 -47.2785 -67.2419)">
   <g id="svg_3">
    <g id="svg_4">
     <g id="svg_5">
      <g id="svg_6">
       <path d="m102.55,234.28c-0.44,0 -0.84,-0.29 -0.96,-0.73c-0.06,-0.22 -6.1,-22.02 -2.36,-47.86c3.45,-23.91 16.19,-56.28 57.24,-74.72c0.5,-0.23 1.1,0 1.33,0.5c0.22,0.51 0,1.1 -0.51,1.32c-40.19,18.06 -52.68,49.73 -56.07,73.11c-3.7,25.44 2.23,46.89 2.29,47.11c0.15,0.53 -0.16,1.08 -0.69,1.23c-0.09,0.03 -0.18,0.04 -0.27,0.04z" fill="#4A6173" id="svg_7"/>
      </g>
      <g id="svg_8">
       <path d="m108.12,159.45c-0.05,0 -0.1,-0.01 -0.15,-0.01c-0.55,-0.09 -0.92,-0.6 -0.84,-1.14c0.02,-0.16 2.34,-16.21 -1.91,-35.84c-3.91,-18.05 -14.36,-42.92 -41.91,-58.91c-0.48,-0.28 -0.64,-0.89 -0.36,-1.37c0.27,-0.48 0.89,-0.64 1.36,-0.36c28.21,16.37 38.89,41.82 42.88,60.28c4.31,19.98 1.94,36.33 1.91,36.49c-0.07,0.5 -0.5,0.86 -0.98,0.86z" fill="#4A6173" id="svg_9"/>
      </g>
     </g>
     <g id="svg_10">
      <g id="svg_11">
       <g id="svg_12">
        <g id="svg_13">
         <path d="m100.98,226.64l-0.5,-0.19c-0.2,-0.07 -4.94,-1.88 -11.59,-10.03c-8.34,-10.22 -17.76,-16.96 -27.98,-20.04l-1.77,-0.54l1.83,-0.2c13,-1.4 23.13,1.1 30.12,7.45c9.94,9.03 9.9,22.88 9.9,23.01l-0.01,0.54zm-38.12,-30.42c9.7,3.34 18.65,9.97 26.61,19.73c5.26,6.44 9.35,8.86 10.75,9.56c-0.11,-2.7 -1.1,-14.12 -9.64,-21.87c-6.5,-5.9 -15.82,-8.39 -27.72,-7.42z" fill="#4A6173" id="svg_14"/>
        </g>
        <g id="svg_15">
         <path d="m100.61,226.35c-0.11,0 -0.2,-0.07 -0.24,-0.17c-7.03,-22.27 -30.31,-28.73 -30.55,-28.8c-0.13,-0.03 -0.21,-0.17 -0.17,-0.3c0.03,-0.14 0.17,-0.21 0.3,-0.18c0.24,0.06 23.79,6.59 30.9,29.13c0.04,0.13 -0.03,0.27 -0.17,0.31c-0.02,0.01 -0.04,0.01 -0.07,0.01z" fill="#4A6173" id="svg_16"/>
        </g>
       </g>
       <g id="svg_17">
        <path d="m100.64,225.61l-0.61,-0.56c-0.03,-0.03 -2.77,-2.58 -8.4,-10.07c-5.56,-7.39 -9.65,-8.84 -9.7,-8.85c-0.13,-0.05 -0.2,-0.19 -0.15,-0.32c0.04,-0.13 0.18,-0.2 0.31,-0.16c0.17,0.06 4.27,1.49 9.94,9.03c4.04,5.37 6.58,8.19 7.69,9.35c-0.84,-3.02 -3.8,-12.79 -8.19,-16.77c-0.1,-0.09 -0.11,-0.25 -0.01,-0.35c0.09,-0.1 0.25,-0.11 0.35,-0.02c5.31,4.81 8.44,17.38 8.57,17.91l0.2,0.81z" fill="#4A6173" id="svg_18"/>
       </g>
      </g>
      <g id="svg_19">
       <g id="svg_20">
        <g id="svg_21">
         <path d="m100.95,228.27l-0.06,-0.68c-0.01,-0.13 -1.11,-13.48 6.82,-21.76c4.52,-4.72 11.06,-6.91 19.45,-6.52l2.05,0.09l-1.95,0.64c-7.2,2.34 -13.52,8.34 -16.1,15.27c-2.67,7.19 -9.38,12.33 -9.67,12.55l-0.54,0.41zm24.23,-28.26c-7.23,0.03 -12.91,2.15 -16.93,6.34c-6.64,6.94 -6.75,17.6 -6.65,20.46c1.68,-1.41 6.71,-5.97 8.86,-11.76c2.43,-6.54 8.09,-12.26 14.72,-15.04z" fill="#4A6173" id="svg_22"/>
        </g>
        <g id="svg_23">
         <path d="m101.27,227.81c-0.01,0 -0.02,0 -0.03,0c-0.14,-0.02 -0.24,-0.14 -0.22,-0.28c0.03,-0.24 3.07,-24.27 24.62,-28.13c0.14,-0.02 0.27,0.06 0.29,0.2c0.03,0.14 -0.06,0.27 -0.2,0.29c-21.19,3.8 -24.19,27.46 -24.22,27.7c-0.01,0.13 -0.12,0.22 -0.24,0.22z" fill="#4A6173" id="svg_24"/>
        </g>
       </g>
       <g id="svg_25">
        <path d="m100.86,227.31l0.09,-0.7c0.08,-0.53 1.79,-13.06 5.49,-17.2c0.09,-0.1 0.25,-0.11 0.35,-0.02c0.1,0.09 0.11,0.25 0.02,0.36c-3.08,3.44 -4.81,13.33 -5.25,16.16c0.91,-0.99 2.75,-3.22 3.83,-6.04c1.5,-3.93 4.81,-8.4 4.85,-8.44c0.08,-0.11 0.24,-0.13 0.35,-0.05c0.11,0.08 0.13,0.24 0.05,0.35c-0.04,0.04 -3.31,4.45 -4.78,8.31c-1.5,3.95 -4.36,6.67 -4.48,6.78l-0.52,0.49z" fill="#4A6173" id="svg_26"/>
       </g>
      </g>
     </g>
     <g id="svg_27">
      <g id="svg_28">
       <g id="svg_29">
        <g id="svg_30">
         <path d="m105.75,164.14l-0.42,-0.32c-0.17,-0.13 -4.17,-3.23 -8.16,-12.98c-5,-12.2 -12.04,-21.4 -20.92,-27.33l-1.54,-1.03l1.82,0.35c12.84,2.44 21.8,7.79 26.63,15.91c6.88,11.54 2.79,24.77 2.75,24.9l-0.16,0.5zm-27.59,-40.21c8.31,6.02 14.93,14.97 19.7,26.63c3.16,7.72 6.36,11.22 7.5,12.29c0.67,-2.61 3.06,-13.82 -2.85,-23.74c-4.49,-7.54 -12.68,-12.64 -24.35,-15.18z" fill="#4A6173" id="svg_31"/>
        </g>
        <g id="svg_32">
         <path d="m105.56,163.77c-0.14,0 -0.25,-0.11 -0.25,-0.24c-0.23,-23.36 -20.62,-36.33 -20.82,-36.46c-0.12,-0.07 -0.16,-0.22 -0.08,-0.34c0.07,-0.12 0.22,-0.15 0.34,-0.08c0.21,0.13 20.83,13.24 21.06,36.87c0,0.14 -0.11,0.25 -0.25,0.25c0,0 0,0 0,0z" fill="#4A6173" id="svg_33"/>
        </g>
       </g>
       <g id="svg_34">
        <path d="m105.72,163.06l-0.41,-0.71c-0.02,-0.04 -1.9,-3.27 -5.1,-12.08c-3.16,-8.7 -6.66,-11.27 -6.69,-11.3c-0.11,-0.08 -0.14,-0.23 -0.06,-0.35c0.08,-0.11 0.24,-0.14 0.35,-0.06c0.15,0.11 3.64,2.67 6.87,11.53c2.29,6.33 3.9,9.76 4.63,11.19c0.08,-3.13 0.1,-13.34 -2.94,-18.42c-0.07,-0.12 -0.03,-0.27 0.08,-0.34c0.12,-0.08 0.28,-0.04 0.35,0.08c3.67,6.15 3,19.09 2.97,19.63l-0.05,0.83z" fill="#4A6173" id="svg_35"/>
       </g>
      </g>
      <g id="svg_36">
       <g id="svg_37">
        <g id="svg_38">
         <path d="m105.25,165.69l0.14,-0.66c0.03,-0.13 2.87,-13.22 12.87,-18.82c5.71,-3.2 12.61,-3.39 20.51,-0.57l1.93,0.69l-2.05,0.04c-7.57,0.14 -15.36,4.03 -19.85,9.91c-4.66,6.1 -12.58,9.06 -12.91,9.18l-0.64,0.23zm23.09,-21.28c-3.55,0 -6.8,0.82 -9.71,2.45c-8.39,4.7 -11.6,14.87 -12.33,17.63c2.02,-0.86 8.15,-3.75 11.9,-8.66c4.24,-5.55 11.32,-9.37 18.47,-10.09c-2.93,-0.88 -5.71,-1.33 -8.33,-1.33z" fill="#4A6173" id="svg_39"/>
        </g>
        <g id="svg_40">
         <path d="m105.76,165.36c-0.04,0 -0.07,-0.01 -0.1,-0.02c-0.13,-0.06 -0.19,-0.2 -0.13,-0.33c0.1,-0.22 10.03,-22.31 31.76,-19.72c0.14,0.01 0.24,0.14 0.22,0.27c-0.02,0.14 -0.14,0.24 -0.28,0.22c-21.38,-2.54 -31.15,19.21 -31.24,19.43c-0.04,0.09 -0.14,0.15 -0.23,0.15z" fill="#4A6173" id="svg_41"/>
        </g>
       </g>
       <g id="svg_42">
        <path d="m105.44,164.75l0.3,-0.64c0.22,-0.49 5.52,-11.97 10.26,-14.85c0.12,-0.07 0.27,-0.03 0.34,0.09c0.07,0.11 0.04,0.27 -0.08,0.34c-3.95,2.4 -8.49,11.35 -9.73,13.93c1.15,-0.68 3.56,-2.27 5.42,-4.66c2.57,-3.32 7.05,-6.63 7.1,-6.66c0.11,-0.08 0.26,-0.06 0.35,0.05c0.08,0.12 0.05,0.27 -0.06,0.35c-0.04,0.04 -4.46,3.3 -7,6.56c-2.59,3.34 -6.11,5.11 -6.26,5.18l-0.64,0.31z" fill="#4A6173" id="svg_43"/>
       </g>
      </g>
     </g>
     <g id="svg_44">
      <g id="svg_45">
       <g id="svg_46">
        <g id="svg_47">
         <path d="m106.16,122.63l-0.53,-0.06c-0.21,-0.02 -5.24,-0.66 -13.64,-7.01c-10.52,-7.95 -21.26,-12.28 -31.93,-12.85l-1.84,-0.1l1.73,-0.63c12.29,-4.44 22.73,-4.4 31.02,0.11c11.81,6.43 15.04,19.89 15.07,20.02l0.12,0.52zm-44.24,-20.54c10.22,0.95 20.48,5.28 30.53,12.88c6.63,5.01 11.18,6.4 12.7,6.75c-0.74,-2.6 -4.41,-13.46 -14.54,-18.97c-7.71,-4.2 -17.36,-4.42 -28.69,-0.66z" fill="#4A6173" id="svg_48"/>
        </g>
        <g id="svg_49">
         <path d="m105.67,122.45c-0.08,0 -0.17,-0.05 -0.21,-0.12c-12.1,-19.98 -36.25,-20.75 -36.49,-20.75c-0.14,-0.01 -0.25,-0.12 -0.25,-0.26c0,-0.14 0.12,-0.25 0.26,-0.24c0.24,0 24.66,0.77 36.9,20.99c0.08,0.12 0.04,0.27 -0.08,0.34c-0.04,0.03 -0.08,0.04 -0.13,0.04z" fill="#4A6173" id="svg_50"/>
        </g>
       </g>
       <g id="svg_51">
        <path d="m105.58,121.71l-0.72,-0.4c-0.03,-0.02 -3.3,-1.84 -10.55,-7.79c-7.15,-5.87 -11.47,-6.31 -11.51,-6.31c-0.14,-0.01 -0.24,-0.13 -0.23,-0.27c0.02,-0.14 0.15,-0.24 0.27,-0.23c0.18,0.02 4.5,0.44 11.79,6.42c5.2,4.27 8.33,6.4 9.68,7.26c-1.52,-2.73 -6.71,-11.52 -11.91,-14.35c-0.12,-0.06 -0.17,-0.21 -0.1,-0.34c0.06,-0.12 0.22,-0.16 0.34,-0.1c6.29,3.42 12.31,14.89 12.56,15.38l0.38,0.73z" fill="#4A6173" id="svg_52"/>
       </g>
      </g>
      <g id="svg_53">
       <g id="svg_54">
        <g id="svg_55">
         <path d="m106.52,124.22l-0.22,-0.64c-0.04,-0.13 -4.27,-12.84 1.48,-22.75c3.27,-5.66 9.11,-9.34 17.35,-10.95l2.02,-0.39l-1.75,1.08c-6.44,3.98 -11.16,11.3 -12.02,18.65c-0.9,7.62 -6.21,14.2 -6.44,14.48l-0.42,0.52zm16.85,-33.18c-7.01,1.73 -12.03,5.14 -14.94,10.16c-4.82,8.31 -2.4,18.7 -1.63,21.45c1.3,-1.77 5.1,-7.38 5.83,-13.52c0.82,-6.93 4.96,-13.83 10.74,-18.09z" fill="#4A6173" id="svg_56"/>
        </g>
        <g id="svg_57">
         <path d="m106.65,123.71c-0.12,0 -0.23,-0.1 -0.24,-0.22c-0.03,-0.24 -2.76,-24.31 17.27,-33.16c0.12,-0.06 0.27,0 0.33,0.13c0.05,0.12 0,0.27 -0.13,0.33c-19.69,8.7 -17.01,32.4 -16.98,32.64c0.02,0.13 -0.08,0.26 -0.22,0.28c-0.01,0 -0.02,0 -0.03,0z" fill="#4A6173" id="svg_58"/>
        </g>
       </g>
       <g id="svg_59">
        <path d="m106.2,123.31l-0.07,-0.7c-0.06,-0.53 -1.36,-13.11 1.26,-18.01c0.06,-0.12 0.21,-0.16 0.33,-0.1c0.13,0.07 0.17,0.22 0.11,0.34c-2.18,4.08 -1.52,14.09 -1.28,16.94c0.65,-1.17 1.91,-3.77 2.29,-6.77c0.53,-4.17 2.69,-9.29 2.71,-9.35c0.06,-0.12 0.21,-0.18 0.33,-0.13c0.13,0.06 0.19,0.2 0.13,0.33c-0.02,0.05 -2.16,5.11 -2.67,9.21c-0.53,4.19 -2.67,7.51 -2.76,7.65l-0.38,0.59z" fill="#4A6173" id="svg_60"/>
       </g>
      </g>
     </g>
     <g id="svg_61">
      <g id="svg_62">
       <g id="svg_63">
        <g id="svg_64">
         <path d="m125.25,137.56c-1.65,0 -2.5,-0.18 -2.59,-0.2l-0.51,-0.11l0.28,-0.45c0.07,-0.12 7.56,-11.77 20.81,-13.95c9.32,-1.53 19.19,1.87 29.33,10.11l1.43,1.17l-1.77,-0.52c-10.26,-2.96 -21.83,-2.42 -34.38,1.63c-5.98,1.92 -10.15,2.32 -12.6,2.32zm-1.86,-0.85c1.56,0.18 6.31,0.37 14.23,-2.18c11.98,-3.87 23.1,-4.57 33.06,-2.11c-9.46,-7.28 -18.64,-10.25 -27.31,-8.83c-11.38,1.87 -18.42,10.92 -19.98,13.12z" fill="#4A6173" id="svg_65"/>
        </g>
        <g id="svg_66">
         <path d="m122.75,137.25c-0.08,0 -0.15,-0.03 -0.2,-0.09c-0.08,-0.11 -0.07,-0.27 0.04,-0.36c18.21,-15.05 41.53,-7.74 41.76,-7.66c0.13,0.04 0.2,0.18 0.16,0.31c-0.04,0.13 -0.18,0.21 -0.31,0.16c-0.23,-0.07 -23.29,-7.3 -41.29,7.58c-0.05,0.04 -0.11,0.06 -0.16,0.06z" fill="#4A6173" id="svg_67"/>
        </g>
       </g>
       <g id="svg_68">
        <path d="m122.99,136.57l0.6,-0.57c0.4,-0.37 9.86,-9.22 16.93,-10.38c0.13,-0.02 0.26,0.07 0.29,0.21c0.02,0.13 -0.07,0.26 -0.21,0.29c-5.85,0.95 -13.64,7.54 -15.98,9.62c1.57,-0.37 5.22,-1.35 11.54,-3.67c8.85,-3.25 13.06,-2.22 13.24,-2.18c0.13,0.04 0.21,0.17 0.18,0.31c-0.04,0.13 -0.17,0.21 -0.3,0.18c-0.05,-0.01 -4.27,-1.02 -12.95,2.16c-8.8,3.23 -12.49,3.88 -12.52,3.89l-0.82,0.14z" fill="#4A6173" id="svg_69"/>
       </g>
      </g>
      <g id="svg_70">
       <g id="svg_71">
        <g id="svg_72">
         <path d="m121.28,138.63l-0.23,-0.64c-0.12,-0.33 -2.96,-8.3 -1.3,-15.78c1.6,-7.23 -0.45,-15.69 -5.22,-21.57l-1.29,-1.59l1.77,1.03c7.25,4.23 11.55,9.62 12.79,16.05c2.16,11.25 -6.02,21.86 -6.1,21.97l-0.42,0.53zm-4.99,-36.88c4.06,5.93 5.7,13.81 4.19,20.62c-1.34,6.03 0.4,12.58 1.05,14.68c1.64,-2.34 7.34,-11.35 5.53,-20.79c-1.1,-5.69 -4.72,-10.57 -10.77,-14.51z" fill="#4A6173" id="svg_73"/>
        </g>
        <g id="svg_74">
         <path d="m121.41,138.12c-0.04,0 -0.08,-0.01 -0.11,-0.03c-0.13,-0.06 -0.18,-0.21 -0.12,-0.34c0.11,-0.21 10.44,-21.71 -5.28,-36.41c-0.1,-0.09 -0.11,-0.25 -0.02,-0.35c0.1,-0.1 0.26,-0.11 0.36,-0.01c16,14.95 5.5,36.78 5.39,36.99c-0.05,0.09 -0.13,0.15 -0.22,0.15z" fill="#4A6173" id="svg_75"/>
        </g>
       </g>
       <g id="svg_76">
        <path d="m121.88,137.87l-0.17,-0.68c-0.04,-0.16 -0.96,-4 -0.08,-8.13c0.86,-4.04 0.51,-9.52 0.51,-9.58c-0.01,-0.13 0.09,-0.25 0.23,-0.26c0.13,-0.01 0.26,0.09 0.27,0.23c0,0.06 0.36,5.61 -0.52,9.72c-0.63,2.96 -0.29,5.83 -0.07,7.15c1.17,-2.62 5.09,-11.85 4.38,-16.42c-0.02,-0.14 0.07,-0.27 0.2,-0.29c0.14,-0.01 0.27,0.07 0.29,0.21c0.86,5.48 -4.51,16.93 -4.74,17.42l-0.3,0.63z" fill="#4A6173" id="svg_77"/>
       </g>
      </g>
     </g>
     <g id="svg_78">
      <g id="svg_79">
       <g id="svg_80">
        <g id="svg_81">
         <path d="m98.86,199.58l-0.06,-0.52c-0.02,-0.14 -1.45,-13.91 7.54,-23.9c6.32,-7.01 16.11,-10.53 29.21,-10.42l1.85,0.01l-1.71,0.71c-9.86,4.09 -18.55,11.75 -25.83,22.75c-5.8,8.78 -10.34,11.05 -10.53,11.14l-0.47,0.23zm34.88,-34.08c-11.95,0.22 -20.97,3.64 -26.84,10.17c-7.73,8.58 -7.56,20.02 -7.4,22.72c1.32,-0.84 5.15,-3.65 9.73,-10.6c6.95,-10.5 15.19,-18 24.51,-22.29z" fill="#4A6173" id="svg_82"/>
        </g>
        <g id="svg_83">
         <path d="m99.17,199.26c-0.02,0 -0.03,0 -0.05,0c-0.14,-0.03 -0.22,-0.16 -0.2,-0.3c4.82,-23.13 27.59,-31.99 27.82,-32.07c0.13,-0.05 0.28,0.01 0.33,0.14c0.05,0.13 -0.02,0.28 -0.15,0.32c-0.23,0.09 -22.75,8.85 -27.51,31.72c-0.02,0.11 -0.12,0.19 -0.24,0.19z" fill="#4A6173" id="svg_84"/>
        </g>
       </g>
       <g id="svg_85">
        <path d="m99.09,198.53l0.12,-0.82c0.08,-0.55 1.93,-13.37 6.73,-18.68c0.09,-0.11 0.25,-0.11 0.35,-0.02c0.11,0.09 0.11,0.25 0.02,0.35c-3.97,4.4 -5.93,14.42 -6.46,17.5c0.99,-1.26 3.23,-4.32 6.71,-10.07c4.89,-8.07 8.82,-9.9 8.98,-9.98c0.13,-0.05 0.28,0 0.33,0.13c0.06,0.13 0,0.27 -0.12,0.33c-0.04,0.02 -3.97,1.87 -8.76,9.78c-4.85,8.02 -7.32,10.83 -7.35,10.86l-0.55,0.62z" fill="#4A6173" id="svg_86"/>
       </g>
      </g>
      <g id="svg_87">
       <g id="svg_88">
        <g id="svg_89">
         <path d="m99.05,201.2l-0.58,-0.35c-0.31,-0.19 -7.5,-4.63 -10.88,-11.51c-3.26,-6.64 -10.15,-11.97 -17.55,-13.58l-2.01,-0.44l2.03,-0.3c8.31,-1.23 15.04,0.3 20.01,4.54c8.72,7.44 8.97,20.83 8.97,20.97l0.01,0.67zm-26.94,-25.67c6.87,2.09 13.07,7.22 16.15,13.48c2.73,5.55 8.18,9.57 9.99,10.8c-0.18,-2.84 -1.36,-13.45 -8.67,-19.68c-4.41,-3.76 -10.28,-5.31 -17.47,-4.6z" fill="#4A6173" id="svg_90"/>
        </g>
        <g id="svg_91">
         <path d="m98.66,200.78c-0.11,0 -0.21,-0.08 -0.24,-0.19c-0.05,-0.24 -5.41,-23.48 -26.87,-25.13c-0.14,-0.01 -0.25,-0.13 -0.24,-0.27c0.02,-0.14 0.14,-0.25 0.27,-0.23c21.84,1.68 27.27,25.28 27.33,25.52c0.03,0.13 -0.06,0.27 -0.19,0.3c-0.02,0 -0.04,0 -0.06,0z" fill="#4A6173" id="svg_92"/>
        </g>
       </g>
       <g id="svg_93">
        <path d="m99.04,200.24l-0.56,-0.43c-0.13,-0.1 -3.25,-2.52 -5.14,-6.3c-1.85,-3.69 -5.55,-7.75 -5.59,-7.79c-0.09,-0.1 -0.08,-0.26 0.02,-0.35c0.1,-0.1 0.26,-0.09 0.35,0.01c0.04,0.04 3.79,4.15 5.67,7.91c1.36,2.71 3.41,4.74 4.41,5.63c-0.72,-2.78 -3.43,-12.44 -6.84,-15.56c-0.1,-0.09 -0.11,-0.25 -0.02,-0.35c0.1,-0.1 0.26,-0.11 0.36,-0.02c4.09,3.75 7.05,16.04 7.18,16.56l0.16,0.69z" fill="#4A6173" id="svg_94"/>
       </g>
      </g>
     </g>
     <g id="svg_95">
      <g id="svg_96">
       <g id="svg_97">
        <g id="svg_98">
         <path d="m95.66,94.06l-0.26,-0.46c-0.07,-0.12 -6.74,-12.25 -2.33,-24.94c3.1,-8.92 10.8,-15.97 22.88,-20.95l1.71,-0.71l-1.3,1.32c-7.5,7.6 -12.54,18.02 -14.98,30.99c-1.94,10.34 -5.23,14.2 -5.37,14.35l-0.35,0.4zm18.91,-44.95c-10.91,4.85 -17.9,11.5 -20.79,19.79c-3.79,10.89 0.81,21.39 2,23.82c0.9,-1.29 3.33,-5.37 4.86,-13.55c2.33,-12.38 7.01,-22.48 13.93,-30.06z" fill="#4A6173" id="svg_99"/>
        </g>
        <g id="svg_100">
         <path d="m95.72,93.67c-0.11,0 -0.22,-0.08 -0.24,-0.2c-4.54,-23.19 13.01,-40.19 13.18,-40.36c0.1,-0.1 0.26,-0.09 0.36,0.01c0.09,0.1 0.09,0.25 -0.01,0.35c-0.18,0.17 -17.53,16.98 -13.04,39.9c0.03,0.14 -0.06,0.27 -0.2,0.3c-0.02,0 -0.03,0 -0.05,0z" fill="#4A6173" id="svg_101"/>
        </g>
       </g>
       <g id="svg_102">
        <path d="m95.46,93l-0.21,-0.8c-0.14,-0.53 -3.4,-13.07 -1.04,-19.83c0.04,-0.13 0.18,-0.2 0.31,-0.15c0.13,0.04 0.2,0.19 0.16,0.32c-1.95,5.59 0.12,15.59 0.83,18.63c0.42,-1.55 1.31,-5.23 2.28,-11.89c1.37,-9.33 4.28,-12.54 4.4,-12.68c0.1,-0.1 0.26,-0.1 0.36,-0.01c0.1,0.09 0.1,0.25 0.01,0.35c-0.03,0.04 -2.93,3.26 -4.27,12.41c-1.36,9.28 -2.55,12.83 -2.56,12.86l-0.27,0.79z" fill="#4A6173" id="svg_103"/>
       </g>
      </g>
      <g id="svg_104">
       <g id="svg_105">
        <g id="svg_106">
         <path d="m96.46,95.48l-0.67,-0.1c-0.35,-0.05 -8.71,-1.35 -14.49,-6.38c-5.59,-4.85 -14.01,-7.09 -21.45,-5.71l-2.02,0.38l1.76,-1.06c7.17,-4.36 13.97,-5.57 20.2,-3.59c10.92,3.47 16.35,15.72 16.4,15.84l0.27,0.62zm-32.14,-13.34c6.35,0 12.85,2.28 17.47,6.29c4.67,4.06 11.25,5.65 13.4,6.08c-1.27,-2.55 -6.47,-11.87 -15.63,-14.77c-5.53,-1.76 -11.54,-0.9 -17.89,2.53c0.87,-0.09 1.76,-0.13 2.65,-0.13z" fill="#4A6173" id="svg_107"/>
        </g>
        <g id="svg_108">
         <path d="m95.85,95.26c-0.08,0 -0.16,-0.03 -0.21,-0.1c-0.14,-0.2 -14.1,-19.54 -34.52,-12.73c-0.13,0.04 -0.27,-0.03 -0.32,-0.16c-0.04,-0.13 0.03,-0.27 0.16,-0.32c20.78,-6.92 34.95,12.72 35.09,12.92c0.08,0.11 0.05,0.27 -0.06,0.35c-0.04,0.03 -0.09,0.04 -0.14,0.04z" fill="#4A6173" id="svg_109"/>
        </g>
       </g>
       <g id="svg_110">
        <path d="m96.08,94.6l-0.68,-0.18c-0.16,-0.04 -3.98,-1.06 -7.18,-3.81c-3.14,-2.68 -8.13,-4.99 -8.18,-5.01c-0.13,-0.06 -0.18,-0.21 -0.12,-0.33c0.06,-0.13 0.2,-0.18 0.33,-0.13c0.05,0.03 5.1,2.36 8.29,5.09c2.3,1.97 4.99,3.05 6.25,3.48c-1.74,-2.28 -7.98,-10.13 -12.34,-11.68c-0.13,-0.05 -0.2,-0.19 -0.15,-0.32c0.05,-0.13 0.19,-0.2 0.32,-0.15c5.22,1.86 12.73,12.04 13.04,12.47l0.42,0.57z" fill="#4A6173" id="svg_111"/>
       </g>
      </g>
     </g>
     <g id="svg_112">
      <g id="svg_113">
       <path d="m98.98,196.68l-0.23,-1.97c-0.02,-0.15 -1.82,-14.98 -6.87,-20.44c-2.69,-2.9 -4.99,-4.01 -6.84,-4.9c-1.65,-0.79 -2.96,-1.42 -3.63,-3c-0.56,-1.35 0.03,-2.93 1.4,-3.76c2.24,-1.34 6.32,-0.71 11.05,5.08c7.66,9.4 5.41,26.85 5.38,27.03l-0.26,1.96zm-13.89,-34.17c-0.78,0 -1.46,0.2 -2.02,0.53c-1.16,0.7 -1.66,2.02 -1.19,3.13c0.59,1.41 1.76,1.98 3.37,2.75c1.79,0.86 4.25,2.04 7,5.01c4.04,4.37 6,14.24 6.69,18.6c0.34,-4.91 0.48,-17.23 -5.47,-24.52c-3.31,-4.06 -6.24,-5.5 -8.38,-5.5z" fill="#4A6173" id="svg_114"/>
      </g>
      <g id="svg_115">
       <path d="m98.66,190.02c-0.13,0 -0.24,-0.11 -0.25,-0.24c-0.99,-18.27 -10.3,-23.03 -10.55,-23.15c-0.1,-0.03 -0.17,-0.13 -0.17,-0.24c0,-0.14 0.11,-0.25 0.25,-0.25c0.09,0 9.94,4.74 10.97,23.61c0.01,0.14 -0.09,0.26 -0.23,0.27c-0.01,0 -0.01,0 -0.02,0z" fill="#4A6173" id="svg_116"/>
      </g>
     </g>
     <g id="svg_117">
      <g id="svg_118">
       <path d="m100.87,222.95l-0.21,-1.52c-0.02,-0.14 -1.77,-13.73 4.19,-21.03c3.69,-4.52 6.86,-5.01 8.6,-3.96c1.07,0.65 1.53,1.87 1.09,2.92c-0.52,1.24 -1.54,1.73 -2.82,2.34c-1.44,0.7 -3.24,1.56 -5.33,3.81c-3.93,4.25 -5.33,15.8 -5.34,15.91l-0.18,1.53zm10.8,-26.59c-1.66,0 -3.94,1.13 -6.51,4.28c-4.64,5.68 -4.52,15.26 -4.26,19.09c0.54,-3.4 2.06,-11.08 5.21,-14.48c2.14,-2.31 4.05,-3.23 5.44,-3.9c1.26,-0.6 2.17,-1.04 2.63,-2.14c0.36,-0.87 -0.03,-1.89 -0.93,-2.44c-0.43,-0.25 -0.96,-0.41 -1.58,-0.41z" fill="#4A6173" id="svg_119"/>
      </g>
      <g id="svg_120">
       <path d="m101.11,217.77c0,0 0,0 -0.01,0c-0.1,-0.01 -0.19,-0.1 -0.18,-0.21c0.8,-14.68 8.47,-18.37 8.54,-18.37c0.11,0 0.2,0.09 0.2,0.19c0,0.09 -0.06,0.16 -0.14,0.19c-0.19,0.09 -7.44,3.8 -8.21,18.01c-0.01,0.11 -0.09,0.19 -0.2,0.19z" fill="#4A6173" id="svg_121"/>
      </g>
     </g>
     <g id="svg_122">
      <g id="svg_123">
       <path d="m104.92,166.59c0,0 0,0 0,0c-0.13,0 -12.58,-0.36 -20.47,-16.01l-0.15,-0.29l0.33,0.01c6.31,0.27 14.42,5.91 18.17,9.83c0.07,0.07 0.07,0.2 -0.01,0.27c-0.08,0.08 -0.2,0.07 -0.28,0c-3.63,-3.8 -11.4,-9.24 -17.56,-9.69c7.79,15.13 19.85,15.49 19.98,15.49c0.1,0 0.19,0.09 0.19,0.2c-0.01,0.1 -0.09,0.19 -0.2,0.19z" fill="#4A6173" id="svg_124"/>
      </g>
      <g id="svg_125">
       <path d="m104.92,165.04c-0.03,0 -0.06,0 -0.08,-0.02c-8.56,-4.15 -16.72,-11.52 -16.72,-11.92c0,-0.11 0.08,-0.19 0.19,-0.19c0.08,0 0.14,0.04 0.17,0.1c0.37,0.46 7.91,7.49 16.53,11.66c0.09,0.05 0.13,0.17 0.09,0.26c-0.04,0.07 -0.11,0.11 -0.18,0.11zm-16.41,-11.94l0,0l0,0z" fill="#4A6173" id="svg_126"/>
      </g>
     </g>
     <g id="svg_127">
      <path d="m105.56,166.59c-0.1,0 -0.18,-0.07 -0.2,-0.17c-0.01,-0.1 0.06,-0.2 0.17,-0.22c0.1,-0.02 10.75,-1.79 17.64,-7.21c-2.57,-1.61 -5.81,-1.33 -5.84,-1.33c-0.1,0.02 -0.2,-0.06 -0.21,-0.17c-0.01,-0.11 0.07,-0.2 0.17,-0.21c0.15,-0.02 3.61,-0.32 6.32,1.53l0.22,0.15l-0.21,0.17c-6.96,5.61 -17.92,7.44 -18.03,7.45c-0.01,0.01 -0.02,0.01 -0.03,0.01z" fill="#4A6173" id="svg_128"/>
     </g>
     <g id="svg_129">
      <path d="m101.54,229.23l-0.07,-0.04c-0.14,-0.06 -14.12,-6.86 -23.05,-6.86c-0.12,0 -0.24,0 -0.35,0.01l-0.46,0.01l0.31,-0.34c5.77,-6.21 13.8,-3.11 13.88,-3.08c0.1,0.04 0.15,0.15 0.11,0.25c-0.04,0.1 -0.16,0.15 -0.25,0.11c-0.08,-0.03 -7.58,-2.92 -13.14,2.66c8.71,0.05 21.98,6.35 23.05,6.86c0.68,-0.2 6.07,-1.89 8.7,-6.02c2.39,-3.74 4.94,-6.04 5.73,-6.72c-0.77,-0.28 -3.08,-0.81 -5.95,1.29c-0.09,0.06 -0.21,0.04 -0.28,-0.04c-0.06,-0.09 -0.04,-0.21 0.04,-0.27c3.74,-2.74 6.54,-1.27 6.66,-1.2l0.26,0.14l-0.24,0.18c-0.03,0.03 -3.07,2.41 -5.89,6.83c-2.88,4.51 -8.93,6.19 -8.99,6.21l-0.07,0.02z" fill="#4A6173" id="svg_130"/>
     </g>
     <g id="svg_131">
      <path d="m101.04,228.03l-0.06,-0.06c-5.83,-5.95 -15.65,-6.94 -15.75,-6.95c-0.11,-0.01 -0.19,-0.1 -0.18,-0.21c0.01,-0.1 0.11,-0.18 0.22,-0.17c0.1,0.01 9.98,1 15.91,6.98c2.85,-0.43 5.35,-3.49 7.48,-6.34c2.44,-3.27 4.21,-3.87 4.28,-3.89c0.1,-0.03 0.21,0.02 0.24,0.12c0.04,0.11 -0.02,0.21 -0.12,0.25c-0.02,0 -1.73,0.6 -4.09,3.76c-2.2,2.93 -4.8,6.1 -7.83,6.5l-0.1,0.01z" fill="#4A6173" id="svg_132"/>
     </g>
     <g id="svg_133">
      <g id="svg_134">
       <path d="m95.49,154.77c-0.04,0 -0.08,-0.01 -0.11,-0.04c-2.32,-1.62 -4.77,-4.98 -7.37,-8.54c-1.55,-2.11 -3.14,-4.29 -4.76,-6.17c-4.62,-5.37 -13.66,-9.59 -25.2,-5.32l-0.17,-0.35c11.27,-6.42 20.01,-4.6 25.36,-1.95c5.79,2.88 8.96,7.33 9,7.38c0.06,0.09 0.04,0.21 -0.05,0.27c-0.09,0.06 -0.21,0.04 -0.27,-0.05c-0.03,-0.04 -3.16,-4.43 -8.87,-7.25c-4.94,-2.45 -12.84,-4.17 -22.99,0.88c10.7,-3.1 19.07,1 23.48,6.13c1.63,1.9 3.23,4.09 4.78,6.2c2.58,3.53 5.02,6.86 7.28,8.45c0.09,0.06 0.11,0.19 0.05,0.27c-0.04,0.06 -0.1,0.09 -0.16,0.09z" fill="#4A6173" id="svg_135"/>
      </g>
      <g id="svg_136">
       <path d="m99.87,157.91c-0.05,0 -0.11,-0.02 -0.14,-0.06c-0.04,-0.04 -3.23,-3.42 -5.78,-8.28c-0.19,-0.36 -0.38,-0.74 -0.58,-1.13c-2.55,-4.95 -6.03,-11.74 -14.18,-14.55c-0.11,-0.04 -0.16,-0.15 -0.13,-0.25c0.04,-0.1 0.15,-0.15 0.25,-0.12c8.3,2.86 11.83,9.73 14.41,14.74c0.19,0.39 0.39,0.77 0.58,1.12c2.51,4.82 5.68,8.16 5.71,8.2c0.07,0.08 0.07,0.2 -0.01,0.27c-0.04,0.04 -0.08,0.06 -0.13,0.06z" fill="#4A6173" id="svg_137"/>
      </g>
     </g>
     <g id="svg_138">
      <path d="m134.33,125.53c-0.05,0 -0.1,-0.02 -0.13,-0.06c-0.08,-0.08 -0.08,-0.2 -0.01,-0.28c2.66,-2.71 4.95,-14.89 6.35,-22.45c-13.37,8.02 -13.51,20.59 -13.51,20.72c0,0.1 -0.09,0.19 -0.2,0.19l0,0c-0.1,0 -0.19,-0.09 -0.19,-0.19c0,-0.13 0.14,-13.15 14.08,-21.28l0.36,-0.21l-0.08,0.42c-1.89,10.23 -3.96,20.44 -6.53,23.08c-0.04,0.03 -0.09,0.06 -0.14,0.06z" fill="#4A6173" id="svg_139"/>
     </g>
     <g id="svg_140">
      <path d="m125.75,132.02c-0.04,0 -0.07,0 -0.1,-0.02c-0.09,-0.06 -0.12,-0.18 -0.07,-0.27c0.1,-0.16 9.82,-16.37 11.54,-23.88c0.03,-0.11 0.13,-0.17 0.24,-0.15c0.1,0.03 0.17,0.13 0.14,0.24c-1.74,7.56 -11.49,23.83 -11.58,23.99c-0.04,0.06 -0.11,0.09 -0.17,0.09z" fill="#4A6173" id="svg_141"/>
     </g>
     <g id="svg_142">
      <g id="svg_143">
       <path d="m83.86,78.67c-0.07,0 -0.13,-0.03 -0.17,-0.09c-0.08,-0.14 -8.29,-13.7 -4.4,-28.7l0.21,-0.79l0.17,0.8c1.56,7.28 5.74,14.16 7.47,16.78c0.44,0.66 0.92,1.35 1.39,2.01c1.79,2.53 3.65,5.15 3.64,7.58c0,0.11 -0.09,0.19 -0.2,0.19c-0.1,-0.01 -0.19,-0.08 -0.19,-0.19c0.01,-2.31 -1.81,-4.88 -3.56,-7.36c-0.48,-0.66 -0.96,-1.35 -1.4,-2.02c-1.68,-2.54 -5.65,-9.07 -7.35,-16.1c-3.37,14.51 4.47,27.46 4.55,27.59c0.06,0.09 0.03,0.21 -0.06,0.27c-0.03,0.02 -0.07,0.03 -0.1,0.03z" fill="#4A6173" id="svg_144"/>
      </g>
      <g id="svg_145">
       <path d="m93.06,89.63c-0.08,0 -0.15,-0.05 -0.18,-0.13l-0.17,-0.48c-0.92,-2.6 -3.07,-8.69 -8.06,-16.65c-5.31,-8.45 -5.12,-16.03 -5.12,-16.11c0.01,-0.11 0.12,-0.18 0.21,-0.19c0.1,0.01 0.19,0.1 0.18,0.2c0,0.08 -0.18,7.55 5.06,15.89c5.01,8 7.18,14.12 8.1,16.74l0.17,0.47c0.03,0.1 -0.02,0.21 -0.12,0.25c-0.02,0 -0.05,0.01 -0.07,0.01z" fill="#4A6173" id="svg_146"/>
      </g>
     </g>
     <g id="svg_147">
      <g id="svg_148">
       <path d="m100.61,198.28c-0.09,0 -0.17,-0.06 -0.19,-0.15c-0.03,-0.1 0.04,-0.21 0.14,-0.24c0.13,-0.03 12.7,-3.48 21.51,-11.85c6.98,-6.63 17.23,-8.51 21.38,-9.02c-5.24,-0.48 -20.66,-0.97 -31.61,8.01c-0.08,0.07 -0.21,0.06 -0.28,-0.02c-0.06,-0.09 -0.05,-0.21 0.03,-0.28c13.46,-11.04 33.55,-7.91 33.75,-7.88l1.85,0.3l-1.87,0.09c-0.14,0 -14.2,0.73 -22.98,9.08c-8.88,8.44 -21.55,11.91 -21.68,11.95c-0.02,0 -0.03,0.01 -0.05,0.01z" fill="#4A6173" id="svg_149"/>
      </g>
      <g id="svg_150">
       <path d="m103.92,195.32c-0.07,0 -0.14,-0.04 -0.17,-0.11c-0.05,-0.09 -0.01,-0.21 0.09,-0.26c0.05,-0.02 5.19,-2.52 10.55,-7.75c5.06,-4.94 10.78,-7.72 19.14,-9.31c0.1,-0.02 0.2,0.05 0.22,0.15c0.02,0.11 -0.05,0.21 -0.15,0.23c-8.27,1.57 -13.94,4.33 -18.94,9.21c-5.41,5.28 -10.6,7.8 -10.65,7.83c-0.03,0.01 -0.06,0.01 -0.09,0.01z" fill="#4A6173" id="svg_151"/>
      </g>
     </g>
     <g id="svg_152">
      <path d="m103.78,113.33c-0.13,0 -0.24,-0.1 -0.25,-0.24c-0.53,-12.16 3.82,-21.41 8.1,-24.85c1.04,-0.84 1.49,-1.89 1.24,-2.9c-0.23,-0.96 -1.04,-1.68 -2.11,-1.9c-0.84,-0.17 -3.07,-0.22 -5.44,2.98c-4.83,6.5 -1.95,24.5 -1.92,24.68c0.02,0.13 -0.07,0.26 -0.21,0.28c-0.13,0.03 -0.26,-0.07 -0.29,-0.2c-0.12,-0.75 -2.93,-18.39 2.02,-25.06c2.54,-3.43 5,-3.36 5.94,-3.17c1.26,0.25 2.22,1.12 2.5,2.27c0.29,1.21 -0.22,2.45 -1.42,3.41c-4.18,3.36 -8.43,12.45 -7.91,24.44c0.01,0.14 -0.1,0.26 -0.24,0.27c0,-0.01 -0.01,-0.01 -0.01,-0.01z" fill="#4A6173" id="svg_153"/>
     </g>
    </g>
    <g id="svg_154">
     <g id="svg_155">
      <path d="m139.7,121.89l0.11,-0.84c0.02,-0.21 2.72,-20.57 22.22,-27.23l0.85,-0.29l-0.4,0.81c-7.61,15.59 -17.98,24.12 -22.08,27.06l-0.7,0.49zm21.7,-27.05c-15.99,5.96 -19.95,21.51 -20.7,25.4c4.38,-3.27 13.63,-11.34 20.7,-25.4z" fill="#4A6173" id="svg_156"/>
     </g>
     <g id="svg_157">
      <path d="m140.18,121.29c-0.04,0 -0.07,-0.01 -0.09,-0.02c-0.1,-0.05 -0.14,-0.17 -0.09,-0.27c5.13,-9.77 18.22,-24.03 18.36,-24.18c0.07,-0.08 0.19,-0.08 0.27,-0.01c0.08,0.07 0.09,0.2 0.01,0.28c-0.13,0.14 -13.19,14.37 -18.29,24.09c-0.04,0.07 -0.1,0.11 -0.17,0.11z" fill="#4A6173" id="svg_158"/>
     </g>
    </g>
    <g id="svg_159">
     <g id="svg_160">
      <path d="m155.09,119.5c-4.65,0 -8.21,-0.46 -10.3,-0.82l-0.85,-0.14l0.68,-0.52c0.16,-0.13 16.56,-12.5 34.99,-3.28l0.8,0.4l-0.85,0.29c-9.54,3.2 -18.04,4.07 -24.47,4.07zm-9.27,-1.41c5.4,0.82 17.65,1.75 32.62,-3.08c-15.47,-7.21 -29.32,0.88 -32.62,3.08z" fill="#4A6173" id="svg_161"/>
     </g>
     <g id="svg_162">
      <path d="m144.85,118.51c-0.08,0 -0.16,-0.06 -0.19,-0.14c-0.03,-0.1 0.03,-0.21 0.13,-0.24c10.56,-3.21 29.91,-3.89 30.11,-3.9c0.12,0.02 0.19,0.08 0.2,0.19c0,0.1 -0.08,0.19 -0.19,0.2c-0.19,0.01 -19.49,0.69 -30,3.88c-0.02,0 -0.04,0.01 -0.06,0.01z" fill="#4A6173" id="svg_163"/>
     </g>
    </g>
    <g id="svg_164">
     <g id="svg_165">
      <path d="m157.28,112.26c-0.28,0 -0.53,0 -0.76,-0.01l-0.86,-0.01l0.59,-0.62c0.14,-0.15 14.44,-14.89 34.07,-8.62l0.86,0.28l-0.8,0.41c-14.69,7.61 -27.56,8.57 -33.1,8.57zm23.26,-10.06c-12.01,0 -20.71,7.12 -23.09,9.31c5.46,-0.02 17.71,-0.99 31.76,-8.06c-3.04,-0.88 -5.94,-1.25 -8.67,-1.25z" fill="#4A6173" id="svg_166"/>
     </g>
     <g id="svg_167">
      <path d="m156.52,112.07c-0.07,0 -0.14,-0.04 -0.17,-0.11c-0.05,-0.09 -0.01,-0.21 0.09,-0.26c9.94,-4.79 28.96,-8.44 29.15,-8.48c0.11,-0.02 0.2,0.05 0.22,0.16c0.02,0.1 -0.04,0.2 -0.15,0.22c-0.19,0.04 -19.15,3.68 -29.05,8.45c-0.03,0.02 -0.06,0.02 -0.09,0.02z" fill="#4A6173" id="svg_168"/>
     </g>
    </g>
    <g id="svg_169">
     <g id="svg_170">
      <path d="m80.14,74.19l-0.66,-0.55c-3.85,-3.26 -13.52,-12.58 -19.87,-28.72l-0.33,-0.84l0.82,0.36c18.91,8.18 19.99,28.69 20,28.9l0.04,0.85zm-19.49,-28.68c5.93,14.57 14.52,23.35 18.62,26.96c-0.44,-3.95 -3.15,-19.76 -18.62,-26.96z" fill="#4A6173" id="svg_171"/>
     </g>
     <g id="svg_172">
      <path d="m79.73,73.55c-0.08,0 -0.15,-0.05 -0.18,-0.12c-4.32,-10.1 -16.21,-25.31 -16.33,-25.47c-0.07,-0.08 -0.05,-0.2 0.03,-0.27c0.09,-0.07 0.21,-0.05 0.27,0.03c0.12,0.16 12.04,15.41 16.39,25.56c0.04,0.1 -0.01,0.21 -0.11,0.25c-0.02,0.01 -0.05,0.02 -0.07,0.02z" fill="#4A6173" id="svg_173"/>
     </g>
    </g>
    <g id="svg_174">
     <g id="svg_175">
      <path d="m70.33,70.8c-6.63,0 -17.29,-1.04 -29.42,-6.21l-0.83,-0.35l0.84,-0.34c19.1,-7.73 34.46,5.9 34.62,6.04l0.63,0.57l-0.85,0.08c-1.21,0.11 -2.9,0.21 -4.99,0.21zm-28.27,-6.54c14.54,6 26.83,6.05 32.28,5.66c-3.12,-2.46 -16.29,-11.62 -32.28,-5.66z" fill="#4A6173" id="svg_176"/>
     </g>
     <g id="svg_177">
      <path d="m75.29,70.41c-0.03,0 -0.05,-0.01 -0.07,-0.02c-10.23,-4.01 -29.41,-6.22 -29.61,-6.24c-0.1,-0.01 -0.18,-0.11 -0.17,-0.21c0.01,-0.11 0.11,-0.19 0.22,-0.17c0.19,0.02 19.42,2.23 29.7,6.26c0.1,0.04 0.15,0.15 0.11,0.25c-0.03,0.08 -0.1,0.13 -0.18,0.13z" fill="#4A6173" id="svg_178"/>
     </g>
    </g>
    <g id="svg_179">
     <g id="svg_180">
      <path d="m64.99,63.3l-0.85,-0.05c-5.04,-0.32 -18.36,-2.04 -33.08,-11.22l-0.77,-0.47l0.88,-0.21c20.06,-4.7 33.15,11.13 33.28,11.29l0.54,0.66zm-32.75,-11.42c13.45,8.17 25.58,10.1 31.03,10.55c-2.71,-2.9 -14.31,-13.98 -31.03,-10.55z" fill="#4A6173" id="svg_181"/>
     </g>
     <g id="svg_182">
      <path d="m64.16,63.07c-0.03,0 -0.07,-0.01 -0.1,-0.03c-9.49,-5.53 -28.1,-10.67 -28.29,-10.72c-0.1,-0.02 -0.16,-0.13 -0.14,-0.24c0.03,-0.1 0.14,-0.16 0.24,-0.13c0.19,0.05 18.85,5.2 28.39,10.76c0.09,0.05 0.12,0.17 0.07,0.26c-0.04,0.06 -0.1,0.1 -0.17,0.1z" fill="#4A6173" id="svg_183"/>
     </g>
    </g>
   </g>
   <g id="svg_184">
    <g id="svg_185">
     <g id="svg_186">
      <path d="m99.46,211.82c-0.08,0 -0.16,-0.05 -0.19,-0.13c-0.02,-0.07 -2.57,-6.79 -9.74,-13.6c-6.63,-6.29 -18.66,-13.95 -38.39,-14.72c-0.11,0 -0.19,-0.09 -0.19,-0.2c0,-0.1 0.09,-0.19 0.19,-0.19c0.01,0 0.01,0 0.01,0c19.86,0.78 31.99,8.5 38.66,14.84c7.23,6.87 9.8,13.66 9.83,13.73c0.04,0.1 -0.02,0.21 -0.12,0.25c-0.02,0.01 -0.04,0.02 -0.06,0.02z" fill="#4A6173" id="svg_187"/>
     </g>
     <g id="svg_188">
      <path d="m47.5,190.4c-0.1,0 -0.19,-0.08 -0.2,-0.18c0,-0.11 0.08,-0.2 0.19,-0.21c0.03,0 3.15,-0.28 10.67,-6.28c-1.06,-2.87 -6.01,-5.45 -6.06,-5.48c-0.1,-0.05 -0.14,-0.16 -0.09,-0.26c0.05,-0.1 0.17,-0.13 0.26,-0.08c0.22,0.11 5.3,2.75 6.3,5.83l0.04,0.12l-0.1,0.09c-7.72,6.19 -10.87,6.44 -11,6.45c0,0 -0.01,0 -0.01,0z" fill="#4A6173" id="svg_189"/>
     </g>
     <g id="svg_190">
      <path d="m56.69,191.09c-0.09,0 -0.17,-0.06 -0.19,-0.15c-0.03,-0.11 0.04,-0.21 0.14,-0.24c0.03,0 3.11,-0.81 5.3,-6.33c-0.09,-2.85 -3.99,-8.06 -4.03,-8.11c-0.07,-0.09 -0.05,-0.21 0.03,-0.27c0.09,-0.07 0.21,-0.05 0.28,0.04c0.16,0.22 4.05,5.41 4.11,8.37l0,0.04l-0.02,0.03c-2.27,5.77 -5.45,6.58 -5.58,6.61c-0.01,0.01 -0.03,0.01 -0.04,0.01z" fill="#4A6173" id="svg_191"/>
     </g>
     <g id="svg_192">
      <path d="m61.69,191.09c0,0 -0.01,0 -0.01,0c-0.11,-0.01 -0.19,-0.1 -0.19,-0.21c0.01,-0.11 0.09,-0.19 0.21,-0.18c0,0 1.4,-0.12 5.31,-5.22c0.69,-2.96 -2.21,-7.88 -2.24,-7.93c-0.05,-0.09 -0.02,-0.21 0.07,-0.26c0.09,-0.06 0.21,-0.03 0.26,0.06c0.13,0.21 3.04,5.15 2.28,8.26l-0.04,0.07c-3.98,5.2 -5.45,5.41 -5.65,5.41zm5.5,-5.52l0,0l0,0z" fill="#4A6173" id="svg_193"/>
     </g>
    </g>
    <g id="svg_194">
     <circle cx="51.4" cy="177.46" fill="#4A6173" id="svg_195" r="1.5"/>
    </g>
    <g id="svg_196">
     <path d="m51.57,182.67c0,0.83 -0.68,1.5 -1.51,1.5c-0.83,0 -1.5,-0.67 -1.5,-1.5c0,-0.83 0.67,-1.51 1.5,-1.51c0.83,0 1.51,0.68 1.51,1.51z" fill="#4A6173" id="svg_197"/>
    </g>
    <g id="svg_198">
     <circle cx="47.05" cy="189.77" fill="#4A6173" id="svg_199" r="1.5"/>
    </g>
    <g id="svg_200">
     <circle cx="55.72" cy="191.4" fill="#4A6173" id="svg_201" r="1.5"/>
    </g>
    <g id="svg_202">
     <circle cx="62.13" cy="190.89" fill="#4A6173" id="svg_203" r="1.5"/>
    </g>
    <g id="svg_204">
     <circle cx="58.05" cy="176.14" fill="#4A6173" id="svg_205" r="1.5"/>
    </g>
    <g id="svg_206">
     <circle cx="64.97" cy="177.65" fill="#4A6173" id="svg_207" r="1.5"/>
    </g>
   </g>
   <g id="svg_208">
    <g id="svg_209">
     <g id="svg_210">
      <path d="m113.07,151.01c-0.06,0 -0.11,-0.02 -0.15,-0.07c-0.07,-0.08 -0.07,-0.2 0.01,-0.28c0.05,-0.05 5.49,-5.11 15.21,-8.15c8.97,-2.8 23.53,-4.39 41.98,3.88c0.1,0.05 0.14,0.17 0.1,0.27c-0.05,0.1 -0.16,0.14 -0.26,0.1c-18.34,-8.23 -32.8,-6.65 -41.7,-3.87c-9.64,3.01 -15,8.01 -15.06,8.06c-0.03,0.04 -0.08,0.06 -0.13,0.06z" fill="#4A6173" id="svg_211"/>
     </g>
     <g id="svg_212">
      <path d="m170.16,154.87c-0.04,0 -0.07,-0.01 -0.1,-0.03c-0.12,-0.06 -2.87,-1.72 -7.08,-10.89l-0.06,-0.13l0.1,-0.1c2.31,-2.36 8.14,-2.49 8.39,-2.49c0,0 0,0 0,0c0.11,0 0.2,0.08 0.2,0.19c0,0.11 -0.08,0.2 -0.19,0.2c-0.06,0 -5.75,0.13 -8.02,2.29c4.11,8.9 6.83,10.57 6.86,10.59c0.09,0.05 0.12,0.17 0.07,0.27c-0.04,0.06 -0.11,0.1 -0.17,0.1z" fill="#4A6173" id="svg_213"/>
     </g>
     <g id="svg_214">
      <path d="m161.47,151.34c-0.04,0 -0.09,-0.01 -0.12,-0.04c-0.11,-0.09 -2.64,-2.27 -2.08,-8.59l0.02,-0.08c1.4,-2.69 7.31,-5.69 7.56,-5.82c0.1,-0.05 0.22,-0.01 0.27,0.09c0.05,0.1 0.01,0.22 -0.09,0.27c-0.06,0.03 -5.99,3.04 -7.37,5.61c-0.52,6.06 1.92,8.19 1.94,8.21c0.09,0.07 0.1,0.2 0.03,0.28c-0.04,0.05 -0.1,0.07 -0.16,0.07z" fill="#4A6173" id="svg_215"/>
     </g>
     <g id="svg_216">
      <path d="m156.92,149.08c-0.03,0 -0.05,0 -0.08,-0.02c-0.14,-0.06 -1.41,-0.8 -2.7,-7.52l-0.01,-0.04l0.01,-0.04c0.72,-3.2 5.63,-6.41 5.83,-6.54c0.1,-0.06 0.22,-0.04 0.28,0.06c0.06,0.09 0.03,0.21 -0.06,0.27c-0.05,0.03 -4.93,3.23 -5.66,6.26c1.25,6.45 2.47,7.19 2.48,7.19c0.09,0.06 0.13,0.17 0.08,0.27c-0.03,0.07 -0.1,0.11 -0.17,0.11z" fill="#4A6173" id="svg_217"/>
     </g>
    </g>
    <g id="svg_218">
     <path d="m171.05,140.53c-0.38,0.76 -0.07,1.69 0.68,2.06c0.76,0.38 1.68,0.06 2.06,-0.7c0.38,-0.76 0.07,-1.68 -0.69,-2.06c-0.75,-0.38 -1.67,-0.06 -2.05,0.7z" fill="#4A6173" id="svg_219"/>
    </g>
    <g id="svg_220">
     <path d="m169.89,145.92c-0.38,0.76 -0.08,1.68 0.68,2.06c0.76,0.37 1.68,0.06 2.06,-0.7c0.38,-0.76 0.07,-1.69 -0.69,-2.06c-0.75,-0.38 -1.67,-0.07 -2.05,0.7z" fill="#4A6173" id="svg_221"/>
    </g>
    <g id="svg_222">
     <path d="m169.39,153.79c-0.38,0.76 -0.07,1.69 0.69,2.06c0.76,0.38 1.68,0.06 2.05,-0.7s0.08,-1.68 -0.68,-2.06c-0.76,-0.37 -1.68,-0.06 -2.06,0.7z" fill="#4A6173" id="svg_223"/>
    </g>
    <g id="svg_224">
     <path d="m160.76,151.36c-0.38,0.77 -0.08,1.69 0.68,2.06c0.76,0.38 1.68,0.07 2.06,-0.7s0.07,-1.68 -0.69,-2.06c-0.75,-0.37 -1.68,-0.06 -2.05,0.7z" fill="#4A6173" id="svg_225"/>
    </g>
    <g id="svg_226">
     <path d="m155.14,148c-0.38,0.76 -0.07,1.68 0.69,2.06c0.75,0.38 1.67,0.06 2.05,-0.7s0.07,-1.69 -0.68,-2.06c-0.76,-0.38 -1.68,-0.06 -2.06,0.7z" fill="#4A6173" id="svg_227"/>
    </g>
    <g id="svg_228">
     <path d="m165.58,136.31c-0.38,0.76 -0.07,1.69 0.69,2.07c0.76,0.37 1.68,0.06 2.05,-0.7c0.38,-0.77 0.08,-1.69 -0.68,-2.07c-0.76,-0.37 -1.68,-0.06 -2.06,0.7z" fill="#4A6173" id="svg_229"/>
    </g>
    <g id="svg_230">
     <path d="m158.6,134.56c-0.38,0.76 -0.07,1.69 0.68,2.06c0.76,0.38 1.68,0.07 2.06,-0.7c0.38,-0.76 0.07,-1.68 -0.69,-2.06c-0.75,-0.37 -1.67,-0.06 -2.05,0.7z" fill="#4A6173" id="svg_231"/>
    </g>
   </g>
   <g id="svg_232">
    <g id="svg_233">
     <g id="svg_234">
      <path d="m97.75,112.1c-0.08,0 -0.16,-0.05 -0.19,-0.13c-0.04,-0.1 0.01,-0.21 0.11,-0.25c0.07,-0.03 6.87,-2.83 13.63,-10.34c6.23,-6.93 13.7,-19.4 13.88,-39.48c0,-0.11 0.09,-0.2 0.2,-0.2c0,0 0,0 0,0c0.11,0 0.2,0.09 0.2,0.2c-0.19,20.22 -7.71,32.78 -14,39.76c-6.82,7.57 -13.69,10.4 -13.76,10.42c-0.02,0.01 -0.05,0.02 -0.07,0.02z" fill="#4A6173" id="svg_235"/>
     </g>
     <g id="svg_236">
      <path d="m124.91,69.51l-0.09,-0.1c-6.58,-7.66 -6.94,-10.85 -6.95,-10.98c-0.01,-0.11 0.07,-0.21 0.18,-0.22c0.12,-0.01 0.21,0.07 0.22,0.18c0,0.03 0.38,3.2 6.76,10.65c2.91,-1.16 5.4,-6.28 5.42,-6.33c0.05,-0.1 0.17,-0.14 0.27,-0.09c0.1,0.04 0.14,0.16 0.09,0.26c-0.11,0.22 -2.66,5.47 -5.77,6.58l-0.13,0.05z" fill="#4A6173" id="svg_237"/>
     </g>
     <g id="svg_238">
      <path d="m124.44,73.31l-0.04,-0.02c-5.98,-2.13 -6.91,-5.33 -6.94,-5.47c-0.03,-0.1 0.03,-0.21 0.14,-0.24c0.1,-0.03 0.21,0.03 0.24,0.14c0.01,0.03 0.93,3.13 6.66,5.19c2.9,-0.18 8.12,-4.31 8.17,-4.36c0.09,-0.06 0.21,-0.05 0.28,0.04c0.07,0.08 0.06,0.21 -0.03,0.27c-0.22,0.18 -5.42,4.3 -8.44,4.45l-0.04,0z" fill="#4A6173" id="svg_239"/>
     </g>
     <g id="svg_240">
      <path d="m124.37,78.57c-0.34,0 -0.67,-0.03 -0.99,-0.09l-0.07,-0.04c-5.57,-3.97 -5.71,-5.44 -5.7,-5.59c0,-0.11 0.1,-0.2 0.2,-0.2c0.11,0.01 0.19,0.1 0.19,0.21c0,0 0.17,1.42 5.51,5.24c3.06,0.6 8,-2.5 8.05,-2.53c0.09,-0.06 0.21,-0.03 0.27,0.06c0.06,0.1 0.03,0.22 -0.06,0.28c-0.19,0.12 -4.24,2.66 -7.4,2.66z" fill="#4A6173" id="svg_241"/>
     </g>
    </g>
    <g id="svg_242">
     <path d="m131.29,63.5c-0.85,0.03 -1.56,-0.64 -1.58,-1.48c-0.03,-0.85 0.64,-1.55 1.49,-1.58c0.85,-0.02 1.56,0.64 1.59,1.49c0.02,0.84 -0.65,1.55 -1.5,1.57z" fill="#4A6173" id="svg_243"/>
    </g>
    <g id="svg_244">
     <path d="m125.91,62.31c-0.85,0.03 -1.56,-0.64 -1.59,-1.48c-0.02,-0.85 0.65,-1.56 1.5,-1.58c0.85,-0.03 1.56,0.64 1.59,1.48c0.02,0.85 -0.65,1.55 -1.5,1.58z" fill="#4A6173" id="svg_245"/>
    </g>
    <g id="svg_246">
     <path d="m118.55,59.47c-0.85,0.03 -1.56,-0.64 -1.59,-1.48c-0.02,-0.85 0.65,-1.55 1.5,-1.58c0.85,-0.03 1.56,0.64 1.59,1.48c0.02,0.85 -0.65,1.55 -1.5,1.58z" fill="#4A6173" id="svg_247"/>
    </g>
    <g id="svg_248">
     <path d="m117.15,68.33c-0.85,0.03 -1.56,-0.64 -1.59,-1.48c-0.02,-0.85 0.65,-1.55 1.5,-1.58c0.85,-0.02 1.56,0.64 1.58,1.48c0.03,0.85 -0.64,1.56 -1.49,1.58z" fill="#4A6173" id="svg_249"/>
    </g>
    <g id="svg_250">
     <path d="m117.86,74.84c-0.85,0.02 -1.56,-0.64 -1.58,-1.48s0.64,-1.56 1.49,-1.58c0.85,-0.03 1.56,0.64 1.59,1.48c0.03,0.85 -0.64,1.55 -1.5,1.58z" fill="#4A6173" id="svg_251"/>
    </g>
    <g id="svg_252">
     <path d="m132.84,70.23c-0.85,0.02 -1.56,-0.64 -1.58,-1.49c-0.03,-0.84 0.64,-1.55 1.49,-1.57c0.85,-0.03 1.56,0.64 1.59,1.48c0.02,0.85 -0.65,1.55 -1.5,1.58z" fill="#4A6173" id="svg_253"/>
    </g>
    <g id="svg_254">
     <path d="m131.52,77.31c-0.86,0.02 -1.57,-0.64 -1.59,-1.49c-0.03,-0.84 0.64,-1.55 1.49,-1.57s1.57,0.64 1.59,1.48c0.03,0.85 -0.64,1.55 -1.49,1.58z" fill="#4A6173" id="svg_255"/>
    </g>
   </g>
   <g id="svg_256">
    <g id="svg_257">
     <g id="svg_258">
      <path d="m91.32,87.21c-0.05,0 -0.1,-0.02 -0.14,-0.06c-0.05,-0.05 -5.27,-5.23 -14.82,-8.52c-8.81,-3.05 -23.21,-5.07 -41.78,2.58c-0.1,0.04 -0.21,-0.01 -0.26,-0.11c-0.04,-0.1 0.01,-0.21 0.11,-0.26c18.7,-7.7 33.2,-5.66 42.08,-2.58c9.62,3.33 14.9,8.56 14.95,8.61c0.08,0.08 0.08,0.21 0,0.28c-0.04,0.04 -0.09,0.06 -0.14,0.06z" fill="#4A6173" id="svg_259"/>
     </g>
     <g id="svg_260">
      <path d="m34.14,89.31c-0.07,0 -0.14,-0.03 -0.17,-0.1c-0.06,-0.1 -0.02,-0.22 0.08,-0.27c0.02,-0.01 2.79,-1.6 7.18,-10.37c-2.21,-2.23 -7.89,-2.53 -7.95,-2.53c-0.11,-0.01 -0.19,-0.1 -0.19,-0.21c0.01,-0.11 0.08,-0.2 0.21,-0.19c0.25,0.01 6.07,0.32 8.31,2.76l0.09,0.1l-0.06,0.12c-4.49,9.04 -7.29,10.61 -7.41,10.67c-0.03,0.02 -0.06,0.02 -0.09,0.02z" fill="#4A6173" id="svg_261"/>
     </g>
     <g id="svg_262">
      <path d="m42.93,86.06c-0.06,0 -0.12,-0.03 -0.16,-0.08c-0.07,-0.09 -0.05,-0.21 0.03,-0.28c0.03,-0.02 2.53,-2.07 2.19,-8.15c-1.29,-2.61 -7.13,-5.8 -7.19,-5.83c-0.1,-0.06 -0.13,-0.18 -0.08,-0.27c0.05,-0.1 0.17,-0.14 0.27,-0.08c0.25,0.13 6.06,3.32 7.38,6.05l0.02,0.07c0.36,6.34 -2.23,8.44 -2.34,8.52c-0.04,0.03 -0.08,0.05 -0.12,0.05z" fill="#4A6173" id="svg_263"/>
     </g>
     <g id="svg_264">
      <path d="m47.55,83.94c-0.08,0 -0.15,-0.05 -0.18,-0.13c-0.05,-0.1 0,-0.22 0.1,-0.26c0.01,0 1.25,-0.7 2.69,-7.11c-0.63,-3.05 -5.41,-6.4 -5.46,-6.43c-0.09,-0.06 -0.11,-0.19 -0.05,-0.28c0.06,-0.09 0.18,-0.11 0.27,-0.05c0.21,0.14 5.01,3.5 5.64,6.73l0,0.04l-0.01,0.04c-1.49,6.67 -2.78,7.37 -2.93,7.43c-0.02,0.01 -0.05,0.02 -0.07,0.02z" fill="#4A6173" id="svg_265"/>
     </g>
    </g>
    <g id="svg_266">
     <path d="m33.68,74.95c0.36,0.78 0.02,1.69 -0.74,2.04c-0.77,0.36 -1.68,0.01 -2.04,-0.76c-0.35,-0.77 -0.02,-1.69 0.75,-2.04c0.77,-0.35 1.68,-0.01 2.03,0.76z" fill="#4A6173" id="svg_267"/>
    </g>
    <g id="svg_268">
     <path d="m34.68,80.37c0.35,0.78 0.02,1.69 -0.75,2.04c-0.77,0.36 -1.68,0.01 -2.03,-0.76c-0.36,-0.77 -0.02,-1.69 0.75,-2.04c0.76,-0.35 1.67,-0.01 2.03,0.76z" fill="#4A6173" id="svg_269"/>
    </g>
    <g id="svg_270">
     <path d="m34.93,88.26c0.35,0.77 0.02,1.69 -0.75,2.04c-0.77,0.35 -1.68,0.01 -2.03,-0.76c-0.36,-0.78 -0.02,-1.69 0.75,-2.04c0.76,-0.36 1.68,-0.02 2.03,0.76z" fill="#4A6173" id="svg_271"/>
    </g>
    <g id="svg_272">
     <path d="m43.64,86.1c0.35,0.77 0.02,1.69 -0.75,2.04c-0.77,0.35 -1.68,0.01 -2.03,-0.76c-0.36,-0.78 -0.02,-1.69 0.74,-2.04s1.68,-0.01 2.04,0.76z" fill="#4A6173" id="svg_273"/>
    </g>
    <g id="svg_274">
     <path d="m49.35,82.91c0.36,0.77 0.02,1.68 -0.74,2.04c-0.77,0.35 -1.68,0.01 -2.04,-0.77c-0.35,-0.77 -0.02,-1.68 0.75,-2.04c0.77,-0.35 1.68,-0.01 2.03,0.77z" fill="#4A6173" id="svg_275"/>
    </g>
    <g id="svg_276">
     <path d="m39.28,70.91c0.35,0.77 0.02,1.68 -0.75,2.04s-1.68,0.01 -2.04,-0.77c-0.35,-0.77 -0.02,-1.68 0.75,-2.04c0.77,-0.35 1.68,-0.01 2.04,0.77z" fill="#4A6173" id="svg_277"/>
    </g>
    <g id="svg_278">
     <path d="m46.31,69.37c0.36,0.78 0.02,1.69 -0.74,2.04c-0.77,0.36 -1.68,0.01 -2.04,-0.76c-0.35,-0.77 -0.02,-1.69 0.75,-2.04c0.77,-0.35 1.68,-0.01 2.03,0.76z" fill="#4A6173" id="svg_279"/>
    </g>
   </g>
  </g>
 </g>
</svg>