<?xml version="1.0"?>
<svg width="500" height="500" xmlns="http://www.w3.org/2000/svg" xmlns:svg="http://www.w3.org/2000/svg" enable-background="new 0 0 500 500" version="1.1" xml:space="preserve">
 <g class="layer">
  <title>Layer 1</title>
  <g id="svg_280" transform="translate(0 -1.25) translate(34.125 0) matrix(3.10621 0 0 3.10621 -569.596 -133.065)">
   <g id="svg_281">
    <g id="svg_282">
     <path d="m216.12,201.36c-0.3,0 -0.59,-0.13 -0.79,-0.37c-0.34,-0.44 -0.27,-1.07 0.17,-1.41c0.57,-0.46 57.79,-46.45 66.96,-112.6c0.08,-0.55 0.58,-0.93 1.13,-0.86c0.55,0.08 0.93,0.58 0.85,1.13c-9.28,66.96 -67.12,113.44 -67.7,113.9c-0.18,0.14 -0.4,0.21 -0.62,0.21z" fill="#4A6173" id="svg_283"/>
    </g>
    <g id="svg_284">
     <path d="m231.14,187.34c-0.2,0 -0.41,-0.06 -0.58,-0.18c-0.45,-0.32 -0.56,-0.95 -0.24,-1.4c0.26,-0.36 25.32,-36.62 -0.22,-91.24c-0.24,-0.5 -0.02,-1.1 0.48,-1.33c0.5,-0.23 1.09,-0.02 1.33,0.48c26.06,55.73 0.31,92.88 0.04,93.25c-0.19,0.27 -0.5,0.42 -0.81,0.42z" fill="#4A6173" id="svg_285"/>
    </g>
    <g id="svg_286">
     <g id="svg_287">
      <g id="svg_288">
       <path d="m282.34,96.19l-0.5,-0.36c-0.11,-0.08 -10.8,-8.06 -14.11,-21.79c-3.31,-13.7 -1.5,-19.64 -1.42,-19.89l0.23,-0.71l0.41,0.63c0.69,1.07 17,26.45 15.45,41.51l-0.06,0.61zm-15.53,-41.01c-0.37,2.04 -0.97,8.01 1.61,18.69c2.84,11.75 11.18,19.22 13.33,20.98c0.89,-13.49 -12.29,-35.41 -14.94,-39.67z" fill="#4A6173" id="svg_289"/>
      </g>
      <g id="svg_290">
       <path d="m281.63,96.08l0.06,-0.58c1.43,-12.98 16.34,-28.06 30.68,-31.03l0.66,-0.14l-0.26,0.63c-0.1,0.23 -9.96,23.12 -30.6,30.91l-0.54,0.21zm30.19,-30.76c-13.65,3.19 -27.6,17.3 -29.35,29.67c18.07,-7.13 27.62,-25.96 29.35,-29.67z" fill="#4A6173" id="svg_291"/>
      </g>
      <g id="svg_292">
       <path d="m284.55,87.7c-0.02,0 -0.03,0 -0.05,0c-0.19,-0.03 -0.33,-0.21 -0.31,-0.4c0.04,-0.24 2.95,-24.12 -3.43,-37.59c-8.05,6.44 -7.33,15.68 -7.33,15.78c0.02,0.19 -0.12,0.37 -0.32,0.38c-0.21,0.02 -0.37,-0.12 -0.38,-0.32c-0.01,-0.1 -0.78,-9.99 7.94,-16.67l0.34,-0.26l0.19,0.38c6.74,13.58 3.73,38.14 3.7,38.39c-0.02,0.18 -0.17,0.31 -0.35,0.31z" fill="#4A6173" id="svg_293"/>
      </g>
      <g id="svg_294">
       <path d="m284.96,83.22c-0.03,0 -0.06,-0.01 -0.09,-0.01c-0.19,-0.05 -0.31,-0.24 -0.26,-0.43c2.98,-11.97 9.85,-19.92 20.73,-29.61l0.4,-0.36l0.17,0.5c2.17,6.09 0.1,13.61 0.01,13.92c-0.05,0.19 -0.25,0.31 -0.44,0.25c-0.19,-0.05 -0.3,-0.25 -0.24,-0.44c0.02,-0.07 1.98,-7.19 0.17,-12.98c-10.54,9.43 -17.21,17.25 -20.11,28.89c-0.04,0.16 -0.18,0.27 -0.34,0.27z" fill="#4A6173" id="svg_295"/>
      </g>
      <g id="svg_296">
       <path d="m296.43,62.7c-0.04,0 -0.07,-0.01 -0.1,-0.02c-0.19,-0.05 -0.3,-0.25 -0.24,-0.44c0.02,-0.08 2.3,-8.05 -3.43,-15.22c-7.66,4.61 -8.17,12.75 -8.17,12.83c-0.01,0.19 -0.14,0.35 -0.37,0.34c-0.2,-0.01 -0.35,-0.18 -0.34,-0.38c0,-0.08 0.53,-8.78 8.79,-13.57l0.26,-0.15l0.19,0.24c6.22,7.53 3.77,16.03 3.75,16.11c-0.05,0.16 -0.19,0.26 -0.34,0.26z" fill="#4A6173" id="svg_297"/>
      </g>
      <g id="svg_298">
       <path d="m281.69,97.69c0,0 -7.53,-2.86 -9.5,-7.84c-1.98,-4.98 5.37,-2.85 7.43,0c1.58,-6.09 7.08,-5.46 5.64,0.24c7.33,-1.98 10.26,1.02 7.41,3.87c-2.85,2.85 -10.98,3.73 -10.98,3.73z" fill="#4A6173" id="svg_299"/>
      </g>
     </g>
     <g id="svg_300">
      <path d="m279.83,92.25l-0.4,-0.47c-6.39,-7.45 -9.03,-19.17 -9.06,-19.28c-0.02,-0.14 0.06,-0.27 0.19,-0.3c0.14,-0.03 0.27,0.06 0.3,0.19c0.03,0.11 2.52,11.13 8.48,18.5c-0.36,-3.27 -3.37,-12.65 -4.44,-14.49c-0.07,-0.12 -0.03,-0.27 0.09,-0.34c0.12,-0.07 0.27,-0.03 0.34,0.09c1.19,2.03 4.7,13.15 4.54,15.49l-0.04,0.61z" fill="#4A6173" id="svg_301"/>
     </g>
     <g id="svg_302">
      <path d="m284.46,92.18l0.27,-0.65c3.41,-8.55 10.35,-13.09 10.42,-13.13c0.11,-0.07 0.27,-0.04 0.35,0.07c0.07,0.12 0.04,0.28 -0.08,0.35c-0.07,0.04 -6.51,4.26 -9.95,12.22c6.38,-3.74 14.27,-10.64 17.51,-17.04c0.06,-0.13 0.21,-0.17 0.34,-0.11c0.12,0.06 0.17,0.21 0.11,0.33c-3.55,7.02 -12,14.05 -18.35,17.62l-0.62,0.34z" fill="#4A6173" id="svg_303"/>
     </g>
     <g id="svg_304">
      <path d="m277.66,75.59c-0.1,0 -0.2,-0.06 -0.24,-0.16c-0.94,-2.56 -1.86,-7.03 -0.92,-13.84c0.02,-0.17 0.03,-0.28 0.04,-0.32c0,-0.13 0.14,-0.23 0.25,-0.24c0.14,0 0.25,0.11 0.25,0.25c0,0.04 -0.02,0.17 -0.05,0.38c-0.92,6.7 -0.02,11.09 0.9,13.6c0.05,0.13 -0.02,0.27 -0.15,0.32c-0.03,0.01 -0.05,0.01 -0.08,0.01z" fill="#4A6173" id="svg_305"/>
     </g>
     <g id="svg_306">
      <path d="m282.8,88.86c-0.01,0 -0.02,0 -0.03,0c-0.14,-0.02 -0.24,-0.14 -0.22,-0.28c0.91,-8.27 -2.64,-23.55 -2.67,-23.7c-0.04,-0.14 0.05,-0.27 0.18,-0.3c0.14,-0.04 0.27,0.05 0.3,0.18c0.04,0.16 3.61,15.52 2.69,23.88c-0.02,0.13 -0.13,0.22 -0.25,0.22z" fill="#4A6173" id="svg_307"/>
     </g>
     <g id="svg_308">
      <path d="m288.44,81.35c-0.04,0 -0.08,-0.01 -0.12,-0.03c-0.12,-0.06 -0.17,-0.22 -0.11,-0.34c0.05,-0.09 4.78,-9.17 11.39,-16.33c0.09,-0.1 0.25,-0.11 0.35,-0.01c0.11,0.09 0.11,0.25 0.02,0.35c-6.57,7.11 -11.27,16.13 -11.31,16.22c-0.05,0.09 -0.14,0.14 -0.22,0.14z" fill="#4A6173" id="svg_309"/>
     </g>
     <g id="svg_310">
      <path d="m285.71,80.43c0,0 -0.01,0 -0.02,0c-0.13,-0.01 -0.24,-0.13 -0.23,-0.27c0.59,-8.03 4.55,-23.94 4.87,-24.36c0.08,-0.11 0.24,-0.14 0.35,-0.06c0.1,0.08 0.13,0.22 0.06,0.33c-0.29,0.64 -4.19,16.09 -4.78,24.13c-0.01,0.13 -0.12,0.23 -0.25,0.23z" fill="#4A6173" id="svg_311"/>
     </g>
    </g>
    <g id="svg_312">
     <g id="svg_313">
      <g id="svg_314">
       <path d="m225.25,95.78c-4.98,0 -12.15,-0.83 -19.12,-4.6c-12.4,-6.7 -15.61,-12.02 -15.74,-12.24l-0.37,-0.65l0.74,0.12c1.26,0.2 31.03,5.04 41.19,16.26l0.42,0.46l-0.61,0.13c-0.06,0.01 -2.61,0.52 -6.51,0.52zm-33.76,-16.52c1.27,1.63 5.31,6.07 14.97,11.29c10.64,5.75 21.76,4.54 24.51,4.12c-9.42,-9.68 -34.55,-14.54 -39.48,-15.41z" fill="#4A6173" id="svg_315"/>
      </g>
      <g id="svg_316">
       <path d="m231.81,95.58l-0.39,-0.43c-8.7,-9.75 -9.94,-30.91 -2.56,-43.56l0.34,-0.58l0.29,0.61c0.1,0.23 10.53,22.86 2.53,43.42l-0.21,0.54zm-2.68,-43.02c-6.75,12.29 -5.6,32.1 2.44,41.67c6.77,-18.2 -0.85,-37.89 -2.44,-41.67z" fill="#4A6173" id="svg_317"/>
      </g>
      <g id="svg_318">
       <path d="m227.27,87.93c-0.1,0 -0.2,-0.05 -0.27,-0.13c-0.16,-0.18 -15.97,-18.32 -30.25,-22.57c-0.59,10.27 6.76,15.93 6.83,15.99c0.16,0.12 0.19,0.34 0.07,0.5c-0.11,0.16 -0.34,0.19 -0.49,0.07c-0.08,-0.06 -7.95,-6.1 -7.09,-17.05l0.03,-0.43l0.42,0.11c14.6,4.08 30.85,22.73 31.02,22.92c0.12,0.15 0.11,0.37 -0.04,0.5c-0.07,0.06 -0.15,0.09 -0.23,0.09z" fill="#4A6173" id="svg_319"/>
      </g>
      <g id="svg_320">
       <path d="m224.21,84.63c-0.12,0 -0.23,-0.06 -0.3,-0.16c-6.91,-10.22 -8.22,-20.65 -8.15,-35.21l0,-0.53l0.49,0.2c5.98,2.45 10.18,9.02 10.36,9.3c0.1,0.17 0.05,0.39 -0.11,0.49c-0.17,0.11 -0.39,0.06 -0.49,-0.11c-0.04,-0.06 -4.03,-6.28 -9.54,-8.81c-0.03,14.15 1.31,24.33 8.03,34.27c0.11,0.16 0.07,0.38 -0.09,0.49c-0.07,0.05 -0.13,0.07 -0.2,0.07z" fill="#4A6173" id="svg_321"/>
      </g>
      <g id="svg_322">
       <path d="m206.53,69.84c-0.09,0 -0.18,-0.04 -0.25,-0.11c-0.06,-0.06 -6.17,-6.27 -4.21,-15.6l0.06,-0.3l0.3,0.01c9.76,0.42 14.45,7.92 14.49,7.99c0.11,0.17 0.05,0.39 -0.11,0.49c-0.17,0.1 -0.39,0.05 -0.49,-0.11c-0.05,-0.08 -4.45,-7.1 -13.61,-7.64c-1.69,8.78 4.01,14.6 4.07,14.66c0.14,0.14 0.14,0.36 0,0.5c-0.07,0.07 -0.16,0.11 -0.25,0.11z" fill="#4A6173" id="svg_323"/>
      </g>
      <g id="svg_324">
       <path d="m233.05,96.61c0,0 -7.16,3.69 -12.19,1.83c-5.02,-1.86 1.48,-5.9 4.97,-5.53c-3.47,-5.25 0.68,-8.92 3.95,-4.03c3.43,-6.78 7.62,-6.94 7.84,-2.92c0.21,4.02 -4.57,10.65 -4.57,10.65z" fill="#4A6173" id="svg_325"/>
      </g>
     </g>
     <g id="svg_326">
      <path d="m227.75,94.36l-0.61,-0.02c-9.81,-0.23 -20.29,-6.1 -20.39,-6.16c-0.12,-0.07 -0.16,-0.22 -0.1,-0.34c0.07,-0.12 0.22,-0.16 0.35,-0.09c0.1,0.05 9.96,5.57 19.42,6.07c-2.67,-1.93 -11.66,-5.96 -13.74,-6.39c-0.13,-0.03 -0.22,-0.16 -0.19,-0.3c0.03,-0.13 0.16,-0.22 0.29,-0.19c2.3,0.47 12.92,5.3 14.55,6.98l0.42,0.44z" fill="#4A6173" id="svg_327"/>
     </g>
     <g id="svg_328">
      <path d="m230.81,90.87l-0.31,-0.63c-4.08,-8.26 -2.81,-16.45 -2.79,-16.53c0.02,-0.14 0.15,-0.24 0.28,-0.21c0.14,0.02 0.23,0.15 0.21,0.29c-0.01,0.08 -1.19,7.69 2.43,15.57c1.49,-7.25 1.63,-17.73 -0.96,-24.42c-0.05,-0.13 0.01,-0.27 0.14,-0.32c0.13,-0.05 0.28,0.01 0.32,0.14c2.85,7.33 2.43,18.32 0.84,25.42l-0.16,0.69z" fill="#4A6173" id="svg_329"/>
     </g>
     <g id="svg_330">
      <path d="m213.74,84.92c-0.03,0 -0.07,0 -0.1,-0.02c-2.52,-1.01 -6.47,-3.31 -10.91,-8.56c-0.11,-0.13 -0.18,-0.21 -0.21,-0.24c-0.09,-0.1 -0.1,-0.25 -0.01,-0.35c0.1,-0.1 0.25,-0.11 0.35,-0.02c0.03,0.02 0.12,0.13 0.26,0.29c4.37,5.16 8.24,7.43 10.71,8.42c0.13,0.05 0.19,0.2 0.14,0.32c-0.04,0.1 -0.13,0.16 -0.23,0.16z" fill="#4A6173" id="svg_331"/>
     </g>
     <g id="svg_332">
      <path d="m227.04,89.97c-0.07,0 -0.14,-0.03 -0.19,-0.09c-5.54,-6.21 -19.28,-13.78 -19.41,-13.86c-0.13,-0.06 -0.17,-0.22 -0.1,-0.34c0.06,-0.12 0.22,-0.16 0.34,-0.1c0.14,0.08 13.94,7.69 19.54,13.97c0.1,0.1 0.09,0.26 -0.02,0.35c-0.04,0.05 -0.1,0.07 -0.16,0.07z" fill="#4A6173" id="svg_333"/>
     </g>
     <g id="svg_334">
      <path d="m225.22,80.75c-0.1,0 -0.2,-0.06 -0.23,-0.16c-0.04,-0.09 -3.63,-9.69 -4.53,-19.39c-0.02,-0.13 0.08,-0.26 0.22,-0.27c0.14,0 0.26,0.09 0.27,0.23c0.9,9.63 4.47,19.16 4.5,19.25c0.05,0.13 -0.01,0.28 -0.14,0.33c-0.03,0.01 -0.06,0.01 -0.09,0.01z" fill="#4A6173" id="svg_335"/>
     </g>
     <g id="svg_336">
      <path d="m222.72,82.16c-0.07,0 -0.13,-0.02 -0.18,-0.07c-5.57,-5.81 -14.76,-19.39 -14.87,-19.91c-0.03,-0.14 0.06,-0.27 0.19,-0.3c0.13,-0.02 0.26,0.05 0.29,0.18c0.29,0.64 9.17,13.87 14.75,19.68c0.09,0.1 0.09,0.26 -0.01,0.35c-0.05,0.05 -0.11,0.07 -0.17,0.07z" fill="#4A6173" id="svg_337"/>
     </g>
    </g>
    <g id="svg_338">
     <g id="svg_339">
      <path d="m225.59,192.38l-0.12,-0.66c-0.03,-0.2 -3.4,-19.46 -6.19,-28c-1.9,-5.8 -0.41,-14.12 2.73,-15.34c1.51,-0.59 3.95,0.09 6.93,6.66c7.09,15.6 -2.73,36.74 -2.87,36.87l-0.48,0.47zm-2.69,-43.46c-0.22,0 -0.43,0.04 -0.63,0.12c-2.8,1.09 -4.08,9.06 -2.31,14.46c2.41,7.39 5.25,22.72 6.02,26.98c1.82,-4.26 8.45,-21.65 2.31,-35.15c-1.89,-4.18 -3.79,-6.41 -5.39,-6.41z" fill="#4A6173" id="svg_340"/>
     </g>
     <g id="svg_341">
      <path d="m225.82,191.85c-0.01,0 -0.03,0 -0.04,0c-0.11,-0.03 -0.17,-0.14 -0.14,-0.24c3.65,-14.16 -2.89,-40.77 -2.96,-41.03c-0.03,-0.11 0.04,-0.21 0.14,-0.24c0.1,-0.03 0.21,0.04 0.24,0.14c0.06,0.27 6.63,26.97 2.95,41.23c-0.02,0.08 -0.1,0.14 -0.19,0.14z" fill="#4A6173" id="svg_342"/>
     </g>
    </g>
    <g id="svg_343">
     <g id="svg_344">
      <path d="m240.7,162.26l-0.38,-0.55c-0.11,-0.17 -11.2,-16.27 -17.3,-22.88c-4.14,-4.48 -6.25,-12.66 -3.9,-15.08c1.13,-1.17 3.62,-1.56 9.07,3.17c12.93,11.21 12.82,34.54 12.75,34.71l-0.24,0.63zm-19.67,-38.56c-0.58,0 -1.05,0.18 -1.4,0.54c-2.09,2.16 0.07,9.94 3.92,14.11c5.28,5.71 14.24,18.46 16.71,22.02c-0.11,-4.63 -1.34,-23.2 -12.53,-32.92c-2.86,-2.47 -5.16,-3.75 -6.7,-3.75z" fill="#4A6173" id="svg_345"/>
     </g>
     <g id="svg_346">
      <path d="m240.61,161.7c-0.09,0 -0.17,-0.07 -0.19,-0.16c-2.58,-14.39 -19.61,-35.86 -19.78,-36.07c-0.07,-0.09 -0.06,-0.21 0.03,-0.28c0.08,-0.06 0.21,-0.05 0.27,0.03c0.17,0.22 17.27,21.76 19.86,36.25c0.02,0.11 -0.05,0.21 -0.15,0.23c-0.01,0 -0.03,0 -0.04,0z" fill="#4A6173" id="svg_347"/>
     </g>
    </g>
    <g id="svg_348">
     <g id="svg_349">
      <path d="m229.44,188.44l0.21,-0.64c0.06,-0.18 14.9,-18.16 32.03,-18.5c7.21,-0.13 8.87,1.76 9,3.38c0.25,3.37 -6.61,8.29 -12.67,9.08c-8.91,1.17 -27.74,6.44 -27.93,6.5l-0.64,0.18zm32.98,-18.44c-0.24,0 -0.48,0.01 -0.73,0.01c-14.82,0.29 -27.66,13.77 -30.71,17.26c4.18,-1.15 19.23,-5.21 26.94,-6.22c5.63,-0.73 12.27,-5.32 12.05,-8.32c-0.14,-1.77 -2.81,-2.73 -7.55,-2.73z" fill="#4A6173" id="svg_350"/>
     </g>
     <g id="svg_351">
      <path d="m229.99,188.11c-0.06,0 -0.11,-0.03 -0.15,-0.07c-0.07,-0.08 -0.06,-0.21 0.02,-0.28c11.27,-9.46 38.2,-15.06 38.47,-15.12c0.1,-0.02 0.21,0.05 0.23,0.15c0.02,0.11 -0.05,0.21 -0.16,0.23c-0.27,0.06 -27.09,5.64 -38.29,15.04c-0.04,0.03 -0.08,0.05 -0.12,0.05z" fill="#4A6173" id="svg_352"/>
     </g>
    </g>
    <g id="svg_353">
     <g id="svg_354">
      <path d="m252.34,160.6l0.21,-0.63c0.06,-0.19 14.91,-18.17 32.03,-18.51c7.22,-0.13 8.87,1.76 9,3.38c0.25,3.37 -6.62,8.29 -12.67,9.09c-8.91,1.16 -27.74,6.44 -27.93,6.49l-0.64,0.18zm32.98,-18.43c-0.23,0 -0.48,0 -0.73,0c-14.82,0.3 -27.65,13.78 -30.7,17.26c4.17,-1.15 19.22,-5.2 26.93,-6.21c5.63,-0.74 12.27,-5.33 12.05,-8.33c-0.14,-1.76 -2.81,-2.72 -7.55,-2.72z" fill="#4A6173" id="svg_355"/>
     </g>
     <g id="svg_356">
      <path d="m252.89,160.27c-0.06,0 -0.11,-0.02 -0.15,-0.07c-0.07,-0.08 -0.06,-0.2 0.02,-0.27c11.27,-9.47 38.2,-15.07 38.47,-15.12c0.1,-0.03 0.21,0.04 0.23,0.15c0.02,0.1 -0.05,0.2 -0.16,0.23c-0.27,0.05 -27.09,5.63 -38.29,15.03c-0.04,0.04 -0.08,0.05 -0.12,0.05z" fill="#4A6173" id="svg_357"/>
     </g>
    </g>
    <g id="svg_358">
     <g id="svg_359">
      <path d="m266.96,136.87l0.04,-0.67c0.01,-0.19 9.74,-21.39 26.19,-26.12c6.94,-2 9.03,-0.59 9.57,0.94c1.11,3.19 -4.26,9.72 -9.9,12.04c-8.31,3.42 -25.15,13.36 -25.32,13.46l-0.58,0.35zm31.94,-27.07c-1.42,0 -3.28,0.32 -5.51,0.96c-14.25,4.1 -23.18,20.43 -25.23,24.58c3.74,-2.18 17.23,-9.98 24.43,-12.94c5.25,-2.16 10.48,-8.3 9.49,-11.14c-0.33,-0.98 -1.43,-1.46 -3.18,-1.46z" fill="#4A6173" id="svg_360"/>
     </g>
     <g id="svg_361">
      <path d="m267.36,136.41c-0.04,0 -0.08,-0.01 -0.11,-0.03c-0.09,-0.07 -0.11,-0.19 -0.05,-0.27c8.46,-12.05 33.03,-24.39 33.28,-24.52c0.1,-0.04 0.21,0 0.26,0.09c0.05,0.1 0.01,0.21 -0.09,0.26c-0.24,0.13 -24.73,12.42 -33.13,24.39c-0.04,0.05 -0.1,0.08 -0.16,0.08z" fill="#4A6173" id="svg_362"/>
     </g>
    </g>
    <g id="svg_363">
     <g id="svg_364">
      <path d="m240.85,125.42l-0.37,-0.56c-0.11,-0.16 -5.07,-22.93 5.27,-36.61c4.35,-5.76 6.87,-5.89 8.21,-4.98c2.81,1.88 2.43,10.32 -0.69,15.57c-4.59,7.72 -12.09,25.78 -12.17,25.96l-0.25,0.62zm11.72,-41.86c-1.55,0 -3.72,1.76 -6.26,5.12c-8.94,11.83 -6.28,30.25 -5.43,34.8c1.68,-3.99 7.81,-18.32 11.78,-25.01c2.9,-4.88 3.4,-12.93 0.91,-14.61c-0.3,-0.2 -0.63,-0.3 -1,-0.3z" fill="#4A6173" id="svg_365"/>
     </g>
     <g id="svg_366">
      <path d="m240.77,124.86c-0.1,0 -0.19,-0.08 -0.19,-0.19c-0.47,-14.71 11.78,-39.33 11.91,-39.58c0.04,-0.09 0.16,-0.13 0.26,-0.09c0.09,0.05 0.13,0.17 0.08,0.27c-0.12,0.24 -12.33,24.77 -11.86,39.39c0,0.11 -0.08,0.2 -0.19,0.2c0,0 0,0 -0.01,0z" fill="#4A6173" id="svg_367"/>
     </g>
    </g>
    <g id="svg_368">
     <g id="svg_369">
      <path d="m269.42,131.75l-0.11,-0.66c-0.03,-0.19 -3.31,-19.47 -6.07,-28.02c-1.87,-5.81 -0.35,-14.12 2.81,-15.34c1.51,-0.58 3.94,0.11 6.89,6.7c7.02,15.62 -2.9,36.73 -3.03,36.86l-0.49,0.46zm-2.5,-43.47c-0.21,0 -0.42,0.04 -0.62,0.12c-2.81,1.08 -4.12,9.04 -2.38,14.45c2.38,7.4 5.15,22.74 5.9,27c1.84,-4.24 8.54,-21.61 2.47,-35.13c-1.88,-4.2 -3.76,-6.44 -5.37,-6.44z" fill="#4A6173" id="svg_370"/>
     </g>
     <g id="svg_371">
      <path d="m269.66,131.23c-0.02,0 -0.03,-0.01 -0.05,-0.01c-0.1,-0.03 -0.17,-0.13 -0.14,-0.24c3.72,-14.14 -2.71,-40.78 -2.77,-41.04c-0.02,-0.11 0.04,-0.21 0.14,-0.24c0.11,-0.03 0.21,0.04 0.24,0.14c0.06,0.27 6.51,27.01 2.77,41.24c-0.03,0.09 -0.1,0.15 -0.19,0.15z" fill="#4A6173" id="svg_372"/>
     </g>
    </g>
    <g id="svg_373">
     <g id="svg_374">
      <path d="m255.47,155.67l-0.11,-0.66c-0.03,-0.2 -3.31,-19.47 -6.07,-28.03c-1.87,-5.81 -0.35,-14.12 2.81,-15.33c1.51,-0.58 3.94,0.11 6.9,6.69c7.01,15.63 -2.9,36.74 -3.04,36.87l-0.49,0.46zm-2.5,-43.47c-0.21,0 -0.42,0.04 -0.62,0.12c-2.81,1.07 -4.12,9.04 -2.38,14.45c2.38,7.4 5.15,22.74 5.9,27c1.84,-4.25 8.54,-21.61 2.47,-35.13c-1.88,-4.2 -3.76,-6.44 -5.37,-6.44z" fill="#4A6173" id="svg_375"/>
     </g>
     <g id="svg_376">
      <path d="m255.71,155.15c-0.02,0 -0.03,-0.01 -0.05,-0.01c-0.1,-0.03 -0.17,-0.14 -0.14,-0.24c3.72,-14.14 -2.7,-40.78 -2.77,-41.05c-0.03,-0.1 0.04,-0.21 0.14,-0.23c0.11,-0.03 0.21,0.04 0.24,0.14c0.06,0.27 6.51,27.01 2.77,41.24c-0.02,0.09 -0.1,0.15 -0.19,0.15z" fill="#4A6173" id="svg_377"/>
     </g>
    </g>
   </g>
   <g id="svg_378">
    <g id="svg_379">
     <path d="m242.16,152.89c-0.19,0 -0.35,-0.15 -0.35,-0.34c-0.02,-0.39 -1.9,-38.82 -32.38,-40.35c-0.19,-0.01 -0.34,-0.18 -0.33,-0.37c0.01,-0.2 0.18,-0.35 0.37,-0.34c31.13,1.57 33.03,40.64 33.05,41.03c0.01,0.2 -0.15,0.36 -0.34,0.37c-0.01,0 -0.01,0 -0.02,0z" fill="#4A6173" id="svg_380"/>
    </g>
    <g id="svg_381">
     <path d="m211.19,112.1c0,1.45 -1.17,2.62 -2.62,2.62c-1.45,0 -2.62,-1.17 -2.62,-2.62s1.17,-2.62 2.62,-2.62c1.45,0 2.62,1.17 2.62,2.62z" fill="#4A6173" id="svg_382"/>
    </g>
   </g>
   <g id="svg_383">
    <g id="svg_384">
     <path d="m224.88,192.88c-0.19,0 -0.35,-0.15 -0.35,-0.34c-0.48,-14.46 -8.03,-26.33 -19.71,-30.98c-0.18,-0.08 -0.27,-0.28 -0.19,-0.47c0.07,-0.18 0.28,-0.27 0.46,-0.19c11.94,4.75 19.66,16.87 20.15,31.62c0,0.19 -0.15,0.36 -0.35,0.36c0,0 -0.01,0 -0.01,0z" fill="#4A6173" id="svg_385"/>
    </g>
    <g id="svg_386">
     <path d="m206.52,162.03c-0.47,1.37 -1.95,2.1 -3.33,1.64c-1.37,-0.47 -2.1,-1.96 -1.63,-3.33c0.47,-1.37 1.95,-2.1 3.33,-1.64c1.37,0.47 2.1,1.96 1.63,3.33z" fill="#4A6173" id="svg_387"/>
    </g>
   </g>
   <g id="svg_388">
    <g id="svg_389">
     <path d="m234.26,184.28c-0.07,0 -0.13,-0.02 -0.19,-0.06c-0.17,-0.1 -0.22,-0.32 -0.11,-0.49c0.21,-0.33 21.63,-33.06 49.27,-18.66c0.18,0.1 0.24,0.31 0.15,0.48c-0.09,0.18 -0.31,0.24 -0.48,0.16c-27.07,-14.11 -48.13,18.08 -48.34,18.41c-0.07,0.1 -0.18,0.16 -0.3,0.16z" fill="#4A6173" id="svg_390"/>
    </g>
    <g id="svg_391">
     <path d="m281.43,164.73c-0.73,1.25 -0.31,2.85 0.94,3.59c1.25,0.73 2.85,0.31 3.59,-0.94c0.73,-1.25 0.31,-2.85 -0.94,-3.58c-1.25,-0.74 -2.85,-0.32 -3.59,0.93z" fill="#4A6173" id="svg_392"/>
    </g>
   </g>
   <g id="svg_393">
    <g id="svg_394">
     <path d="m255.04,157.62c-0.06,0 -0.13,-0.02 -0.19,-0.06c-0.16,-0.11 -0.21,-0.33 -0.11,-0.49c0.22,-0.33 21.64,-33.07 49.28,-18.66c0.17,0.09 0.24,0.31 0.15,0.48c-0.09,0.17 -0.31,0.24 -0.48,0.15c-27.08,-14.11 -48.14,18.08 -48.35,18.41c-0.06,0.11 -0.18,0.17 -0.3,0.17z" fill="#4A6173" id="svg_395"/>
    </g>
    <g id="svg_396">
     <path d="m302.22,138.06c-0.73,1.25 -0.32,2.86 0.93,3.59c1.25,0.73 2.86,0.32 3.59,-0.93c0.73,-1.25 0.32,-2.86 -0.93,-3.59c-1.25,-0.73 -2.86,-0.32 -3.59,0.93z" fill="#4A6173" id="svg_397"/>
    </g>
   </g>
   <g id="svg_398">
    <g id="svg_399">
     <path d="m270.73,130.66c-0.03,0 -0.06,0 -0.1,-0.01c-0.19,-0.06 -0.29,-0.25 -0.24,-0.44c0.11,-0.38 11.4,-37.83 41.99,-31.83c0.19,0.04 0.31,0.22 0.28,0.42c-0.04,0.19 -0.22,0.31 -0.42,0.28c-29.96,-5.88 -41.06,30.95 -41.17,31.33c-0.04,0.15 -0.18,0.25 -0.34,0.25z" fill="#4A6173" id="svg_400"/>
    </g>
    <g id="svg_401">
     <path d="m310.56,98.56c-0.36,1.4 0.5,2.82 1.91,3.17c1.4,0.35 2.82,-0.5 3.17,-1.91c0.35,-1.4 -0.5,-2.82 -1.91,-3.17c-1.4,-0.35 -2.83,0.5 -3.17,1.91z" fill="#4A6173" id="svg_402"/>
    </g>
   </g>
  </g>
 </g>
</svg>