<?xml version="1.0"?>
<svg width="500" height="500" xmlns="http://www.w3.org/2000/svg" xmlns:svg="http://www.w3.org/2000/svg" enable-background="new 0 0 500 500" version="1.1" xml:space="preserve">
 <g class="layer">
  <title>Layer 1</title>
  <g id="svg_403" transform="translate(0 3.585) translate(-56.255 0) matrix(2.57767 0 0 2.57767 -744.806 -93.2169)">
   <g id="svg_404">
    <g id="svg_405">
     <path d="m380.48,223.31c-0.04,0 -0.07,0 -0.11,-0.01c-0.55,-0.06 -0.94,-0.55 -0.88,-1.1c0.04,-0.44 5.4,-44.38 65.14,-80.63c0.47,-0.29 1.09,-0.13 1.37,0.34c0.29,0.47 0.14,1.08 -0.34,1.37c-58.89,35.74 -64.14,78.71 -64.19,79.14c-0.05,0.51 -0.48,0.89 -0.99,0.89z" fill="#4A6173" id="svg_406"/>
    </g>
    <g id="svg_407">
     <path d="m385.43,206.89c-0.11,0 -0.23,-0.02 -0.34,-0.06c-0.52,-0.19 -0.78,-0.76 -0.59,-1.28c29.13,-79.46 -4.57,-146.02 -4.91,-146.68c-0.25,-0.49 -0.06,-1.09 0.43,-1.35c0.49,-0.25 1.09,-0.06 1.35,0.43c0.08,0.17 8.77,17.11 13.68,43.72c4.53,24.55 6.7,62.62 -8.68,104.57c-0.15,0.4 -0.53,0.65 -0.94,0.65z" fill="#4A6173" id="svg_408"/>
    </g>
    <g id="svg_409">
     <path d="m393.68,177.59c-0.27,0 -0.54,-0.11 -0.74,-0.32c-29.09,-31.42 -33.13,-85.15 -33.13,-85.65c0,-0.55 0.45,-1 1,-1c0.55,0 1,0.44 1,1l0,0c0.01,0.49 3.89,53.29 32.6,84.29c0.38,0.41 0.35,1.04 -0.05,1.42c-0.19,0.17 -0.44,0.26 -0.68,0.26zm-31.87,-85.97l0.01,0l-0.01,0z" fill="#4A6173" id="svg_410"/>
    </g>
    <g id="svg_411">
     <path d="m397.43,149.56c-0.23,0 -0.46,-0.07 -0.65,-0.23c-0.42,-0.36 -0.47,-0.99 -0.12,-1.41c0.37,-0.44 37.13,-44.4 36.15,-78.41c-0.01,-0.55 0.42,-1.01 0.97,-1.03c0.54,-0.02 1.02,0.42 1.03,0.97c1,34.78 -35.08,77.94 -36.62,79.76c-0.2,0.23 -0.48,0.35 -0.76,0.35z" fill="#4A6173" id="svg_412"/>
    </g>
   </g>
   <g id="svg_413">
    <g id="svg_414">
     <path d="m409.22,119.38c0,0.78 -0.64,1.42 -1.42,1.42c-0.79,0 -1.43,-0.64 -1.43,-1.42c0,-0.79 0.64,-1.43 1.43,-1.43c0.78,0 1.42,0.64 1.42,1.43z" fill="#4A6173" id="svg_415"/>
    </g>
    <g id="svg_416">
     <path d="m413.09,119.88c0,0.51 -0.41,0.92 -0.92,0.92c-0.51,0 -0.92,-0.41 -0.92,-0.92c0,-0.51 0.41,-0.93 0.92,-0.93c0.51,0 0.92,0.42 0.92,0.93z" fill="#4A6173" id="svg_417"/>
    </g>
    <g id="svg_418">
     <circle cx="410.31" cy="123.39" fill="#4A6173" id="svg_419" r="1.63"/>
    </g>
    <g id="svg_420">
     <path d="m407.8,124.23c0,0.94 -0.77,1.71 -1.72,1.71c-0.94,0 -1.71,-0.77 -1.71,-1.71c0,-0.95 0.77,-1.71 1.71,-1.71c0.95,0 1.72,0.76 1.72,1.71z" fill="#4A6173" id="svg_421"/>
    </g>
    <g id="svg_422">
     <circle cx="409.66" cy="128.69" fill="#4A6173" id="svg_423" r="1.86"/>
    </g>
    <g id="svg_424">
     <path d="m415.27,125.94c0,1.06 -0.86,1.92 -1.93,1.92c-1.06,0 -1.92,-0.86 -1.92,-1.92c0,-1.06 0.86,-1.93 1.92,-1.93c1.07,0 1.93,0.87 1.93,1.93z" fill="#4A6173" id="svg_425"/>
    </g>
    <g id="svg_426">
     <circle cx="414.75" cy="121.48" fill="#4A6173" id="svg_427" r="1.66"/>
    </g>
    <g id="svg_428">
     <path d="m417.19,117.3c0,0.91 -0.75,1.65 -1.66,1.65s-1.65,-0.74 -1.65,-1.65c0,-0.92 0.74,-1.66 1.65,-1.66s1.66,0.74 1.66,1.66z" fill="#4A6173" id="svg_429"/>
    </g>
    <g id="svg_430">
     <path d="m421,123.11c0,1.05 -0.85,1.91 -1.91,1.91s-1.9,-0.86 -1.9,-1.91c0,-1.05 0.85,-1.91 1.9,-1.91s1.91,0.86 1.91,1.91z" fill="#4A6173" id="svg_431"/>
    </g>
    <g id="svg_432">
     <circle cx="417.02" cy="126.88" fill="#4A6173" id="svg_433" r="1.49"/>
    </g>
    <g id="svg_434">
     <path d="m415.98,130.71c0,0.79 -0.65,1.44 -1.45,1.44s-1.44,-0.64 -1.44,-1.44c0,-0.8 0.65,-1.44 1.44,-1.44s1.45,0.64 1.45,1.44z" fill="#4A6173" id="svg_435"/>
    </g>
    <g id="svg_436">
     <path d="m412.81,116.91c0,0.87 -0.7,1.57 -1.57,1.57c-0.87,0 -1.58,-0.7 -1.58,-1.57s0.71,-1.58 1.58,-1.58c0.87,0 1.57,0.7 1.57,1.58z" fill="#4A6173" id="svg_437"/>
    </g>
    <g id="svg_438">
     <path d="m422.96,119.61c0,0.92 -0.74,1.66 -1.66,1.66c-0.91,0 -1.65,-0.74 -1.65,-1.66c0,-0.91 0.74,-1.66 1.65,-1.66c0.92,0 1.66,0.75 1.66,1.66z" fill="#4A6173" id="svg_439"/>
    </g>
    <g id="svg_440">
     <circle cx="418.89" cy="130.59" fill="#4A6173" id="svg_441" r="1.33"/>
    </g>
    <g id="svg_442">
     <path d="m422.75,127.59c0,0.92 -0.74,1.66 -1.66,1.66s-1.65,-0.74 -1.65,-1.66s0.74,-1.65 1.65,-1.65s1.66,0.74 1.66,1.65z" fill="#4A6173" id="svg_443"/>
    </g>
    <g id="svg_444">
     <path d="m406.76,128.12c0,0.76 -0.61,1.38 -1.38,1.38s-1.38,-0.62 -1.38,-1.38c0,-0.76 0.62,-1.38 1.38,-1.38s1.38,0.62 1.38,1.38z" fill="#4A6173" id="svg_445"/>
    </g>
    <g id="svg_446">
     <path d="m410.31,133.1c0,0.98 -0.79,1.78 -1.77,1.78c-0.98,0 -1.77,-0.8 -1.77,-1.78c0,-0.98 0.79,-1.77 1.77,-1.77c0.98,0 1.77,0.79 1.77,1.77z" fill="#4A6173" id="svg_447"/>
    </g>
    <g id="svg_448">
     <path d="m414.75,134.51c0,0.78 -0.63,1.41 -1.4,1.41c-0.78,0 -1.41,-0.63 -1.41,-1.41s0.63,-1.41 1.41,-1.41c0.77,0 1.4,0.63 1.4,1.41z" fill="#4A6173" id="svg_449"/>
    </g>
    <g id="svg_450">
     <path d="m419.35,133.51c0,0.76 -0.61,1.37 -1.36,1.37c-0.76,0 -1.37,-0.61 -1.37,-1.37c0,-0.75 0.61,-1.36 1.37,-1.36c0.75,0 1.36,0.61 1.36,1.36z" fill="#4A6173" id="svg_451"/>
    </g>
    <g id="svg_452">
     <path d="m421.48,116.25c0,0.72 -0.58,1.3 -1.29,1.3c-0.72,0 -1.3,-0.58 -1.3,-1.3c0,-0.71 0.58,-1.3 1.3,-1.3c0.71,0 1.29,0.58 1.29,1.3z" fill="#4A6173" id="svg_453"/>
    </g>
    <g id="svg_454">
     <path d="m418.86,114.03c0,0.72 -0.58,1.3 -1.3,1.3c-0.71,0 -1.3,-0.58 -1.3,-1.3c0,-0.71 0.59,-1.29 1.3,-1.29c0.72,0 1.3,0.58 1.3,1.29z" fill="#4A6173" id="svg_455"/>
    </g>
    <g id="svg_456">
     <path d="m414.98,113.87c0,0.71 -0.58,1.29 -1.29,1.29c-0.72,0 -1.3,-0.58 -1.3,-1.29c0,-0.72 0.58,-1.3 1.3,-1.3c0.71,0 1.29,0.58 1.29,1.3z" fill="#4A6173" id="svg_457"/>
    </g>
    <g id="svg_458">
     <path d="m408.68,115.33c0,0.72 -0.58,1.3 -1.3,1.3c-0.71,0 -1.3,-0.58 -1.3,-1.3c0,-0.72 0.59,-1.3 1.3,-1.3c0.72,0 1.3,0.58 1.3,1.3z" fill="#4A6173" id="svg_459"/>
    </g>
    <g id="svg_460">
     <path d="m425.93,127.24c0,0.71 -0.58,1.29 -1.3,1.29c-0.71,0 -1.29,-0.58 -1.29,-1.29c0,-0.72 0.58,-1.3 1.29,-1.3c0.72,0 1.3,0.58 1.3,1.3z" fill="#4A6173" id="svg_461"/>
    </g>
    <g id="svg_462">
     <path d="m406.22,131.33c0,0.72 -0.58,1.3 -1.29,1.3c-0.72,0 -1.3,-0.58 -1.3,-1.3c0,-0.72 0.58,-1.3 1.3,-1.3c0.71,0 1.29,0.58 1.29,1.3z" fill="#4A6173" id="svg_463"/>
    </g>
    <g id="svg_464">
     <path d="m424.25,123.6c0,0.72 -0.58,1.3 -1.29,1.3c-0.72,0 -1.3,-0.58 -1.3,-1.3c0,-0.71 0.58,-1.29 1.3,-1.29c0.71,0 1.29,0.58 1.29,1.29z" fill="#4A6173" id="svg_465"/>
    </g>
    <g id="svg_466">
     <path d="m405.67,120.42c0,0.72 -0.58,1.3 -1.3,1.3c-0.71,0 -1.29,-0.58 -1.29,-1.3c0,-0.71 0.58,-1.29 1.29,-1.29c0.72,0 1.3,0.58 1.3,1.29z" fill="#4A6173" id="svg_467"/>
    </g>
    <g id="svg_468">
     <circle cx="422.04" cy="131.33" fill="#4A6173" id="svg_469" r="1.3"/>
    </g>
   </g>
   <g id="svg_470">
    <g id="svg_471">
     <path d="m429.9,53.54c0,0.79 -0.63,1.42 -1.42,1.42c-0.78,0 -1.42,-0.63 -1.42,-1.42c0,-0.78 0.64,-1.42 1.42,-1.42c0.79,0 1.42,0.64 1.42,1.42z" fill="#4A6173" id="svg_472"/>
    </g>
    <g id="svg_473">
     <path d="m433.78,54.04c0,0.51 -0.41,0.92 -0.92,0.92c-0.51,0 -0.92,-0.41 -0.92,-0.92c0,-0.51 0.41,-0.92 0.92,-0.92c0.51,0 0.92,0.41 0.92,0.92z" fill="#4A6173" id="svg_474"/>
    </g>
    <g id="svg_475">
     <circle cx="431" cy="57.56" fill="#4A6173" id="svg_476" r="1.63"/>
    </g>
    <g id="svg_477">
     <path d="m428.48,58.39c0,0.95 -0.76,1.71 -1.71,1.71c-0.94,0 -1.71,-0.76 -1.71,-1.71c0,-0.94 0.77,-1.71 1.71,-1.71c0.95,0 1.71,0.77 1.71,1.71z" fill="#4A6173" id="svg_478"/>
    </g>
    <g id="svg_479">
     <circle cx="430.35" cy="62.86" fill="#4A6173" id="svg_480" r="1.86"/>
    </g>
    <g id="svg_481">
     <circle cx="434.03" cy="60.1" fill="#4A6173" id="svg_482" r="1.93"/>
    </g>
    <g id="svg_483">
     <path d="m437.1,55.65c0,0.91 -0.74,1.66 -1.66,1.66c-0.92,0 -1.66,-0.75 -1.66,-1.66c0,-0.92 0.74,-1.66 1.66,-1.66c0.92,0 1.66,0.74 1.66,1.66z" fill="#4A6173" id="svg_484"/>
    </g>
    <g id="svg_485">
     <path d="m437.87,51.46c0,0.92 -0.74,1.66 -1.65,1.66s-1.66,-0.74 -1.66,-1.66c0,-0.91 0.74,-1.65 1.66,-1.65s1.65,0.74 1.65,1.65z" fill="#4A6173" id="svg_486"/>
    </g>
    <g id="svg_487">
     <path d="m441.69,57.28c0,1.05 -0.86,1.9 -1.91,1.9s-1.9,-0.85 -1.9,-1.9s0.85,-1.91 1.9,-1.91s1.91,0.85 1.91,1.91z" fill="#4A6173" id="svg_488"/>
    </g>
    <g id="svg_489">
     <circle cx="437.71" cy="61.05" fill="#4A6173" id="svg_490" r="1.49"/>
    </g>
    <g id="svg_491">
     <path d="m436.66,64.87c0,0.8 -0.64,1.45 -1.44,1.45c-0.79,0 -1.44,-0.65 -1.44,-1.45c0,-0.79 0.65,-1.44 1.44,-1.44c0.8,0 1.44,0.65 1.44,1.44z" fill="#4A6173" id="svg_492"/>
    </g>
    <g id="svg_493">
     <circle cx="431.92" cy="51.07" fill="#4A6173" id="svg_494" r="1.58"/>
    </g>
    <g id="svg_495">
     <path d="m443.64,53.78c0,0.91 -0.74,1.65 -1.65,1.65c-0.92,0 -1.66,-0.74 -1.66,-1.65c0,-0.92 0.74,-1.66 1.66,-1.66c0.91,0 1.65,0.74 1.65,1.66z" fill="#4A6173" id="svg_496"/>
    </g>
    <g id="svg_497">
     <path d="m440.9,64.76c0,0.73 -0.59,1.33 -1.32,1.33c-0.74,0 -1.33,-0.6 -1.33,-1.33s0.59,-1.33 1.33,-1.33c0.73,0 1.32,0.6 1.32,1.33z" fill="#4A6173" id="svg_498"/>
    </g>
    <g id="svg_499">
     <path d="m443.44,61.76c0,0.91 -0.75,1.66 -1.66,1.66s-1.65,-0.75 -1.65,-1.66c0,-0.92 0.74,-1.66 1.65,-1.66s1.66,0.75 1.66,1.66z" fill="#4A6173" id="svg_500"/>
    </g>
    <g id="svg_501">
     <circle cx="426.07" cy="62.28" fill="#4A6173" id="svg_502" r="1.38"/>
    </g>
    <g id="svg_503">
     <path d="m431,67.27c0,0.98 -0.79,1.77 -1.77,1.77c-0.98,0 -1.78,-0.79 -1.78,-1.77c0,-0.98 0.8,-1.77 1.78,-1.77c0.97,0 1.77,0.79 1.77,1.77z" fill="#4A6173" id="svg_504"/>
    </g>
    <g id="svg_505">
     <path d="m435.44,68.68c0,0.77 -0.63,1.4 -1.41,1.4c-0.77,0 -1.4,-0.63 -1.4,-1.4c0,-0.78 0.63,-1.41 1.4,-1.41c0.78,0 1.41,0.63 1.41,1.41z" fill="#4A6173" id="svg_506"/>
    </g>
    <g id="svg_507">
     <path d="m440.04,67.68c0,0.75 -0.61,1.36 -1.36,1.36c-0.76,0 -1.37,-0.61 -1.37,-1.36c0,-0.75 0.61,-1.36 1.37,-1.36c0.75,-0.01 1.36,0.61 1.36,1.36z" fill="#4A6173" id="svg_508"/>
    </g>
    <g id="svg_509">
     <path d="m442.17,50.42c0,0.71 -0.58,1.29 -1.3,1.29c-0.71,0 -1.29,-0.58 -1.29,-1.29c0,-0.72 0.58,-1.3 1.29,-1.3c0.72,0 1.3,0.58 1.3,1.3z" fill="#4A6173" id="svg_510"/>
    </g>
    <g id="svg_511">
     <path d="m439.55,48.2c0,0.71 -0.59,1.29 -1.3,1.29c-0.72,0 -1.3,-0.58 -1.3,-1.29c0,-0.72 0.58,-1.3 1.3,-1.3c0.71,0 1.3,0.58 1.3,1.3z" fill="#4A6173" id="svg_512"/>
    </g>
    <g id="svg_513">
     <path d="m435.67,48.03c0,0.72 -0.58,1.3 -1.3,1.3c-0.71,0 -1.29,-0.58 -1.29,-1.3c0,-0.72 0.58,-1.3 1.29,-1.3c0.72,0 1.3,0.58 1.3,1.3z" fill="#4A6173" id="svg_514"/>
    </g>
    <g id="svg_515">
     <circle cx="428.07" cy="49.49" fill="#4A6173" id="svg_516" r="1.3"/>
    </g>
    <g id="svg_517">
     <path d="m446.62,61.4c0,0.72 -0.58,1.3 -1.3,1.3c-0.71,0 -1.3,-0.58 -1.3,-1.3c0,-0.71 0.59,-1.3 1.3,-1.3c0.72,0 1.3,0.59 1.3,1.3z" fill="#4A6173" id="svg_518"/>
    </g>
    <g id="svg_519">
     <path d="m426.91,65.5c0,0.71 -0.58,1.29 -1.3,1.29c-0.71,0 -1.29,-0.58 -1.29,-1.29c0,-0.72 0.58,-1.3 1.29,-1.3c0.72,0 1.3,0.58 1.3,1.3z" fill="#4A6173" id="svg_520"/>
    </g>
    <g id="svg_521">
     <path d="m444.94,57.77c0,0.71 -0.58,1.29 -1.3,1.29c-0.71,0 -1.29,-0.58 -1.29,-1.29c0,-0.72 0.58,-1.3 1.29,-1.3c0.72,0 1.3,0.58 1.3,1.3z" fill="#4A6173" id="svg_522"/>
    </g>
    <g id="svg_523">
     <path d="m426.36,54.59c0,0.71 -0.58,1.3 -1.3,1.3c-0.72,0 -1.3,-0.59 -1.3,-1.3c0,-0.72 0.58,-1.3 1.3,-1.3c0.72,0 1.3,0.58 1.3,1.3z" fill="#4A6173" id="svg_524"/>
    </g>
    <g id="svg_525">
     <path d="m444.02,65.5c0,0.71 -0.58,1.29 -1.29,1.29c-0.72,0 -1.3,-0.58 -1.3,-1.29c0,-0.72 0.58,-1.3 1.3,-1.3c0.71,0 1.29,0.58 1.29,1.3z" fill="#4A6173" id="svg_526"/>
    </g>
   </g>
   <g id="svg_527">
    <g id="svg_528">
     <path d="m375.13,47.78c0,0.78 -0.64,1.42 -1.43,1.42c-0.78,0 -1.42,-0.64 -1.42,-1.42c0,-0.78 0.64,-1.42 1.42,-1.42c0.79,0 1.43,0.63 1.43,1.42z" fill="#4A6173" id="svg_529"/>
    </g>
    <g id="svg_530">
     <path d="m379,48.28c0,0.51 -0.41,0.92 -0.92,0.92c-0.51,0 -0.92,-0.41 -0.92,-0.92c0,-0.51 0.41,-0.92 0.92,-0.92c0.51,0 0.92,0.41 0.92,0.92z" fill="#4A6173" id="svg_531"/>
    </g>
    <g id="svg_532">
     <circle cx="376.22" cy="51.8" fill="#4A6173" id="svg_533" r="1.63"/>
    </g>
    <g id="svg_534">
     <path d="m373.7,52.63c0,0.95 -0.76,1.71 -1.71,1.71c-0.94,0 -1.71,-0.76 -1.71,-1.71c0,-0.94 0.77,-1.71 1.71,-1.71c0.95,0 1.71,0.77 1.71,1.71z" fill="#4A6173" id="svg_535"/>
    </g>
    <g id="svg_536">
     <circle cx="375.57" cy="57.1" fill="#4A6173" id="svg_537" r="1.86"/>
    </g>
    <g id="svg_538">
     <circle cx="379.25" cy="54.34" fill="#4A6173" id="svg_539" r="1.93"/>
    </g>
    <g id="svg_540">
     <circle cx="380.66" cy="49.89" fill="#4A6173" id="svg_541" r="1.66"/>
    </g>
    <g id="svg_542">
     <path d="m383.09,45.7c0,0.92 -0.74,1.66 -1.65,1.66s-1.66,-0.74 -1.66,-1.66c0,-0.91 0.74,-1.65 1.66,-1.65s1.65,0.74 1.65,1.65z" fill="#4A6173" id="svg_543"/>
    </g>
    <g id="svg_544">
     <path d="m386.91,51.51c0,1.06 -0.86,1.91 -1.91,1.91s-1.91,-0.85 -1.91,-1.91s0.86,-1.9 1.91,-1.9s1.91,0.85 1.91,1.9z" fill="#4A6173" id="svg_545"/>
    </g>
    <g id="svg_546">
     <circle cx="382.93" cy="55.29" fill="#4A6173" id="svg_547" r="1.49"/>
    </g>
    <g id="svg_548">
     <path d="m381.88,59.11c0,0.8 -0.64,1.44 -1.44,1.44s-1.44,-0.64 -1.44,-1.44s0.65,-1.44 1.44,-1.44s1.44,0.65 1.44,1.44z" fill="#4A6173" id="svg_549"/>
    </g>
    <g id="svg_550">
     <circle cx="377.14" cy="45.31" fill="#4A6173" id="svg_551" r="1.58"/>
    </g>
    <g id="svg_552">
     <path d="m388.87,48.01c0,0.92 -0.75,1.66 -1.66,1.66c-0.92,0 -1.66,-0.74 -1.66,-1.66c0,-0.91 0.75,-1.65 1.66,-1.65c0.91,0 1.66,0.74 1.66,1.65z" fill="#4A6173" id="svg_553"/>
    </g>
    <g id="svg_554">
     <path d="m386.13,59c0,0.73 -0.6,1.33 -1.33,1.33s-1.33,-0.6 -1.33,-1.33c0,-0.73 0.59,-1.33 1.33,-1.33s1.33,0.6 1.33,1.33z" fill="#4A6173" id="svg_555"/>
    </g>
    <g id="svg_556">
     <path d="m388.66,56c0,0.91 -0.75,1.66 -1.66,1.66s-1.66,-0.75 -1.66,-1.66c0,-0.92 0.74,-1.66 1.66,-1.66s1.66,0.74 1.66,1.66z" fill="#4A6173" id="svg_557"/>
    </g>
    <g id="svg_558">
     <circle cx="371.29" cy="56.52" fill="#4A6173" id="svg_559" r="1.38"/>
    </g>
    <g id="svg_560">
     <path d="m376.22,61.51c0,0.98 -0.79,1.77 -1.77,1.77c-0.98,0 -1.78,-0.79 -1.78,-1.77c0,-0.98 0.8,-1.78 1.78,-1.78c0.98,0 1.77,0.8 1.77,1.78z" fill="#4A6173" id="svg_561"/>
    </g>
    <g id="svg_562">
     <path d="m380.66,62.91c0,0.78 -0.63,1.41 -1.41,1.41c-0.77,0 -1.4,-0.63 -1.4,-1.41c0,-0.77 0.63,-1.4 1.4,-1.4c0.78,0 1.41,0.63 1.41,1.4z" fill="#4A6173" id="svg_563"/>
    </g>
    <g id="svg_564">
     <path d="m385.26,61.92c0,0.75 -0.61,1.36 -1.37,1.36c-0.75,0 -1.36,-0.61 -1.36,-1.36c0,-0.76 0.61,-1.37 1.36,-1.37c0.76,0 1.37,0.61 1.37,1.37z" fill="#4A6173" id="svg_565"/>
    </g>
    <g id="svg_566">
     <path d="m387.39,44.66c0,0.71 -0.58,1.29 -1.3,1.29c-0.71,0 -1.29,-0.58 -1.29,-1.29c0,-0.72 0.58,-1.3 1.29,-1.3c0.72,0 1.3,0.58 1.3,1.3z" fill="#4A6173" id="svg_567"/>
    </g>
    <g id="svg_568">
     <path d="m384.77,42.44c0,0.71 -0.58,1.29 -1.3,1.29c-0.72,0 -1.3,-0.58 -1.3,-1.29c0,-0.72 0.58,-1.3 1.3,-1.3c0.72,0 1.3,0.58 1.3,1.3z" fill="#4A6173" id="svg_569"/>
    </g>
    <g id="svg_570">
     <path d="m380.89,42.27c0,0.72 -0.58,1.3 -1.3,1.3c-0.71,0 -1.29,-0.58 -1.29,-1.3c0,-0.72 0.58,-1.3 1.29,-1.3c0.72,0 1.3,0.58 1.3,1.3z" fill="#4A6173" id="svg_571"/>
    </g>
    <g id="svg_572">
     <path d="m374.59,43.73c0,0.72 -0.59,1.3 -1.3,1.3c-0.72,0 -1.3,-0.58 -1.3,-1.3c0,-0.71 0.58,-1.29 1.3,-1.29c0.71,0 1.3,0.58 1.3,1.29z" fill="#4A6173" id="svg_573"/>
    </g>
    <g id="svg_574">
     <path d="m391.84,55.64c0,0.72 -0.58,1.3 -1.3,1.3c-0.71,0 -1.3,-0.59 -1.3,-1.3c0,-0.72 0.59,-1.3 1.3,-1.3c0.72,0 1.3,0.58 1.3,1.3z" fill="#4A6173" id="svg_575"/>
    </g>
    <g id="svg_576">
     <path d="m372.13,59.73c0,0.72 -0.58,1.3 -1.3,1.3c-0.71,0 -1.29,-0.58 -1.29,-1.3c0,-0.71 0.58,-1.29 1.29,-1.29c0.72,0 1.3,0.58 1.3,1.29z" fill="#4A6173" id="svg_577"/>
    </g>
    <g id="svg_578">
     <path d="m390.16,52.01c0,0.71 -0.58,1.29 -1.3,1.29c-0.71,0 -1.29,-0.58 -1.29,-1.29c0,-0.72 0.58,-1.3 1.29,-1.3c0.72,0 1.3,0.58 1.3,1.3z" fill="#4A6173" id="svg_579"/>
    </g>
    <g id="svg_580">
     <path d="m371.58,48.83c0,0.71 -0.58,1.29 -1.3,1.29c-0.72,0 -1.3,-0.58 -1.3,-1.29c0,-0.72 0.58,-1.3 1.3,-1.3c0.72,0 1.3,0.58 1.3,1.3z" fill="#4A6173" id="svg_581"/>
    </g>
    <g id="svg_582">
     <circle cx="387.95" cy="59.73" fill="#4A6173" id="svg_583" r="1.3"/>
    </g>
   </g>
   <g id="svg_584">
    <g id="svg_585">
     <path d="m378.54,183.57c0,0.78 -0.64,1.42 -1.42,1.42c-0.79,0 -1.42,-0.64 -1.42,-1.42c0,-0.79 0.63,-1.43 1.42,-1.43c0.78,0 1.42,0.64 1.42,1.43z" fill="#4A6173" id="svg_586"/>
    </g>
    <g id="svg_587">
     <path d="m382.42,184.07c0,0.5 -0.42,0.92 -0.93,0.92c-0.5,0 -0.92,-0.42 -0.92,-0.92c0,-0.51 0.42,-0.93 0.92,-0.93c0.51,0 0.93,0.42 0.93,0.93z" fill="#4A6173" id="svg_588"/>
    </g>
    <g id="svg_589">
     <circle cx="379.63" cy="187.58" fill="#4A6173" id="svg_590" r="1.63"/>
    </g>
    <g id="svg_591">
     <path d="m377.12,188.42c0,0.94 -0.77,1.71 -1.71,1.71c-0.95,0 -1.71,-0.77 -1.71,-1.71s0.76,-1.71 1.71,-1.71c0.94,0 1.71,0.76 1.71,1.71z" fill="#4A6173" id="svg_592"/>
    </g>
    <g id="svg_593">
     <path d="m380.85,192.88c0,1.03 -0.84,1.87 -1.87,1.87c-1.03,0 -1.86,-0.84 -1.86,-1.87c0,-1.03 0.83,-1.86 1.86,-1.86c1.03,0 1.87,0.83 1.87,1.86z" fill="#4A6173" id="svg_594"/>
    </g>
    <g id="svg_595">
     <path d="m384.59,190.13c0,1.06 -0.86,1.92 -1.92,1.92c-1.07,0 -1.93,-0.86 -1.93,-1.92c0,-1.07 0.86,-1.93 1.93,-1.93c1.06,0 1.92,0.86 1.92,1.93z" fill="#4A6173" id="svg_596"/>
    </g>
    <g id="svg_597">
     <circle cx="384.07" cy="185.67" fill="#4A6173" id="svg_598" r="1.66"/>
    </g>
    <g id="svg_599">
     <path d="m386.51,181.49c0,0.91 -0.74,1.65 -1.66,1.65c-0.91,0 -1.65,-0.74 -1.65,-1.65c0,-0.92 0.74,-1.66 1.65,-1.66c0.92,0 1.66,0.74 1.66,1.66z" fill="#4A6173" id="svg_600"/>
    </g>
    <g id="svg_601">
     <path d="m390.32,187.3c0,1.05 -0.85,1.91 -1.9,1.91c-1.06,0 -1.91,-0.86 -1.91,-1.91c0,-1.05 0.85,-1.91 1.91,-1.91c1.05,0 1.9,0.86 1.9,1.91z" fill="#4A6173" id="svg_602"/>
    </g>
    <g id="svg_603">
     <path d="m387.84,191.07c0,0.83 -0.67,1.49 -1.49,1.49c-0.83,0 -1.5,-0.66 -1.5,-1.49c0,-0.82 0.67,-1.49 1.5,-1.49c0.82,0 1.49,0.67 1.49,1.49z" fill="#4A6173" id="svg_604"/>
    </g>
    <g id="svg_605">
     <path d="m385.3,194.9c0,0.79 -0.64,1.44 -1.44,1.44s-1.44,-0.65 -1.44,-1.44c0,-0.8 0.64,-1.44 1.44,-1.44s1.44,0.64 1.44,1.44z" fill="#4A6173" id="svg_606"/>
    </g>
    <g id="svg_607">
     <path d="m382.13,181.09c0,0.88 -0.7,1.58 -1.57,1.58c-0.87,0 -1.58,-0.7 -1.58,-1.58s0.71,-1.57 1.58,-1.57c0.87,0 1.57,0.7 1.57,1.57z" fill="#4A6173" id="svg_608"/>
    </g>
    <g id="svg_609">
     <path d="m392.28,183.8c0,0.92 -0.74,1.66 -1.65,1.66s-1.66,-0.75 -1.66,-1.66c0,-0.91 0.74,-1.66 1.66,-1.66s1.65,0.74 1.65,1.66z" fill="#4A6173" id="svg_610"/>
    </g>
    <g id="svg_611">
     <path d="m389.54,194.78c0,0.74 -0.59,1.33 -1.33,1.33s-1.32,-0.59 -1.32,-1.33s0.59,-1.32 1.32,-1.32s1.33,0.59 1.33,1.32z" fill="#4A6173" id="svg_612"/>
    </g>
    <g id="svg_613">
     <path d="m392.07,191.78c0,0.92 -0.74,1.66 -1.65,1.66c-0.92,0 -1.66,-0.74 -1.66,-1.66s0.74,-1.65 1.66,-1.65c0.91,0 1.65,0.74 1.65,1.65z" fill="#4A6173" id="svg_614"/>
    </g>
    <g id="svg_615">
     <path d="m376.09,192.31c0,0.76 -0.62,1.38 -1.38,1.38c-0.77,0 -1.39,-0.62 -1.39,-1.38c0,-0.77 0.62,-1.39 1.39,-1.39c0.76,0.01 1.38,0.62 1.38,1.39z" fill="#4A6173" id="svg_616"/>
    </g>
    <g id="svg_617">
     <path d="m379.63,197.29c0,0.98 -0.79,1.77 -1.77,1.77c-0.98,0 -1.77,-0.79 -1.77,-1.77c0,-0.98 0.79,-1.77 1.77,-1.77c0.98,0 1.77,0.79 1.77,1.77z" fill="#4A6173" id="svg_618"/>
    </g>
    <g id="svg_619">
     <path d="m384.07,198.7c0,0.78 -0.63,1.41 -1.4,1.41c-0.78,0 -1.41,-0.63 -1.41,-1.41s0.63,-1.41 1.41,-1.41c0.77,0 1.4,0.63 1.4,1.41z" fill="#4A6173" id="svg_620"/>
    </g>
    <g id="svg_621">
     <path d="m388.67,197.7c0,0.75 -0.61,1.36 -1.36,1.36c-0.75,0 -1.36,-0.61 -1.36,-1.36c0,-0.75 0.61,-1.36 1.36,-1.36c0.75,0 1.36,0.61 1.36,1.36z" fill="#4A6173" id="svg_622"/>
    </g>
    <g id="svg_623">
     <path d="m390.81,180.44c0,0.72 -0.58,1.3 -1.3,1.3c-0.72,0 -1.3,-0.58 -1.3,-1.3c0,-0.72 0.58,-1.3 1.3,-1.3c0.72,0 1.3,0.58 1.3,1.3z" fill="#4A6173" id="svg_624"/>
    </g>
    <g id="svg_625">
     <circle cx="386.88" cy="178.22" fill="#4A6173" id="svg_626" r="1.3"/>
    </g>
    <g id="svg_627">
     <path d="m384.31,178.06c0,0.71 -0.58,1.29 -1.3,1.29c-0.72,0 -1.3,-0.58 -1.3,-1.29c0,-0.72 0.58,-1.3 1.3,-1.3c0.72,0 1.3,0.58 1.3,1.3z" fill="#4A6173" id="svg_628"/>
    </g>
    <g id="svg_629">
     <path d="m378,179.52c0,0.72 -0.58,1.3 -1.29,1.3c-0.72,0 -1.3,-0.58 -1.3,-1.3c0,-0.72 0.58,-1.3 1.3,-1.3c0.71,0 1.29,0.58 1.29,1.3z" fill="#4A6173" id="svg_630"/>
    </g>
    <g id="svg_631">
     <path d="m395.25,191.43c0,0.71 -0.58,1.29 -1.29,1.29c-0.72,0 -1.3,-0.58 -1.3,-1.29c0,-0.72 0.58,-1.3 1.3,-1.3c0.72,0 1.29,0.58 1.29,1.3z" fill="#4A6173" id="svg_632"/>
    </g>
    <g id="svg_633">
     <circle cx="374.25" cy="195.52" fill="#4A6173" id="svg_634" r="1.3"/>
    </g>
    <g id="svg_635">
     <path d="m393.58,187.79c0,0.72 -0.58,1.3 -1.3,1.3c-0.72,0 -1.3,-0.58 -1.3,-1.3c0,-0.71 0.58,-1.29 1.3,-1.29c0.72,0 1.3,0.58 1.3,1.29z" fill="#4A6173" id="svg_636"/>
    </g>
    <g id="svg_637">
     <path d="m375,184.61c0,0.72 -0.59,1.3 -1.3,1.3c-0.72,0 -1.3,-0.58 -1.3,-1.3c0,-0.71 0.58,-1.3 1.3,-1.3c0.71,0.01 1.3,0.59 1.3,1.3z" fill="#4A6173" id="svg_638"/>
    </g>
    <g id="svg_639">
     <circle cx="391.37" cy="195.52" fill="#4A6173" id="svg_640" r="1.3"/>
    </g>
   </g>
   <g id="svg_641">
    <g id="svg_642">
     <circle cx="354.1" cy="82.7" fill="#4A6173" id="svg_643" r="1.42"/>
    </g>
    <g id="svg_644">
     <circle cx="358.48" cy="83.2" fill="#4A6173" id="svg_645" r="0.92"/>
    </g>
    <g id="svg_646">
     <circle cx="356.62" cy="86.72" fill="#4A6173" id="svg_647" r="1.63"/>
    </g>
    <g id="svg_648">
     <path d="m354.1,87.55c0,0.95 -0.76,1.72 -1.71,1.72c-0.94,0 -1.71,-0.77 -1.71,-1.72c0,-0.94 0.77,-1.71 1.71,-1.71c0.95,0 1.71,0.77 1.71,1.71z" fill="#4A6173" id="svg_649"/>
    </g>
    <g id="svg_650">
     <circle cx="355.97" cy="92.02" fill="#4A6173" id="svg_651" r="1.86"/>
    </g>
    <g id="svg_652">
     <path d="m361.58,89.27c0,1.06 -0.87,1.92 -1.93,1.92s-1.92,-0.86 -1.92,-1.92c0,-1.07 0.86,-1.93 1.92,-1.93s1.93,0.86 1.93,1.93z" fill="#4A6173" id="svg_653"/>
    </g>
    <g id="svg_654">
     <circle cx="361.06" cy="84.81" fill="#4A6173" id="svg_655" r="1.66"/>
    </g>
    <g id="svg_656">
     <path d="m363.49,80.62c0,0.92 -0.74,1.66 -1.65,1.66s-1.66,-0.74 -1.66,-1.66c0,-0.91 0.74,-1.65 1.66,-1.65s1.65,0.74 1.65,1.65z" fill="#4A6173" id="svg_657"/>
    </g>
    <g id="svg_658">
     <path d="m367.31,86.44c0,1.05 -0.86,1.9 -1.91,1.9s-1.91,-0.85 -1.91,-1.9c0,-1.06 0.86,-1.91 1.91,-1.91s1.91,0.85 1.91,1.91z" fill="#4A6173" id="svg_659"/>
    </g>
    <g id="svg_660">
     <circle cx="363.33" cy="90.21" fill="#4A6173" id="svg_661" r="1.49"/>
    </g>
    <g id="svg_662">
     <path d="m362.28,94.03c0,0.8 -0.64,1.45 -1.44,1.45c-0.79,0 -1.44,-0.65 -1.44,-1.45s0.64,-1.44 1.44,-1.44c0.8,0 1.44,0.65 1.44,1.44z" fill="#4A6173" id="svg_663"/>
    </g>
    <g id="svg_664">
     <path d="m359.12,80.23c0,0.87 -0.71,1.58 -1.58,1.58c-0.87,0 -1.57,-0.71 -1.57,-1.58c0,-0.87 0.7,-1.57 1.57,-1.57c0.87,0 1.58,0.7 1.58,1.57z" fill="#4A6173" id="svg_665"/>
    </g>
    <g id="svg_666">
     <path d="m369.26,82.94c0,0.91 -0.74,1.65 -1.65,1.65s-1.66,-0.74 -1.66,-1.65c0,-0.92 0.74,-1.66 1.66,-1.66s1.65,0.74 1.65,1.66z" fill="#4A6173" id="svg_667"/>
    </g>
    <g id="svg_668">
     <path d="m366.52,93.92c0,0.74 -0.59,1.33 -1.32,1.33c-0.74,0 -1.33,-0.6 -1.33,-1.33s0.59,-1.33 1.33,-1.33c0.73,0 1.32,0.6 1.32,1.33z" fill="#4A6173" id="svg_669"/>
    </g>
    <g id="svg_670">
     <path d="m369.06,90.92c0,0.92 -0.75,1.66 -1.66,1.66s-1.66,-0.74 -1.66,-1.66c0,-0.91 0.75,-1.65 1.66,-1.65s1.66,0.74 1.66,1.65z" fill="#4A6173" id="svg_671"/>
    </g>
    <g id="svg_672">
     <path d="m353.07,91.44c0,0.77 -0.62,1.39 -1.38,1.39c-0.76,0 -1.38,-0.62 -1.38,-1.39s0.62,-1.38 1.38,-1.38c0.76,0 1.38,0.62 1.38,1.38z" fill="#4A6173" id="svg_673"/>
    </g>
    <g id="svg_674">
     <ellipse cx="354.85" cy="96.43" fill="#4A6173" id="svg_675" rx="1.77" ry="1.77" transform="matrix(0.0347 -0.9994 0.9994 0.0347 246.1501 447.7115)"/>
    </g>
    <g id="svg_676">
     <path d="m361.06,97.84c0,0.77 -0.63,1.4 -1.41,1.4c-0.77,0 -1.41,-0.63 -1.41,-1.4c0,-0.78 0.63,-1.41 1.41,-1.41c0.78,0 1.41,0.63 1.41,1.41z" fill="#4A6173" id="svg_677"/>
    </g>
    <g id="svg_678">
     <path d="m365.66,96.84c0,0.75 -0.61,1.36 -1.36,1.36c-0.76,0 -1.37,-0.61 -1.37,-1.36c0,-0.75 0.61,-1.36 1.37,-1.36c0.75,0 1.36,0.61 1.36,1.36z" fill="#4A6173" id="svg_679"/>
    </g>
    <g id="svg_680">
     <path d="m367.79,79.58c0,0.71 -0.58,1.3 -1.3,1.3c-0.71,0 -1.29,-0.59 -1.29,-1.3c0,-0.72 0.58,-1.3 1.29,-1.3c0.72,0 1.3,0.58 1.3,1.3z" fill="#4A6173" id="svg_681"/>
    </g>
    <g id="svg_682">
     <path d="m365.17,77.36c0,0.71 -0.59,1.3 -1.3,1.3c-0.72,0 -1.3,-0.59 -1.3,-1.3c0,-0.72 0.58,-1.3 1.3,-1.3c0.71,0 1.3,0.58 1.3,1.3z" fill="#4A6173" id="svg_683"/>
    </g>
    <g id="svg_684">
     <path d="m361.29,77.19c0,0.72 -0.58,1.3 -1.3,1.3c-0.71,0 -1.29,-0.58 -1.29,-1.3c0,-0.71 0.58,-1.3 1.29,-1.3c0.72,0 1.3,0.59 1.3,1.3z" fill="#4A6173" id="svg_685"/>
    </g>
    <g id="svg_686">
     <path d="m354.99,78.66c0,0.71 -0.59,1.29 -1.3,1.29c-0.72,0 -1.3,-0.58 -1.3,-1.29c0,-0.72 0.58,-1.3 1.3,-1.3c0.72,0 1.3,0.58 1.3,1.3z" fill="#4A6173" id="svg_687"/>
    </g>
    <g id="svg_688">
     <path d="m372.24,90.56c0,0.72 -0.58,1.3 -1.3,1.3c-0.71,0 -1.3,-0.58 -1.3,-1.3c0,-0.71 0.59,-1.29 1.3,-1.29c0.72,0 1.3,0.58 1.3,1.29z" fill="#4A6173" id="svg_689"/>
    </g>
    <g id="svg_690">
     <path d="m352.53,94.66c0,0.71 -0.58,1.29 -1.3,1.29c-0.71,0 -1.29,-0.58 -1.29,-1.29c0,-0.72 0.58,-1.3 1.29,-1.3c0.72,0 1.3,0.58 1.3,1.3z" fill="#4A6173" id="svg_691"/>
    </g>
    <g id="svg_692">
     <path d="m370.56,86.93c0,0.71 -0.58,1.3 -1.3,1.3c-0.71,0 -1.29,-0.59 -1.29,-1.3c0,-0.72 0.58,-1.3 1.29,-1.3c0.72,0 1.3,0.58 1.3,1.3z" fill="#4A6173" id="svg_693"/>
    </g>
    <g id="svg_694">
     <path d="m351.98,83.75c0,0.71 -0.58,1.3 -1.3,1.3c-0.72,0 -1.3,-0.59 -1.3,-1.3c0,-0.72 0.58,-1.3 1.3,-1.3c0.72,0 1.3,0.58 1.3,1.3z" fill="#4A6173" id="svg_695"/>
    </g>
    <g id="svg_696">
     <ellipse cx="368.35" cy="94.66" fill="#4A6173" id="svg_697" rx="1.3" ry="1.3" transform="matrix(0.0454 -0.999 0.999 0.0454 257.0785 458.3302)"/>
    </g>
   </g>
   <g id="svg_698">
    <g id="svg_699">
     <ellipse cx="391.38" cy="93.34" fill="#4A6173" id="svg_700" rx="1.42" ry="1.42" transform="matrix(0.9985 -0.0554 0.0554 0.9985 -4.5689 21.8214)"/>
    </g>
    <g id="svg_701">
     <ellipse cx="395.76" cy="93.84" fill="#4A6173" id="svg_702" rx="0.92" ry="0.92" transform="matrix(0.9985 -0.0554 0.0554 0.9985 -4.5877 22.0522)"/>
    </g>
    <g id="svg_703">
     <circle cx="393.9" cy="97.35" fill="#4A6173" id="svg_704" r="1.63"/>
    </g>
    <g id="svg_705">
     <path d="m391.38,98.19c0,0.94 -0.76,1.71 -1.71,1.71c-0.94,0 -1.71,-0.77 -1.71,-1.71c0,-0.95 0.77,-1.71 1.71,-1.71c0.95,0 1.71,0.76 1.71,1.71z" fill="#4A6173" id="svg_706"/>
    </g>
    <g id="svg_707">
     <ellipse cx="393.25" cy="102.65" fill="#4A6173" id="svg_708" rx="1.86" ry="1.86" transform="matrix(0.0128 -0.9999 0.9999 0.0128 285.5505 494.5471)"/>
    </g>
    <g id="svg_709">
     <path d="m398.86,99.9c0,1.06 -0.86,1.92 -1.93,1.92c-1.06,0 -1.92,-0.86 -1.92,-1.92s0.86,-1.93 1.92,-1.93c1.07,0 1.93,0.86 1.93,1.93z" fill="#4A6173" id="svg_710"/>
    </g>
    <g id="svg_711">
     <ellipse cx="398.34" cy="95.44" fill="#4A6173" id="svg_712" rx="1.66" ry="1.66" transform="matrix(0.0707 -0.9975 0.9975 0.0707 274.9636 486.0344)"/>
    </g>
    <g id="svg_713">
     <path d="m400.77,91.26c0,0.91 -0.74,1.65 -1.65,1.65c-0.92,0 -1.66,-0.74 -1.66,-1.65c0,-0.92 0.74,-1.66 1.66,-1.66c0.91,0 1.65,0.74 1.65,1.66z" fill="#4A6173" id="svg_714"/>
    </g>
    <g id="svg_715">
     <path d="m404.59,97.07c0,1.05 -0.86,1.91 -1.91,1.91c-1.05,0 -1.91,-0.86 -1.91,-1.91c0,-1.05 0.86,-1.91 1.91,-1.91c1.05,0 1.91,0.86 1.91,1.91z" fill="#4A6173" id="svg_716"/>
    </g>
    <g id="svg_717">
     <path d="m402.1,100.84c0,0.83 -0.67,1.5 -1.49,1.5c-0.82,0 -1.49,-0.67 -1.49,-1.5c0,-0.82 0.67,-1.49 1.49,-1.49c0.82,0 1.49,0.67 1.49,1.49z" fill="#4A6173" id="svg_718"/>
    </g>
    <g id="svg_719">
     <path d="m399.56,104.67c0,0.79 -0.64,1.44 -1.44,1.44s-1.44,-0.64 -1.44,-1.44c0,-0.8 0.64,-1.44 1.44,-1.44s1.44,0.64 1.44,1.44z" fill="#4A6173" id="svg_720"/>
    </g>
    <g id="svg_721">
     <path d="m396.4,90.86c0,0.88 -0.71,1.58 -1.58,1.58s-1.57,-0.71 -1.57,-1.58s0.7,-1.57 1.57,-1.57s1.58,0.7 1.58,1.57z" fill="#4A6173" id="svg_722"/>
    </g>
    <g id="svg_723">
     <path d="m406.55,93.57c0,0.91 -0.75,1.66 -1.66,1.66s-1.66,-0.75 -1.66,-1.66c0,-0.92 0.75,-1.66 1.66,-1.66s1.66,0.75 1.66,1.66z" fill="#4A6173" id="svg_724"/>
    </g>
    <g id="svg_725">
     <path d="m403.81,104.55c0,0.74 -0.6,1.33 -1.33,1.33s-1.33,-0.59 -1.33,-1.33c0,-0.73 0.59,-1.32 1.33,-1.32s1.33,0.59 1.33,1.32z" fill="#4A6173" id="svg_726"/>
    </g>
    <g id="svg_727">
     <path d="m406.34,101.55c0,0.92 -0.75,1.66 -1.66,1.66c-0.92,0 -1.66,-0.74 -1.66,-1.66s0.74,-1.65 1.66,-1.65c0.92,0 1.66,0.74 1.66,1.65z" fill="#4A6173" id="svg_728"/>
    </g>
    <g id="svg_729">
     <ellipse cx="388.97" cy="102.08" fill="#4A6173" id="svg_730" rx="1.38" ry="1.38" transform="matrix(0.9996 -0.0287 0.0287 0.9996 -2.769 11.2039)"/>
    </g>
    <g id="svg_731">
     <path d="m393.9,107.06c0,0.98 -0.79,1.77 -1.77,1.77c-0.98,0 -1.78,-0.79 -1.78,-1.77c0,-0.98 0.8,-1.77 1.78,-1.77c0.98,0 1.77,0.79 1.77,1.77z" fill="#4A6173" id="svg_732"/>
    </g>
    <g id="svg_733">
     <path d="m398.34,108.47c0,0.78 -0.63,1.41 -1.41,1.41c-0.78,0 -1.41,-0.63 -1.41,-1.41c0,-0.78 0.63,-1.41 1.41,-1.41c0.78,0 1.41,0.63 1.41,1.41z" fill="#4A6173" id="svg_734"/>
    </g>
    <g id="svg_735">
     <path d="m402.94,107.47c0,0.75 -0.61,1.36 -1.37,1.36c-0.75,0 -1.36,-0.61 -1.36,-1.36c0,-0.75 0.61,-1.36 1.36,-1.36c0.76,0 1.37,0.61 1.37,1.36z" fill="#4A6173" id="svg_736"/>
    </g>
    <g id="svg_737">
     <path d="m405.07,90.21c0,0.72 -0.58,1.3 -1.3,1.3c-0.71,0 -1.29,-0.58 -1.29,-1.3c0,-0.71 0.58,-1.3 1.29,-1.3c0.72,0 1.3,0.58 1.3,1.3z" fill="#4A6173" id="svg_738"/>
    </g>
    <g id="svg_739">
     <path d="m402.45,87.99c0,0.72 -0.58,1.3 -1.3,1.3c-0.72,0 -1.3,-0.58 -1.3,-1.3c0,-0.71 0.58,-1.29 1.3,-1.29c0.72,-0.01 1.3,0.58 1.3,1.29z" fill="#4A6173" id="svg_740"/>
    </g>
    <g id="svg_741">
     <circle cx="397.27" cy="87.83" fill="#4A6173" id="svg_742" r="1.3"/>
    </g>
    <g id="svg_743">
     <path d="m392.27,89.29c0,0.71 -0.58,1.3 -1.3,1.3c-0.72,0 -1.3,-0.59 -1.3,-1.3c0,-0.72 0.58,-1.3 1.3,-1.3c0.72,0 1.3,0.58 1.3,1.3z" fill="#4A6173" id="svg_744"/>
    </g>
    <g id="svg_745">
     <path d="m409.52,101.19c0,0.72 -0.58,1.3 -1.3,1.3c-0.71,0 -1.3,-0.58 -1.3,-1.3c0,-0.71 0.59,-1.29 1.3,-1.29c0.72,0 1.3,0.58 1.3,1.29z" fill="#4A6173" id="svg_746"/>
    </g>
    <g id="svg_747">
     <ellipse cx="388.51" cy="105.29" fill="#4A6173" id="svg_748" rx="1.3" ry="1.3" transform="matrix(0.0454 -0.999 0.999 0.0454 265.707 488.6253)"/>
    </g>
    <g id="svg_749">
     <path d="m407.84,97.56c0,0.72 -0.58,1.3 -1.3,1.3c-0.71,0 -1.29,-0.58 -1.29,-1.3c0,-0.71 0.58,-1.29 1.29,-1.29c0.72,0 1.3,0.58 1.3,1.29z" fill="#4A6173" id="svg_750"/>
    </g>
    <g id="svg_751">
     <ellipse cx="387.96" cy="94.38" fill="#4A6173" id="svg_752" rx="1.3" ry="1.3" transform="matrix(0.0454 -0.999 0.999 0.0454 276.0749 477.6623)"/>
    </g>
    <g id="svg_753">
     <ellipse cx="405.63" cy="105.29" fill="#4A6173" id="svg_754" rx="1.3" ry="1.3" transform="matrix(0.0424 -0.9991 0.9991 0.0424 283.2377 506.0884)"/>
    </g>
   </g>
   <g id="svg_755">
    <g id="svg_756">
     <circle cx="412.97" cy="166.49" fill="#4A6173" id="svg_757" r="1.42"/>
    </g>
    <g id="svg_758">
     <circle cx="417.35" cy="166.99" fill="#4A6173" id="svg_759" r="0.92"/>
    </g>
    <g id="svg_760">
     <circle cx="415.49" cy="170.5" fill="#4A6173" id="svg_761" r="1.63"/>
    </g>
    <g id="svg_762">
     <path d="m412.97,171.34c0,0.95 -0.76,1.71 -1.71,1.71c-0.94,0 -1.71,-0.76 -1.71,-1.71s0.77,-1.71 1.71,-1.71c0.95,0 1.71,0.77 1.71,1.71z" fill="#4A6173" id="svg_763"/>
    </g>
    <g id="svg_764">
     <circle cx="414.84" cy="175.81" fill="#4A6173" id="svg_765" r="1.86"/>
    </g>
    <g id="svg_766">
     <path d="m420.45,173.05c0,1.07 -0.87,1.93 -1.93,1.93c-1.06,0 -1.92,-0.86 -1.92,-1.93s0.86,-1.92 1.92,-1.92c1.06,0 1.93,0.86 1.93,1.92z" fill="#4A6173" id="svg_767"/>
    </g>
    <g id="svg_768">
     <path d="m421.59,168.6c0,0.91 -0.75,1.66 -1.66,1.66c-0.92,0 -1.66,-0.75 -1.66,-1.66c0,-0.92 0.74,-1.66 1.66,-1.66c0.92,0 1.66,0.74 1.66,1.66z" fill="#4A6173" id="svg_769"/>
    </g>
    <g id="svg_770">
     <path d="m422.36,164.41c0,0.92 -0.74,1.66 -1.65,1.66s-1.66,-0.74 -1.66,-1.66s0.74,-1.65 1.66,-1.65s1.65,0.74 1.65,1.65z" fill="#4A6173" id="svg_771"/>
    </g>
    <g id="svg_772">
     <path d="m426.18,170.22c0,1.06 -0.86,1.91 -1.91,1.91c-1.05,0 -1.91,-0.85 -1.91,-1.91c0,-1.05 0.86,-1.9 1.91,-1.9c1.05,0 1.91,0.85 1.91,1.9z" fill="#4A6173" id="svg_773"/>
    </g>
    <g id="svg_774">
     <circle cx="422.2" cy="174" fill="#4A6173" id="svg_775" r="1.49"/>
    </g>
    <g id="svg_776">
     <path d="m421.15,177.82c0,0.8 -0.64,1.44 -1.44,1.44c-0.79,0 -1.44,-0.64 -1.44,-1.44c0,-0.79 0.64,-1.44 1.44,-1.44c0.8,0 1.44,0.65 1.44,1.44z" fill="#4A6173" id="svg_777"/>
    </g>
    <g id="svg_778">
     <path d="m417.99,164.02c0,0.87 -0.71,1.57 -1.58,1.57c-0.87,0 -1.57,-0.7 -1.57,-1.57s0.7,-1.58 1.57,-1.58c0.87,0 1.58,0.71 1.58,1.58z" fill="#4A6173" id="svg_779"/>
    </g>
    <g id="svg_780">
     <path d="m428.13,166.72c0,0.92 -0.74,1.66 -1.65,1.66s-1.66,-0.74 -1.66,-1.66s0.74,-1.65 1.66,-1.65s1.65,0.74 1.65,1.65z" fill="#4A6173" id="svg_781"/>
    </g>
    <g id="svg_782">
     <path d="m425.39,177.71c0,0.73 -0.59,1.33 -1.32,1.33c-0.74,0 -1.33,-0.6 -1.33,-1.33c0,-0.73 0.59,-1.33 1.33,-1.33c0.73,0 1.32,0.59 1.32,1.33z" fill="#4A6173" id="svg_783"/>
    </g>
    <g id="svg_784">
     <path d="m427.93,174.71c0,0.91 -0.75,1.66 -1.66,1.66s-1.66,-0.75 -1.66,-1.66c0,-0.92 0.75,-1.66 1.66,-1.66s1.66,0.74 1.66,1.66z" fill="#4A6173" id="svg_785"/>
    </g>
    <g id="svg_786">
     <path d="m411.94,175.23c0,0.77 -0.62,1.39 -1.38,1.39c-0.76,0 -1.38,-0.62 -1.38,-1.39s0.62,-1.38 1.38,-1.38c0.76,0 1.38,0.62 1.38,1.38z" fill="#4A6173" id="svg_787"/>
    </g>
    <g id="svg_788">
     <path d="m415.49,180.22c0,0.98 -0.8,1.77 -1.77,1.77s-1.78,-0.79 -1.78,-1.77c0,-0.98 0.8,-1.78 1.78,-1.78s1.77,0.8 1.77,1.78z" fill="#4A6173" id="svg_789"/>
    </g>
    <g id="svg_790">
     <path d="m419.93,181.62c0,0.78 -0.63,1.41 -1.41,1.41c-0.77,0 -1.41,-0.63 -1.41,-1.41s0.63,-1.4 1.41,-1.4c0.78,0 1.41,0.63 1.41,1.4z" fill="#4A6173" id="svg_791"/>
    </g>
    <g id="svg_792">
     <path d="m424.53,180.63c0,0.75 -0.61,1.36 -1.37,1.36c-0.75,0 -1.36,-0.61 -1.36,-1.36c0,-0.76 0.61,-1.37 1.36,-1.37c0.76,0 1.37,0.61 1.37,1.37z" fill="#4A6173" id="svg_793"/>
    </g>
    <g id="svg_794">
     <path d="m426.66,163.37c0,0.71 -0.58,1.29 -1.3,1.29c-0.71,0 -1.29,-0.58 -1.29,-1.29c0,-0.72 0.58,-1.3 1.29,-1.3c0.72,0 1.3,0.58 1.3,1.3z" fill="#4A6173" id="svg_795"/>
    </g>
    <g id="svg_796">
     <path d="m424.04,161.15c0,0.71 -0.59,1.29 -1.3,1.29c-0.72,0 -1.3,-0.58 -1.3,-1.29c0,-0.72 0.58,-1.3 1.3,-1.3c0.71,0 1.3,0.58 1.3,1.3z" fill="#4A6173" id="svg_797"/>
    </g>
    <g id="svg_798">
     <path d="m420.16,160.98c0,0.72 -0.58,1.3 -1.3,1.3c-0.71,0 -1.29,-0.58 -1.29,-1.3c0,-0.72 0.58,-1.3 1.29,-1.3c0.72,0 1.3,0.58 1.3,1.3z" fill="#4A6173" id="svg_799"/>
    </g>
    <g id="svg_800">
     <path d="m413.86,162.44c0,0.72 -0.59,1.3 -1.3,1.3c-0.72,0 -1.3,-0.58 -1.3,-1.3c0,-0.71 0.58,-1.29 1.3,-1.29c0.71,0 1.3,0.58 1.3,1.29z" fill="#4A6173" id="svg_801"/>
    </g>
    <g id="svg_802">
     <path d="m431.11,174.35c0,0.71 -0.58,1.3 -1.3,1.3c-0.71,0 -1.3,-0.59 -1.3,-1.3c0,-0.72 0.59,-1.3 1.3,-1.3c0.72,0 1.3,0.58 1.3,1.3z" fill="#4A6173" id="svg_803"/>
    </g>
    <g id="svg_804">
     <path d="m411.4,178.44c0,0.72 -0.58,1.3 -1.3,1.3c-0.71,0 -1.29,-0.58 -1.29,-1.3c0,-0.71 0.58,-1.29 1.29,-1.29c0.72,0 1.3,0.58 1.3,1.29z" fill="#4A6173" id="svg_805"/>
    </g>
    <g id="svg_806">
     <path d="m429.43,170.72c0,0.71 -0.58,1.29 -1.3,1.29c-0.71,0 -1.29,-0.58 -1.29,-1.29c0,-0.72 0.58,-1.3 1.29,-1.3c0.72,0 1.3,0.58 1.3,1.3z" fill="#4A6173" id="svg_807"/>
    </g>
    <g id="svg_808">
     <path d="m410.85,167.54c0,0.71 -0.58,1.29 -1.3,1.29c-0.72,0 -1.3,-0.58 -1.3,-1.29c0,-0.72 0.58,-1.3 1.3,-1.3c0.72,0 1.3,0.58 1.3,1.3z" fill="#4A6173" id="svg_809"/>
    </g>
    <g id="svg_810">
     <path d="m428.51,178.44c0,0.72 -0.58,1.3 -1.29,1.3c-0.72,0 -1.3,-0.58 -1.3,-1.3c0,-0.71 0.58,-1.29 1.3,-1.29c0.71,0 1.29,0.58 1.29,1.29z" fill="#4A6173" id="svg_811"/>
    </g>
   </g>
   <g id="svg_812">
    <g id="svg_813">
     <circle cx="447.43" cy="134.39" fill="#4A6173" id="svg_814" r="1.42"/>
    </g>
    <g id="svg_815">
     <circle cx="451.8" cy="134.89" fill="#4A6173" id="svg_816" r="0.92"/>
    </g>
    <g id="svg_817">
     <circle cx="449.94" cy="138.4" fill="#4A6173" id="svg_818" r="1.63"/>
    </g>
    <g id="svg_819">
     <path d="m447.43,139.24c0,0.94 -0.77,1.71 -1.71,1.71c-0.95,0 -1.71,-0.77 -1.71,-1.71c0,-0.95 0.76,-1.71 1.71,-1.71c0.94,0 1.71,0.76 1.71,1.71z" fill="#4A6173" id="svg_820"/>
    </g>
    <g id="svg_821">
     <circle cx="449.29" cy="143.7" fill="#4A6173" id="svg_822" r="1.86"/>
    </g>
    <g id="svg_823">
     <path d="m454.9,140.95c0,1.06 -0.86,1.93 -1.92,1.93c-1.07,0 -1.93,-0.87 -1.93,-1.93c0,-1.06 0.86,-1.93 1.93,-1.93c1.06,0 1.92,0.87 1.92,1.93z" fill="#4A6173" id="svg_824"/>
    </g>
    <g id="svg_825">
     <circle cx="454.38" cy="136.49" fill="#4A6173" id="svg_826" r="1.66"/>
    </g>
    <g id="svg_827">
     <path d="m456.82,132.31c0,0.91 -0.74,1.66 -1.66,1.66c-0.91,0 -1.65,-0.75 -1.65,-1.66s0.74,-1.66 1.65,-1.66c0.92,0 1.66,0.74 1.66,1.66z" fill="#4A6173" id="svg_828"/>
    </g>
    <g id="svg_829">
     <path d="m460.63,138.12c0,1.05 -0.85,1.91 -1.9,1.91c-1.06,0 -1.91,-0.86 -1.91,-1.91s0.85,-1.9 1.91,-1.9c1.05,0 1.9,0.85 1.9,1.9z" fill="#4A6173" id="svg_830"/>
    </g>
    <g id="svg_831">
     <circle cx="456.65" cy="141.9" fill="#4A6173" id="svg_832" r="1.49"/>
    </g>
    <g id="svg_833">
     <path d="m455.61,145.72c0,0.79 -0.65,1.44 -1.44,1.44c-0.8,0 -1.45,-0.64 -1.45,-1.44s0.65,-1.44 1.45,-1.44c0.79,0 1.44,0.64 1.44,1.44z" fill="#4A6173" id="svg_834"/>
    </g>
    <g id="svg_835">
     <path d="m452.44,131.92c0,0.87 -0.7,1.57 -1.57,1.57c-0.87,0 -1.58,-0.7 -1.58,-1.57s0.71,-1.58 1.58,-1.58c0.87,0 1.57,0.71 1.57,1.58z" fill="#4A6173" id="svg_836"/>
    </g>
    <g id="svg_837">
     <path d="m462.59,134.62c0,0.92 -0.74,1.66 -1.66,1.66s-1.65,-0.74 -1.65,-1.66s0.74,-1.65 1.65,-1.65s1.66,0.74 1.66,1.65z" fill="#4A6173" id="svg_838"/>
    </g>
    <g id="svg_839">
     <path d="m459.85,145.61c0,0.73 -0.59,1.32 -1.33,1.32c-0.73,0 -1.32,-0.59 -1.32,-1.32c0,-0.74 0.59,-1.33 1.32,-1.33c0.74,0 1.33,0.59 1.33,1.33z" fill="#4A6173" id="svg_840"/>
    </g>
    <g id="svg_841">
     <path d="m462.38,142.61c0,0.91 -0.74,1.65 -1.65,1.65c-0.92,0 -1.66,-0.74 -1.66,-1.65c0,-0.92 0.74,-1.66 1.66,-1.66c0.91,0 1.65,0.74 1.65,1.66z" fill="#4A6173" id="svg_842"/>
    </g>
    <g id="svg_843">
     <path d="m446.4,143.13c0,0.76 -0.62,1.38 -1.38,1.38c-0.77,0 -1.39,-0.62 -1.39,-1.38s0.62,-1.38 1.39,-1.38c0.76,0 1.38,0.62 1.38,1.38z" fill="#4A6173" id="svg_844"/>
    </g>
    <g id="svg_845">
     <path d="m449.94,148.11c0,0.98 -0.79,1.78 -1.77,1.78s-1.77,-0.8 -1.77,-1.78c0,-0.98 0.79,-1.77 1.77,-1.77s1.77,0.79 1.77,1.77z" fill="#4A6173" id="svg_846"/>
    </g>
    <g id="svg_847">
     <path d="m454.38,149.52c0,0.78 -0.63,1.41 -1.4,1.41c-0.78,0 -1.41,-0.63 -1.41,-1.41s0.63,-1.41 1.41,-1.41c0.77,0 1.4,0.63 1.4,1.41z" fill="#4A6173" id="svg_848"/>
    </g>
    <g id="svg_849">
     <path d="m458.98,148.52c0,0.76 -0.61,1.37 -1.36,1.37c-0.75,0 -1.36,-0.61 -1.36,-1.37c0,-0.75 0.61,-1.36 1.36,-1.36c0.75,0 1.36,0.61 1.36,1.36z" fill="#4A6173" id="svg_850"/>
    </g>
    <g id="svg_851">
     <path d="m461.12,131.26c0,0.72 -0.59,1.3 -1.3,1.3c-0.72,0 -1.3,-0.58 -1.3,-1.3c0,-0.71 0.58,-1.29 1.3,-1.29c0.72,0 1.3,0.58 1.3,1.29z" fill="#4A6173" id="svg_852"/>
    </g>
    <g id="svg_853">
     <path d="m458.49,129.04c0,0.72 -0.58,1.3 -1.3,1.3c-0.71,0 -1.29,-0.58 -1.29,-1.3c0,-0.71 0.58,-1.29 1.29,-1.29c0.72,0 1.3,0.58 1.3,1.29z" fill="#4A6173" id="svg_854"/>
    </g>
    <g id="svg_855">
     <path d="m454.62,128.88c0,0.71 -0.59,1.29 -1.3,1.29c-0.72,0 -1.3,-0.58 -1.3,-1.29c0,-0.72 0.58,-1.3 1.3,-1.3c0.72,0 1.3,0.58 1.3,1.3z" fill="#4A6173" id="svg_856"/>
    </g>
    <g id="svg_857">
     <path d="m448.31,130.34c0,0.72 -0.58,1.3 -1.3,1.3c-0.71,0 -1.29,-0.58 -1.29,-1.3c0,-0.72 0.58,-1.3 1.29,-1.3c0.72,0 1.3,0.58 1.3,1.3z" fill="#4A6173" id="svg_858"/>
    </g>
    <g id="svg_859">
     <path d="m465.56,142.25c0,0.71 -0.58,1.29 -1.29,1.29c-0.72,0 -1.3,-0.58 -1.3,-1.29c0,-0.72 0.58,-1.3 1.3,-1.3c0.71,0 1.29,0.58 1.29,1.3z" fill="#4A6173" id="svg_860"/>
    </g>
    <g id="svg_861">
     <circle cx="444.56" cy="146.34" fill="#4A6173" id="svg_862" r="1.3"/>
    </g>
    <g id="svg_863">
     <path d="m463.89,138.61c0,0.72 -0.58,1.3 -1.3,1.3c-0.72,0 -1.3,-0.58 -1.3,-1.3c0,-0.71 0.58,-1.29 1.3,-1.29c0.72,0 1.3,0.58 1.3,1.29z" fill="#4A6173" id="svg_864"/>
    </g>
    <g id="svg_865">
     <path d="m445.3,135.43c0,0.72 -0.58,1.3 -1.29,1.3c-0.72,0 -1.3,-0.58 -1.3,-1.3c0,-0.71 0.58,-1.29 1.3,-1.29c0.71,0 1.29,0.58 1.29,1.29z" fill="#4A6173" id="svg_866"/>
    </g>
    <g id="svg_867">
     <circle cx="461.67" cy="146.34" fill="#4A6173" id="svg_868" r="1.3"/>
    </g>
   </g>
   <g id="svg_869">
    <g id="svg_870">
     <path d="m424.32,195.49c-2.74,0 -5.76,-0.49 -9.23,-1.51c-6.56,-1.92 -9.13,-3.37 -11.2,-4.54c-2.01,-1.14 -3.47,-1.96 -7.76,-2.67l-0.73,-0.13l0.53,-0.51c0.09,-0.09 8.83,-8.45 20.68,-2.78c8.35,4 18.14,3.74 28.31,-0.75l1.65,-0.73l-1.22,1.32c-7.36,7.99 -12.97,12.3 -21.03,12.3zm-27.28,-9.33c3.83,0.71 5.34,1.57 7.22,2.63c2.03,1.15 4.56,2.57 11.05,4.47c12.75,3.73 19.29,0.21 28.29,-9.29c-9.79,3.91 -19.2,3.94 -27.31,0.06c-9.67,-4.63 -17.17,0.45 -19.25,2.13z" fill="#4A6173" id="svg_871"/>
    </g>
    <g id="svg_872">
     <path d="m427.69,190.43c-3.34,0 -7.36,-0.63 -11.94,-2.54c-13.46,-5.62 -19.38,-1.38 -19.44,-1.34c-0.08,0.07 -0.21,0.05 -0.27,-0.04c-0.07,-0.08 -0.05,-0.2 0.04,-0.27c0.24,-0.18 6.12,-4.42 19.82,1.29c13.5,5.63 22.11,0.07 22.19,0.02c0.09,-0.06 0.21,-0.04 0.27,0.05c0.06,0.09 0.04,0.21 -0.05,0.27c-0.06,0.04 -3.97,2.56 -10.62,2.56z" fill="#4A6173" id="svg_873"/>
    </g>
    <g id="svg_874">
     <path d="m422.58,192.82c-2.58,0 -6.11,-1.15 -10.72,-3.48c-3.65,-1.84 -7.91,-3.04 -13.82,-3.89l-0.57,-0.09l0.5,-0.28c7.96,-4.41 17.25,-0.11 20.3,1.31c0.3,0.14 0.53,0.25 0.69,0.31c0.1,0.04 0.15,0.15 0.11,0.25c-0.04,0.1 -0.16,0.15 -0.26,0.11c-0.16,-0.07 -0.39,-0.18 -0.7,-0.32c-2.94,-1.36 -11.76,-5.44 -19.42,-1.59c5.64,0.85 9.78,2.05 13.35,3.85c5.61,2.83 9.57,3.89 12.11,3.25c0.1,-0.03 0.21,0.04 0.24,0.14c0.02,0.11 -0.04,0.21 -0.14,0.24c-0.51,0.12 -1.06,0.19 -1.67,0.19z" fill="#4A6173" id="svg_875"/>
    </g>
   </g>
   <g id="svg_876">
    <g id="svg_877">
     <path d="m381.55,214.57l0.23,-0.7c0.04,-0.12 3.89,-11.58 17.02,-12.07c9.25,-0.34 17.8,-5.13 24.71,-13.83l1.12,-1.41l-0.46,1.74c-3.75,14.05 -7.79,20.8 -21.78,23.62c-6.7,1.35 -9.65,1.26 -12.02,1.18c-2.32,-0.07 -3.99,-0.12 -8.12,1.24l-0.7,0.23zm41.43,-24.78c-6.85,8.02 -15.17,12.43 -24.16,12.76c-10.71,0.4 -14.98,8.38 -16.05,10.84c3.73,-1.16 5.46,-1.1 7.62,-1.04c2.33,0.08 5.23,0.16 11.86,-1.17c13.02,-2.62 17.18,-8.79 20.73,-21.39z" fill="#4A6173" id="svg_878"/>
    </g>
    <g id="svg_879">
     <path d="m382.14,214.18c-0.03,0 -0.06,0 -0.09,-0.02c-0.09,-0.04 -0.14,-0.16 -0.09,-0.26c0.13,-0.27 3.37,-6.76 18.15,-8.07c14.55,-1.29 19.6,-10.21 19.65,-10.3c0.06,-0.1 0.17,-0.13 0.27,-0.08c0.09,0.05 0.13,0.17 0.08,0.26c-0.06,0.1 -5.2,9.2 -19.97,10.51c-14.53,1.29 -17.8,7.79 -17.83,7.85c-0.03,0.07 -0.1,0.11 -0.17,0.11z" fill="#4A6173" id="svg_880"/>
    </g>
    <g id="svg_881">
     <path d="m382.78,212.48l0.32,-0.48c4.99,-7.61 15.22,-8.12 18.58,-8.28c0.33,-0.02 0.58,-0.03 0.75,-0.05c0.11,-0.01 0.2,0.07 0.21,0.18c0.01,0.1 -0.06,0.2 -0.17,0.21c-0.17,0.01 -0.43,0.03 -0.77,0.04c-3.24,0.16 -12.94,0.65 -17.94,7.62c5.4,-1.87 9.61,-2.73 13.61,-2.8c6.28,-0.1 10.29,-1 12.24,-2.75c0.08,-0.07 0.2,-0.06 0.27,0.02c0.07,0.07 0.07,0.2 -0.01,0.27c-2.03,1.82 -6.11,2.75 -12.49,2.85c-4.1,0.07 -8.43,0.99 -14.05,2.98l-0.55,0.19z" fill="#4A6173" id="svg_882"/>
    </g>
   </g>
   <g id="svg_883">
    <g id="svg_884">
     <path d="m445.5,159.49c-0.14,0 -0.28,0 -0.43,0c-6.84,-0.06 -9.71,-0.75 -12.01,-1.31c-2.25,-0.55 -3.87,-0.94 -8.2,-0.46l-0.73,0.09l0.37,-0.65c0.06,-0.1 6.19,-10.54 19.13,-8.31c9.13,1.57 18.48,-1.35 27.03,-8.45l1.39,-1.15l-0.81,1.61c-6.5,12.85 -11.79,18.63 -25.74,18.63zm-17.24,-2.73c2.12,0 3.44,0.32 4.98,0.69c2.26,0.55 5.08,1.23 11.84,1.29c13.29,0.1 18.62,-5.06 24.69,-16.66c-8.35,6.44 -17.4,9.03 -26.26,7.51c-10.57,-1.81 -16.39,5.12 -17.94,7.31c1.04,-0.1 1.92,-0.14 2.69,-0.14z" fill="#4A6173" id="svg_885"/>
    </g>
    <g id="svg_886">
     <path d="m424.82,157.55c-0.04,0 -0.08,-0.02 -0.12,-0.04c-0.08,-0.07 -0.1,-0.19 -0.03,-0.28c0.18,-0.24 4.69,-5.92 19.42,-4.17c14.49,1.73 21.29,-5.96 21.35,-6.04c0.07,-0.08 0.2,-0.09 0.28,-0.02c0.08,0.07 0.09,0.2 0.02,0.28c-0.07,0.08 -6.97,7.92 -21.7,6.17c-14.51,-1.73 -19.02,3.96 -19.06,4.02c-0.04,0.05 -0.1,0.08 -0.16,0.08z" fill="#4A6173" id="svg_887"/>
    </g>
    <g id="svg_888">
     <path d="m448.2,156.77c-2.06,0 -4.55,-0.29 -7.5,-0.86c-4.02,-0.77 -8.45,-0.77 -14.36,0.02l-0.57,0.08l0.41,-0.41c6.45,-6.41 16.56,-4.81 19.88,-4.28c0.33,0.05 0.58,0.09 0.75,0.11c0.1,0.01 0.18,0.11 0.17,0.21c-0.01,0.11 -0.09,0.19 -0.22,0.18c-0.17,-0.02 -0.43,-0.06 -0.76,-0.12c-3.2,-0.5 -12.8,-2.02 -19.12,3.77c5.66,-0.72 9.97,-0.7 13.89,0.06c6.18,1.19 10.28,1.14 12.54,-0.18c0.1,-0.05 0.22,-0.02 0.27,0.07c0.06,0.1 0.02,0.22 -0.07,0.27c-1.24,0.72 -3,1.08 -5.31,1.08z" fill="#4A6173" id="svg_889"/>
    </g>
   </g>
   <g id="svg_890">
    <g id="svg_891">
     <path d="m394.4,176.6l-0.65,-0.35c-0.11,-0.06 -10.7,-5.9 -8.83,-18.9c1.32,-9.17 -1.86,-18.44 -9.18,-26.8l-1.19,-1.35l1.63,0.77c13.15,6.21 19.07,11.38 19.34,25.65c0.13,6.84 -0.49,9.72 -0.99,12.04c-0.48,2.27 -0.83,3.9 -0.23,8.21l0.1,0.73zm-16.96,-45.2c6.66,8.18 9.5,17.15 8.22,26.05c-1.52,10.61 5.57,16.25 7.79,17.74c-0.47,-3.88 -0.1,-5.57 0.35,-7.68c0.49,-2.29 1.09,-5.13 0.97,-11.88c-0.25,-13.28 -5.57,-18.47 -17.33,-24.23z" fill="#4A6173" id="svg_892"/>
    </g>
    <g id="svg_893">
     <path d="m393.93,176.12c-0.04,0 -0.08,-0.02 -0.12,-0.04c-0.24,-0.18 -6.05,-4.53 -4.69,-19.3c1.33,-14.56 -6.54,-21.12 -6.62,-21.18c-0.08,-0.07 -0.09,-0.19 -0.03,-0.28c0.07,-0.08 0.19,-0.09 0.28,-0.03c0.08,0.07 8.11,6.76 6.76,21.52c-1.34,14.56 4.47,18.91 4.53,18.95c0.09,0.07 0.11,0.19 0.05,0.27c-0.04,0.06 -0.1,0.09 -0.16,0.09z" fill="#4A6173" id="svg_894"/>
    </g>
    <g id="svg_895">
     <path d="m392.56,175.01l-0.42,-0.4c-6.59,-6.27 -5.26,-16.42 -4.82,-19.76c0.04,-0.33 0.08,-0.58 0.09,-0.75c0.01,-0.1 0.09,-0.19 0.21,-0.17c0.11,0 0.19,0.1 0.18,0.21c-0.02,0.17 -0.05,0.43 -0.09,0.76c-0.42,3.21 -1.69,12.85 4.28,19.02c-0.87,-5.65 -0.97,-9.95 -0.32,-13.9c1.03,-6.2 0.86,-10.3 -0.51,-12.53c-0.06,-0.09 -0.03,-0.21 0.06,-0.27c0.09,-0.05 0.21,-0.02 0.27,0.07c1.42,2.31 1.61,6.5 0.57,12.8c-0.67,4.03 -0.54,8.46 0.41,14.35l0.09,0.57z" fill="#4A6173" id="svg_896"/>
    </g>
   </g>
   <g id="svg_897">
    <g id="svg_898">
     <path d="m428.4,97.67l-0.03,-0.74c0,-0.12 -0.36,-12.22 11.79,-17.22c8.56,-3.52 14.93,-10.97 18.4,-21.53l0.56,-1.71l0.17,1.8c1.34,14.48 -0.11,22.2 -12.26,29.69c-5.82,3.59 -8.62,4.52 -10.87,5.27c-2.19,0.74 -3.78,1.27 -7.18,3.98l-0.58,0.46zm30.29,-37.59c-3.65,9.89 -9.93,16.9 -18.25,20.33c-9.91,4.08 -11.16,13.05 -11.3,15.72c3.09,-2.37 4.74,-2.92 6.78,-3.61c2.22,-0.74 4.97,-1.66 10.72,-5.2c11.31,-6.97 13.08,-14.19 12.05,-27.24z" fill="#4A6173" id="svg_899"/>
    </g>
    <g id="svg_900">
     <path d="m428.74,97.11c0,0 -0.01,0 -0.01,0c-0.11,-0.01 -0.19,-0.11 -0.18,-0.21c0.03,-0.31 0.82,-7.52 14.23,-13.86c13.21,-6.25 14.86,-16.37 14.88,-16.47c0.01,-0.11 0.12,-0.18 0.22,-0.17c0.11,0.02 0.18,0.12 0.16,0.23c-0.01,0.1 -1.68,10.42 -15.09,16.76c-13.19,6.24 -14.01,13.47 -14.01,13.54c-0.01,0.1 -0.1,0.18 -0.2,0.18z" fill="#4A6173" id="svg_901"/>
    </g>
    <g id="svg_902">
     <path d="m428.83,95.27l0.13,-0.56c2.06,-8.86 11.47,-12.88 14.57,-14.2c0.3,-0.13 0.53,-0.23 0.68,-0.3c0.1,-0.05 0.22,-0.01 0.26,0.09c0.05,0.1 0.01,0.21 -0.09,0.26c-0.15,0.07 -0.39,0.18 -0.7,0.31c-2.98,1.27 -11.92,5.08 -14.19,13.36c4.41,-3.62 8.07,-5.89 11.8,-7.34c5.86,-2.27 9.3,-4.5 10.52,-6.82c0.05,-0.1 0.17,-0.13 0.27,-0.08c0.09,0.05 0.13,0.17 0.08,0.26c-1.27,2.41 -4.78,4.7 -10.73,7c-3.82,1.48 -7.57,3.84 -12.15,7.66l-0.45,0.36z" fill="#4A6173" id="svg_903"/>
    </g>
   </g>
   <g id="svg_904">
    <g id="svg_905">
     <path d="m390.19,86.38l-0.38,-0.55c-0.06,-0.09 -6.18,-9.11 0.64,-18.79c4.8,-6.82 6.04,-15.55 3.57,-25.26l-0.4,-1.57l1,1.28c8.02,10.36 10.66,16.93 5.04,28.49c-2.69,5.55 -4.36,7.61 -5.71,9.27c-1.31,1.62 -2.26,2.79 -3.54,6.5l-0.22,0.63zm4.85,-43.22c2.01,9.28 0.63,17.65 -4.04,24.27c-5.56,7.9 -2.17,15.32 -0.99,17.42c1.21,-3.3 2.19,-4.51 3.42,-6.02c1.32,-1.63 2.97,-3.66 5.63,-9.14c5.22,-10.77 3.07,-17.11 -4.02,-26.53z" fill="#4A6173" id="svg_906"/>
    </g>
    <g id="svg_907">
     <path d="m390.09,85.81c-0.06,0 -0.12,-0.03 -0.15,-0.09c-0.13,-0.25 -3.01,-6.11 4.11,-17.42c7.02,-11.13 3.38,-19.63 3.34,-19.71c-0.03,-0.09 0,-0.19 0.09,-0.23c0.1,-0.04 0.2,0 0.23,0.09c0.04,0.08 3.76,8.74 -3.36,20.04c-7.01,11.12 -4.13,17.01 -4.1,17.07c0.04,0.08 0.01,0.19 -0.08,0.23c-0.02,0.02 -0.05,0.02 -0.08,0.02z" fill="#4A6173" id="svg_908"/>
    </g>
    <g id="svg_909">
     <path d="m389.37,84.35l-0.18,-0.49c-2.72,-7.73 2.49,-15.34 4.2,-17.84c0.17,-0.24 0.3,-0.43 0.38,-0.56c0.05,-0.08 0.16,-0.11 0.24,-0.06c0.09,0.05 0.11,0.16 0.06,0.24c-0.08,0.14 -0.22,0.33 -0.39,0.58c-1.65,2.41 -6.6,9.63 -4.32,17.02c1.6,-4.89 3.28,-8.39 5.42,-11.29c3.35,-4.56 4.89,-7.92 4.7,-10.27c-0.01,-0.1 0.07,-0.18 0.16,-0.19c0.1,-0.01 0.18,0.06 0.19,0.16c0.2,2.44 -1.36,5.88 -4.77,10.51c-2.18,2.97 -3.89,6.57 -5.54,11.69l-0.15,0.5z" fill="#4A6173" id="svg_910"/>
    </g>
   </g>
   <g id="svg_911">
    <g id="svg_912">
     <path d="m399.11,182.66l0.22,-0.71c1.28,-4.15 1.2,-5.82 1.08,-8.14c-0.12,-2.36 -0.27,-5.31 0.95,-12.04c2.55,-14.04 9.22,-18.21 23.19,-22.23l1.73,-0.5l-1.38,1.15c-8.57,7.08 -13.19,15.72 -13.35,24.98c-0.23,13.13 -11.62,17.21 -11.74,17.25l-0.7,0.24zm23.97,-41.91c-12.53,3.8 -18.61,8.07 -20.98,21.15c-1.2,6.65 -1.06,9.55 -0.94,11.88c0.11,2.15 0.2,3.88 -0.89,7.63c2.44,-1.11 10.34,-5.55 10.53,-16.26c0.15,-8.99 4.39,-17.39 12.28,-24.4z" fill="#4A6173" id="svg_913"/>
    </g>
    <g id="svg_914">
     <path d="m399.69,182.26c-0.07,0 -0.14,-0.04 -0.18,-0.11c-0.04,-0.1 -0.01,-0.21 0.09,-0.26c0.07,-0.04 6.5,-3.43 7.51,-17.98c1.02,-14.8 10.02,-20.11 10.11,-20.17c0.09,-0.05 0.21,-0.02 0.26,0.07c0.06,0.1 0.03,0.22 -0.07,0.27c-0.09,0.05 -8.91,5.28 -9.91,19.85c-1.03,14.81 -7.45,18.17 -7.72,18.31c-0.03,0.01 -0.06,0.02 -0.09,0.02z" fill="#4A6173" id="svg_915"/>
    </g>
    <g id="svg_916">
     <path d="m401.18,181.38l0.18,-0.54c1.88,-5.67 2.72,-10.02 2.7,-14.11c-0.02,-6.38 0.83,-10.48 2.61,-12.54c0.07,-0.09 0.19,-0.1 0.28,-0.02c0.08,0.07 0.09,0.19 0.02,0.27c-1.72,1.98 -2.54,6 -2.52,12.29c0.01,4 -0.77,8.23 -2.53,13.66c6.88,-5.13 7.17,-14.84 7.27,-18.08c0.01,-0.34 0.01,-0.6 0.03,-0.77c0.01,-0.11 0.1,-0.19 0.21,-0.18c0.1,0.01 0.18,0.1 0.18,0.21c-0.02,0.16 -0.02,0.42 -0.03,0.75c-0.1,3.36 -0.41,13.59 -7.92,18.74l-0.48,0.32z" fill="#4A6173" id="svg_917"/>
    </g>
   </g>
   <g id="svg_918">
    <g id="svg_919">
     <path d="m396.74,143.3l-0.36,-0.65c-2.09,-3.81 -3.35,-4.91 -5.09,-6.44c-1.78,-1.56 -4,-3.5 -7.99,-9.06c-8.31,-11.6 -6.67,-19.28 0.17,-32.12l0.84,-1.6l-0.14,1.8c-0.87,11.08 2.12,20.41 8.66,26.97c9.27,9.3 4.27,20.32 4.22,20.43l-0.31,0.67zm-13.42,-46.37c-5.99,11.64 -7.15,18.98 0.59,29.78c3.93,5.49 6.12,7.4 7.87,8.94c1.63,1.42 2.93,2.56 4.87,5.95c0.9,-2.53 3.2,-11.29 -4.35,-18.87c-6.35,-6.37 -9.44,-15.26 -8.98,-25.8z" fill="#4A6173" id="svg_920"/>
    </g>
    <g id="svg_921">
     <path d="m396.71,142.67c-0.02,0 -0.04,-0.01 -0.06,-0.01c-0.1,-0.03 -0.16,-0.14 -0.13,-0.25c0.02,-0.06 2.07,-7.05 -7.69,-17.9c-9.91,-11.03 -7.47,-21.19 -7.44,-21.29c0.02,-0.1 0.13,-0.17 0.23,-0.14c0.11,0.03 0.17,0.13 0.14,0.24c-0.02,0.1 -2.41,10.07 7.36,20.93c9.92,11.04 7.87,17.99 7.77,18.28c-0.02,0.08 -0.1,0.14 -0.18,0.14z" fill="#4A6173" id="svg_922"/>
    </g>
    <g id="svg_923">
     <path d="m397.26,140.93l-0.27,-0.52c-2.75,-5.29 -5.3,-8.91 -8.25,-11.75c-4.6,-4.42 -6.95,-7.89 -7.19,-10.6c-0.01,-0.11 0.07,-0.2 0.18,-0.21c0.11,-0.01 0.2,0.07 0.21,0.17c0.23,2.62 2.54,6 7.07,10.36c2.88,2.77 5.38,6.28 8.05,11.33c1.1,-8.51 -5.67,-15.48 -7.93,-17.81c-0.23,-0.24 -0.41,-0.43 -0.53,-0.56c-0.07,-0.08 -0.06,-0.2 0.02,-0.27c0.08,-0.07 0.2,-0.06 0.27,0.02c0.11,0.12 0.29,0.31 0.52,0.54c2.35,2.42 9.48,9.76 7.95,18.73l-0.1,0.57z" fill="#4A6173" id="svg_924"/>
    </g>
   </g>
   <g id="svg_925">
    <g id="svg_926">
     <path d="m369.33,136.31l-0.49,-0.56c-2.88,-3.25 -4.35,-4.05 -6.38,-5.16c-2.08,-1.13 -4.68,-2.54 -9.79,-7.09c-10.65,-9.49 -10.73,-17.35 -6.89,-31.38l0.48,-1.73l0.25,1.78c1.58,11 6.55,19.44 14.37,24.41c11.09,7.04 8.63,18.89 8.61,19.01l-0.16,0.72zm-23.28,-42.29c-3.28,12.67 -2.8,20.08 7.12,28.92c5.05,4.49 7.6,5.88 9.65,6.99c1.89,1.03 3.42,1.86 6.05,4.74c0.32,-2.67 0.65,-11.72 -8.39,-17.46c-7.59,-4.82 -12.56,-12.81 -14.43,-23.19z" fill="#4A6173" id="svg_927"/>
    </g>
    <g id="svg_928">
     <path d="m369.12,135.7c0,0 -0.01,0 -0.02,0c-0.1,-0.01 -0.18,-0.1 -0.17,-0.21c0,-0.07 0.46,-7.33 -11.44,-15.78c-12.09,-8.58 -11.94,-19.03 -11.94,-19.13c0,-0.11 0.09,-0.19 0.19,-0.19c0.01,0 0.01,0 0.01,0c0.11,0 0.19,0.09 0.19,0.2c0,0.1 -0.14,10.35 11.78,18.81c12.1,8.58 11.62,15.82 11.59,16.12c0,0.1 -0.09,0.18 -0.19,0.18z" fill="#4A6173" id="svg_929"/>
    </g>
    <g id="svg_930">
     <path d="m369.32,133.88l-0.37,-0.44c-3.85,-4.56 -7.13,-7.54 -10.63,-9.66c-5.46,-3.3 -8.52,-6.17 -9.35,-8.76c-0.03,-0.1 0.02,-0.21 0.13,-0.25c0.1,-0.03 0.21,0.03 0.24,0.13c0.8,2.5 3.8,5.29 9.18,8.55c3.42,2.07 6.62,4.95 10.34,9.28c-0.8,-8.54 -8.93,-13.85 -11.65,-15.62c-0.28,-0.19 -0.5,-0.33 -0.64,-0.43c-0.09,-0.07 -0.1,-0.19 -0.04,-0.28c0.06,-0.08 0.18,-0.1 0.27,-0.04c0.14,0.1 0.35,0.24 0.63,0.42c2.81,1.84 11.39,7.44 11.86,16.52l0.03,0.58z" fill="#4A6173" id="svg_931"/>
    </g>
   </g>
   <g id="svg_932">
    <g id="svg_933">
     <path d="m388.68,171.38l-0.66,-0.33c-3.91,-1.91 -5.57,-2.08 -7.87,-2.32c-2.36,-0.25 -5.3,-0.56 -11.76,-2.81c-13.48,-4.68 -16.56,-11.91 -18.38,-26.34l-0.22,-1.79l0.92,1.55c5.67,9.56 13.49,15.46 22.61,17.05c12.94,2.26 15.21,14.14 15.23,14.26l0.13,0.73zm-37.69,-30.16c1.81,12.97 5.1,19.63 17.65,24c6.38,2.21 9.26,2.52 11.59,2.76c2.14,0.23 3.87,0.41 7.4,2.06c-0.73,-2.58 -3.89,-11.07 -14.44,-12.91c-8.86,-1.55 -16.5,-7.04 -22.2,-15.91z" fill="#4A6173" id="svg_934"/>
    </g>
    <g id="svg_935">
     <path d="m388.18,170.91c-0.08,0 -0.16,-0.05 -0.18,-0.13c-0.02,-0.07 -2.38,-6.95 -16.61,-10.2c-14.46,-3.3 -18.32,-13.01 -18.36,-13.11c-0.03,-0.1 0.02,-0.21 0.12,-0.25c0.09,-0.04 0.21,0.01 0.25,0.12c0.03,0.09 3.84,9.61 18.08,12.86c14.47,3.3 16.8,10.17 16.89,10.46c0.03,0.1 -0.02,0.21 -0.13,0.24c-0.02,0.01 -0.04,0.01 -0.06,0.01z" fill="#4A6173" id="svg_936"/>
    </g>
    <g id="svg_937">
     <path d="m387.74,169.13l-0.51,-0.26c-5.3,-2.73 -9.47,-4.23 -13.52,-4.85c-6.31,-0.96 -10.23,-2.44 -11.99,-4.51c-0.07,-0.08 -0.06,-0.21 0.02,-0.28c0.09,-0.07 0.21,-0.06 0.28,0.03c1.69,2 5.54,3.43 11.75,4.38c3.95,0.6 8.01,2.03 13.11,4.61c-4.01,-7.58 -13.56,-9.37 -16.75,-9.97c-0.33,-0.06 -0.58,-0.11 -0.75,-0.15c-0.11,-0.03 -0.17,-0.13 -0.15,-0.24c0.03,-0.1 0.13,-0.17 0.24,-0.14c0.16,0.04 0.41,0.08 0.74,0.15c3.3,0.62 13.36,2.51 17.28,10.71l0.25,0.52z" fill="#4A6173" id="svg_938"/>
    </g>
   </g>
   <g id="svg_939">
    <g id="svg_940">
     <path d="m421.78,111.4l-0.15,-0.72c-0.9,-4.26 -1.79,-5.67 -3.02,-7.64c-1.26,-2.01 -2.82,-4.51 -5.04,-10.98c-4.61,-13.5 -0.82,-20.39 9.43,-30.71l1.27,-1.28l-0.66,1.68c-4.03,10.36 -3.85,20.15 0.52,28.32c6.19,11.58 -1.77,20.69 -1.85,20.78l-0.5,0.55zm0.52,-48.27c-9.09,9.42 -12.32,16.11 -8.02,28.68c2.19,6.4 3.73,8.86 4.97,10.84c1.14,1.83 2.06,3.3 2.94,7.09c1.59,-2.16 6.32,-9.88 1.27,-19.32c-4.24,-7.93 -4.63,-17.33 -1.16,-27.29z" fill="#4A6173" id="svg_941"/>
    </g>
    <g id="svg_942">
     <path d="m422,110.79c-0.04,0 -0.08,-0.01 -0.11,-0.03c-0.09,-0.06 -0.11,-0.18 -0.06,-0.27c0.05,-0.06 4.01,-6.16 -2.2,-19.36c-6.31,-13.42 -1.04,-22.45 -0.99,-22.54c0.06,-0.09 0.17,-0.12 0.27,-0.06c0.09,0.05 0.12,0.17 0.06,0.26c-0.05,0.09 -5.21,8.95 1.01,22.17c6.32,13.43 2.35,19.5 2.18,19.75c-0.04,0.05 -0.1,0.08 -0.16,0.08z" fill="#4A6173" id="svg_943"/>
    </g>
    <g id="svg_944">
     <path d="m422.97,109.28l-0.11,-0.57c-1.11,-5.86 -2.51,-10.06 -4.51,-13.63c-3.13,-5.56 -4.38,-9.56 -3.83,-12.23c0.02,-0.1 0.13,-0.17 0.23,-0.15c0.1,0.02 0.17,0.13 0.15,0.23c-0.53,2.57 0.71,6.48 3.79,11.96c1.96,3.48 3.34,7.56 4.44,13.16c3.5,-7.82 -0.97,-16.45 -2.46,-19.33c-0.16,-0.3 -0.28,-0.53 -0.35,-0.69c-0.04,-0.1 0,-0.21 0.1,-0.26c0.09,-0.04 0.21,0 0.26,0.1c0.07,0.15 0.18,0.38 0.34,0.67c1.54,2.99 6.26,12.08 2.21,20.22l-0.26,0.52z" fill="#4A6173" id="svg_945"/>
    </g>
   </g>
   <g id="svg_946">
    <g id="svg_947">
     <path d="m428.63,153.09l0.23,-0.71c1.35,-4.13 1.29,-5.8 1.22,-8.11c-0.08,-2.37 -0.18,-5.32 1.16,-12.03c2.78,-14 9.52,-18.05 23.56,-21.83l1.74,-0.47l-1.41,1.13c-8.68,6.93 -13.45,15.48 -13.77,24.74c-0.46,13.13 -11.92,17.01 -12.03,17.05l-0.7,0.23zm24.68,-41.49c-12.59,3.58 -18.74,7.75 -21.33,20.78c-1.32,6.63 -1.23,9.53 -1.15,11.86c0.07,2.16 0.13,3.89 -1.02,7.62c2.46,-1.07 10.43,-5.37 10.8,-16.07c0.32,-8.99 4.7,-17.32 12.7,-24.19z" fill="#4A6173" id="svg_948"/>
    </g>
    <g id="svg_949">
     <path d="m429.21,152.7c-0.07,0 -0.14,-0.04 -0.17,-0.11c-0.05,-0.1 -0.01,-0.22 0.09,-0.26c0.06,-0.04 6.56,-3.32 7.81,-17.85c1.28,-14.78 10.37,-19.94 10.46,-19.99c0.09,-0.05 0.21,-0.02 0.27,0.08c0.05,0.09 0.01,0.21 -0.08,0.26c-0.09,0.05 -9,5.13 -10.26,19.68c-1.28,14.78 -7.76,18.04 -8.03,18.17c-0.03,0.01 -0.06,0.02 -0.09,0.02z" fill="#4A6173" id="svg_950"/>
    </g>
    <g id="svg_951">
     <path d="m430.72,151.85l0.19,-0.55c1.98,-5.63 2.88,-9.96 2.94,-14.05c0.09,-6.38 1.01,-10.47 2.82,-12.5c0.08,-0.08 0.2,-0.09 0.28,-0.01c0.08,0.07 0.09,0.19 0.02,0.27c-1.75,1.96 -2.64,5.96 -2.73,12.24c-0.06,4 -0.91,8.22 -2.77,13.62c6.96,-5.01 7.43,-14.72 7.58,-17.96c0.02,-0.33 0.03,-0.59 0.05,-0.77c0.01,-0.1 0.08,-0.18 0.21,-0.17c0.1,0.01 0.18,0.11 0.17,0.21c-0.01,0.17 -0.02,0.42 -0.04,0.75c-0.16,3.36 -0.65,13.59 -8.24,18.6l-0.48,0.32z" fill="#4A6173" id="svg_952"/>
    </g>
   </g>
  </g>
 </g>
</svg>