<?xml version="1.0"?>
<svg width="500" height="500" xmlns="http://www.w3.org/2000/svg" xmlns:svg="http://www.w3.org/2000/svg" enable-background="new 0 0 500 500" version="1.1" xml:space="preserve">
 <g class="layer">
  <title>Layer 1</title>
  <g id="svg_1187" transform="translate(65.745 0) translate(0 2.595) matrix(2.16177 0 0 2.16177 -32.4705 -530.755)">
   <g id="svg_1188">
    <g id="svg_1189">
     <g id="svg_1190">
      <g id="svg_1191">
       <g id="svg_1192">
        <g id="svg_1193">
         <g id="svg_1194">
          <path d="m78.44,327.6c0.12,-0.34 0.24,-0.69 0.29,-1.06c0.09,-0.71 0.18,-1.49 0.65,-2.06c0.85,-14.85 -0.67,-28.47 -5.41,-31.3c-1.31,-0.78 -2.61,-1.03 -3.83,-0.71c-2.74,0.69 -4.65,3.93 -6.05,6.29c-0.61,1.03 -1.14,1.91 -1.55,2.29c-0.77,0.7 -0.83,0.65 -1.35,0.18c-0.51,-0.46 -1.28,-1.15 -2.99,-1.54c-0.55,-0.13 -1.03,-0.07 -1.43,0.19c-0.91,0.58 -1.22,2.02 -1.51,3.4c-0.26,1.22 -0.53,2.47 -1.14,2.76c-0.27,0.13 -0.64,0.07 -1.11,-0.17c-2.17,-1.11 -5.52,-1.51 -7.74,0.22c-1.65,1.29 -3.3,4.26 -1.73,11.1c0.91,3.98 3.61,7.78 6.93,11.14c0.59,0.03 1,0.53 1.51,0.77c0.2,0.09 0.39,0.16 0.58,0.22c-3.95,-3.65 -7.33,-7.88 -8.33,-12.29c-1.17,-5.12 -0.66,-8.71 1.48,-10.38c0.67,-0.52 1.45,-0.82 2.28,-0.95c1.62,-0.26 3.39,0.14 4.7,0.8c0.67,0.35 1.26,0.41 1.73,0.18c0.93,-0.44 1.22,-1.8 1.53,-3.25c0.27,-1.24 0.54,-2.53 1.2,-2.95c0.24,-0.15 0.53,-0.18 0.89,-0.1c1.53,0.35 2.19,0.95 2.67,1.38c0.74,0.66 1.18,0.84 2.31,-0.18c0.49,-0.45 1.02,-1.34 1.68,-2.46c1.33,-2.25 3.16,-5.34 5.61,-5.96c1.05,-0.27 2.13,-0.06 3.29,0.63c4.78,2.86 6.06,18.18 4.84,33.81z" fill="#4A6173" id="svg_1195"/>
         </g>
        </g>
       </g>
       <g id="svg_1196">
        <g id="svg_1197">
         <g id="svg_1198">
          <path d="m69.35,338.78c-13.56,-7.82 -19.16,-20.04 -19.22,-20.18c-0.04,-0.1 -0.16,-0.15 -0.26,-0.1c-0.09,0.04 -0.14,0.16 -0.09,0.26c0.06,0.14 5.68,12.41 19.29,20.31c0.09,-0.09 0.19,-0.19 0.28,-0.29z" fill="#4A6173" id="svg_1199"/>
         </g>
        </g>
        <g id="svg_1200">
         <g id="svg_1201">
          <path d="m75.17,336.47c0.13,0.01 0.26,0.03 0.39,0.05c0.63,-12.32 -0.5,-23.52 -3.09,-29.46c-0.04,-0.1 -0.15,-0.14 -0.26,-0.1c-0.09,0.04 -0.14,0.16 -0.1,0.26c2.56,5.88 3.69,17.01 3.06,29.25z" fill="#4A6173" id="svg_1202"/>
         </g>
        </g>
       </g>
       <g id="svg_1203">
        <g id="svg_1204">
         <g id="svg_1205">
          <path d="m73.66,336.49c-1.99,-8.01 -4.94,-17.15 -6.85,-20.01c-0.06,-0.09 -0.18,-0.12 -0.27,-0.06c-0.09,0.06 -0.12,0.18 -0.06,0.27c1.86,2.78 4.81,11.93 6.78,19.84c0.13,-0.02 0.27,-0.03 0.4,-0.04z" fill="#4A6173" id="svg_1206"/>
         </g>
        </g>
        <g id="svg_1207">
         <g id="svg_1208">
          <path d="m70.17,337.77c0.03,-0.04 0.06,-0.06 0.09,-0.09c-7.08,-7.76 -14.32,-22.73 -14.41,-22.91c-0.05,-0.1 -0.16,-0.14 -0.26,-0.09c-0.1,0.04 -0.14,0.16 -0.09,0.26c0.36,0.75 7.44,15.37 14.5,23.05c0.06,-0.08 0.12,-0.14 0.17,-0.22z" fill="#4A6173" id="svg_1209"/>
         </g>
        </g>
       </g>
       <g id="svg_1210">
        <g id="svg_1211">
         <g id="svg_1212">
          <path d="m77.16,315.21c0,0 -0.01,0 -0.01,0c-0.11,0.01 -0.2,-0.07 -0.21,-0.18c-0.88,-11.24 -5.53,-18.18 -5.58,-18.25c-0.06,-0.09 -0.03,-0.21 0.06,-0.27c0.08,-0.06 0.2,-0.04 0.27,0.05c0.04,0.07 4.75,7.1 5.64,18.44c0,0.1 -0.07,0.19 -0.17,0.21z" fill="#4A6173" id="svg_1213"/>
         </g>
        </g>
       </g>
       <g id="svg_1214">
        <g id="svg_1215">
         <g id="svg_1216">
          <path d="m73.19,326.81c0,0 0,0 0,0c-0.11,0.01 -0.21,-0.06 -0.22,-0.17c-1.4,-11.91 -7.78,-22.19 -7.85,-22.29c-0.05,-0.09 -0.02,-0.21 0.07,-0.27c0.09,-0.06 0.21,-0.03 0.26,0.06c0.07,0.11 6.49,10.46 7.91,22.46c0.01,0.1 -0.06,0.19 -0.17,0.21z" fill="#4A6173" id="svg_1217"/>
         </g>
        </g>
       </g>
      </g>
      <g id="svg_1218">
       <g id="svg_1219">
        <g id="svg_1220">
         <g id="svg_1221">
          <path d="m31.12,322.85c-1.33,0.74 -2.18,1.74 -2.52,2.96c-0.76,2.71 1.08,5.99 2.43,8.38c0.59,1.04 1.09,1.94 1.21,2.49c0.23,1.01 0.16,1.04 -0.51,1.26c-0.66,0.21 -1.64,0.53 -2.84,1.81c-0.38,0.42 -0.56,0.87 -0.54,1.34c0.05,1.08 1.14,2.06 2.2,3.01c0.92,0.83 1.87,1.69 1.82,2.36c-0.03,0.3 -0.26,0.59 -0.7,0.88c-2.04,1.33 -4.07,4.02 -3.67,6.81c0.29,2.08 2.04,4.99 8.75,7.05c2.85,0.87 6.08,0.87 9.41,0.34c6.37,-1.01 13.01,-3.97 17.75,-6.46c0.18,-0.22 0.37,-0.42 0.58,-0.62l-0.08,-0.48c-7.05,3.76 -19.16,9.08 -27.45,6.54c-5.03,-1.54 -7.88,-3.78 -8.26,-6.47c-0.35,-2.48 1.5,-4.91 3.36,-6.11c0.63,-0.42 0.97,-0.89 1.02,-1.42c0.08,-1.03 -0.96,-1.96 -2.06,-2.95c-0.95,-0.85 -1.93,-1.73 -1.96,-2.51c-0.01,-0.28 0.1,-0.55 0.36,-0.82c1.07,-1.15 1.91,-1.42 2.53,-1.63c0.94,-0.31 1.32,-0.6 0.99,-2.09c-0.14,-0.65 -0.65,-1.55 -1.29,-2.68c-1.29,-2.28 -3.05,-5.41 -2.37,-7.84c0.3,-1.05 1.01,-1.88 2.19,-2.53c0.46,-0.26 1,-0.43 1.61,-0.53c6.75,-1.08 22.27,7.16 35.26,16.89c0.17,-0.17 0.33,-0.35 0.5,-0.52c-14.61,-10.97 -31.86,-19.73 -37.72,-16.46z" fill="#4A6173" id="svg_1222"/>
         </g>
        </g>
       </g>
       <g id="svg_1223">
        <g id="svg_1224">
         <g id="svg_1225">
          <path d="m68.42,349.55c-13.57,7.9 -27.01,6.65 -27.16,6.63c-0.11,-0.01 -0.2,0.07 -0.21,0.18c-0.01,0.1 0.06,0.2 0.17,0.21c0.08,0.01 4.14,0.39 10.03,-0.55c4.94,-0.79 11.17,-2.52 17.42,-6.16c-0.08,-0.1 -0.17,-0.2 -0.25,-0.31z" fill="#4A6173" id="svg_1226"/>
         </g>
        </g>
        <g id="svg_1227">
         <g id="svg_1228">
          <path d="m42.36,331.46c5.94,0.66 15.19,4.67 24.75,10.59c0.03,-0.13 0.07,-0.25 0.12,-0.38c-9.58,-5.92 -18.85,-9.93 -24.82,-10.6c-0.11,-0.01 -0.21,0.06 -0.22,0.17c-0.01,0.11 0.07,0.2 0.17,0.22z" fill="#4A6173" id="svg_1229"/>
         </g>
        </g>
       </g>
       <g id="svg_1230">
        <g id="svg_1231">
         <g id="svg_1232">
          <path d="m67.69,348.29c-10.26,2.22 -26.69,1.04 -26.9,1.03c-0.11,-0.01 -0.2,0.07 -0.2,0.18c-0.01,0.11 0.07,0.2 0.18,0.21c0.76,0.05 14.5,1.04 24.63,-0.57c0.85,-0.14 1.68,-0.3 2.47,-0.47c-0.06,-0.12 -0.12,-0.25 -0.18,-0.38z" fill="#4A6173" id="svg_1233"/>
         </g>
        </g>
        <g id="svg_1234">
         <g id="svg_1235">
          <path d="m47.77,341.06c3.12,-0.21 11.58,1.55 19.08,3.61c0,-0.13 0,-0.27 0,-0.41c-7.54,-2.08 -15.9,-3.8 -19.11,-3.59c-0.11,0.01 -0.19,0.1 -0.18,0.21c0.01,0.11 0.1,0.19 0.21,0.18z" fill="#4A6173" id="svg_1236"/>
         </g>
        </g>
       </g>
       <g id="svg_1237">
        <g id="svg_1238">
         <g id="svg_1239">
          <path d="m51.66,331.19c-0.04,0 -0.08,0 -0.11,-0.02c-10.18,-4.84 -18.52,-4.28 -18.6,-4.27c-0.11,0 -0.2,-0.08 -0.21,-0.18c-0.01,-0.11 0.08,-0.19 0.18,-0.21c0.08,-0.01 8.52,-0.58 18.79,4.31c0.1,0.05 0.14,0.16 0.09,0.26c-0.02,0.06 -0.08,0.1 -0.14,0.11z" fill="#4A6173" id="svg_1240"/>
         </g>
        </g>
       </g>
       <g id="svg_1241">
        <g id="svg_1242">
         <g id="svg_1243">
          <path d="m59.73,340.42c-0.03,0.01 -0.07,0 -0.1,-0.01c-11.02,-4.73 -23.11,-4.33 -23.23,-4.33c-0.11,0.01 -0.2,-0.08 -0.21,-0.19c0,-0.1 0.08,-0.19 0.19,-0.2c0.12,0 12.3,-0.4 23.4,4.36c0.1,0.04 0.15,0.16 0.1,0.26c-0.03,0.06 -0.08,0.1 -0.15,0.11z" fill="#4A6173" id="svg_1244"/>
         </g>
        </g>
       </g>
      </g>
      <g id="svg_1245">
       <g id="svg_1246">
        <g id="svg_1247">
         <g id="svg_1248">
          <path d="m79.45,351.93c-0.21,0.12 -0.43,0.22 -0.65,0.32c0.11,0.29 0.16,0.48 0.16,0.49l0.01,0.02c0.08,0.24 8.08,23.57 1.44,34.55c-2.73,4.5 -5.59,6.72 -8.29,6.42c-2.49,-0.26 -4.4,-2.64 -5.11,-4.74c-0.25,-0.72 -0.63,-1.17 -1.13,-1.34c-0.25,-0.08 -0.51,-0.09 -0.79,-0.05c-0.79,0.12 -1.66,0.71 -2.57,1.32c-1.05,0.71 -2.15,1.45 -2.91,1.29c-0.28,-0.06 -0.51,-0.23 -0.71,-0.55c-0.85,-1.32 -0.92,-2.2 -0.96,-2.85c-0.07,-0.99 -0.26,-1.42 -1.79,-1.47c-0.66,-0.02 -1.66,0.25 -2.91,0.59c-2.53,0.69 -5.99,1.64 -8.18,0.38c-0.95,-0.54 -1.58,-1.44 -1.92,-2.74c-1.7,-6.32 12.02,-21.61 26.3,-32.89c-0.17,-0.16 -0.35,-0.33 -0.5,-0.5c-14.72,11.62 -28.29,26.9 -26.49,33.58c0.39,1.47 1.15,2.54 2.26,3.17c2.44,1.4 6.07,0.41 8.72,-0.31c1.15,-0.32 2.14,-0.59 2.7,-0.57c1.05,0.03 1.05,0.11 1.1,0.81c0.05,0.69 0.12,1.72 1.07,3.19c0.31,0.47 0.7,0.76 1.16,0.86c1.06,0.22 2.28,-0.6 3.46,-1.4c1.03,-0.69 2.09,-1.4 2.73,-1.18c0.29,0.09 0.51,0.38 0.68,0.89c0.79,2.3 2.91,4.92 5.71,5.22c0.41,0.05 0.87,0.04 1.37,-0.04c2.02,-0.32 4.69,-1.91 7.61,-6.72c6.79,-11.22 -0.98,-34 -1.37,-35.14c-0.02,-0.06 -0.09,-0.29 -0.2,-0.61z" fill="#4A6173" id="svg_1249"/>
         </g>
        </g>
       </g>
       <g id="svg_1250">
        <g id="svg_1251">
         <g id="svg_1252">
          <path d="m71.05,351.9c-8.82,8.29 -15.63,16.95 -17.87,22.93c-0.04,0.1 0.02,0.21 0.12,0.25c0.09,0.03 0.21,-0.02 0.25,-0.12c2.22,-5.94 9.02,-14.58 17.84,-22.85c-0.11,-0.06 -0.22,-0.13 -0.34,-0.21z" fill="#4A6173" id="svg_1253"/>
         </g>
        </g>
        <g id="svg_1254">
         <g id="svg_1255">
          <path d="m77.07,352.81c5,15.66 0.24,29.12 0.18,29.27c-0.03,0.1 0.02,0.21 0.12,0.25c0.03,0.01 0.07,0.01 0.1,0.01c0.06,-0.01 0.12,-0.06 0.15,-0.13c0.05,-0.14 4.85,-13.7 -0.16,-29.48c-0.13,0.03 -0.26,0.06 -0.39,0.08z" fill="#4A6173" id="svg_1256"/>
         </g>
        </g>
       </g>
       <g id="svg_1257">
        <g id="svg_1258">
         <g id="svg_1259">
          <path d="m72.86,352.76c-4.17,7.16 -8.44,15.84 -9.06,19.24c-0.02,0.11 0.05,0.21 0.15,0.23c0.11,0.02 0.21,-0.05 0.23,-0.16c0.61,-3.3 4.89,-11.99 9,-19.07c-0.14,-0.03 -0.25,-0.12 -0.32,-0.24z" fill="#4A6173" id="svg_1260"/>
         </g>
        </g>
        <g id="svg_1261">
         <g id="svg_1262">
          <path d="m76.09,352.91c0.18,10.42 -5.54,27.74 -5.61,27.94c-0.03,0.1 0.02,0.21 0.13,0.25c0.03,0.01 0.06,0.01 0.09,0.01c0.07,-0.02 0.13,-0.06 0.15,-0.13c0.28,-0.83 5.85,-17.71 5.63,-28.1c-0.13,0.01 -0.26,0.02 -0.39,0.03z" fill="#4A6173" id="svg_1263"/>
         </g>
        </g>
       </g>
       <g id="svg_1264">
        <g id="svg_1265">
         <g id="svg_1266">
          <path d="m46.66,383.14c-0.02,0 -0.04,0 -0.06,0c-0.11,-0.02 -0.18,-0.12 -0.16,-0.23c0.01,-0.08 1.52,-8.41 8.78,-17.17c0.06,-0.08 0.19,-0.09 0.27,-0.03c0.08,0.07 0.09,0.2 0.03,0.28c-7.19,8.68 -8.68,16.91 -8.7,16.99c-0.01,0.08 -0.08,0.14 -0.16,0.16z" fill="#4A6173" id="svg_1267"/>
         </g>
        </g>
       </g>
       <g id="svg_1268">
        <g id="svg_1269">
         <g id="svg_1270">
          <path d="m56.41,382.03c-0.02,0.01 -0.04,0.01 -0.07,0c-0.1,-0.02 -0.17,-0.12 -0.15,-0.23c0.03,-0.12 2.61,-12.02 9.95,-21.62c0.06,-0.09 0.19,-0.11 0.27,-0.04c0.09,0.06 0.1,0.19 0.04,0.27c-7.28,9.53 -9.85,21.35 -9.88,21.47c-0.02,0.08 -0.08,0.14 -0.16,0.15z" fill="#4A6173" id="svg_1271"/>
         </g>
        </g>
       </g>
      </g>
      <g id="svg_1272">
       <g id="svg_1273">
        <g id="svg_1274">
         <g id="svg_1275">
          <path d="m117.36,347.85c-6.34,-5.49 -18.32,-5.91 -26.46,-5.45c-0.2,0.1 -0.4,0.22 -0.59,0.34c-0.16,0.11 -0.3,0.09 -0.42,0.02c-0.03,0.01 -0.05,0.04 -0.08,0.04c-0.78,0.15 -1.54,0.38 -2.29,0.61c7.68,-0.7 22.35,-1.1 29.37,4.98c3.97,3.44 5.68,6.64 4.94,9.25c-0.69,2.41 -3.36,3.89 -5.54,4.24c-0.75,0.12 -1.26,0.42 -1.51,0.89c-0.49,0.91 0.08,2.18 0.69,3.52c0.52,1.16 1.06,2.36 0.78,3.09c-0.11,0.27 -0.32,0.46 -0.66,0.61c-1.44,0.61 -2.33,0.53 -2.97,0.46c-0.99,-0.09 -1.45,0.02 -1.76,1.52c-0.13,0.65 -0.03,1.67 0.1,2.97c0.25,2.61 0.6,6.18 -1.01,8.12c-0.69,0.85 -1.68,1.32 -3.02,1.44c-6.18,0.58 -17.99,-13.89 -26.62,-29.02l0.31,1.97c8.76,14.95 20.05,28.35 26.38,27.76c0.15,-0.01 0.31,-0.03 0.46,-0.06c1.29,-0.21 2.32,-0.75 3.04,-1.63c1.8,-2.18 1.43,-5.92 1.16,-8.65c-0.11,-1.19 -0.21,-2.21 -0.1,-2.76c0.21,-1.03 0.28,-1.02 0.98,-0.95c0.69,0.07 1.71,0.17 3.33,-0.51c0.51,-0.22 0.86,-0.56 1.04,-1.01c0.39,-1 -0.21,-2.34 -0.8,-3.64c-0.5,-1.13 -1.03,-2.29 -0.71,-2.89c0.15,-0.27 0.47,-0.44 1,-0.52c2.4,-0.39 5.34,-2.04 6.11,-4.75c0.58,-2.02 0.15,-5.39 -5.15,-9.99z" fill="#4A6173" id="svg_1276"/>
         </g>
        </g>
       </g>
       <g id="svg_1277">
        <g id="svg_1278">
         <g id="svg_1279">
          <path d="m100.19,372.79c-5.52,-3.22 -12.95,-11.46 -19.65,-21.65c-0.1,0.09 -0.21,0.16 -0.31,0.24c6.73,10.22 14.21,18.5 19.77,21.74c0.04,0.03 0.09,0.04 0.13,0.03c0.05,-0.01 0.1,-0.04 0.13,-0.1c0.06,-0.09 0.03,-0.21 -0.07,-0.26z" fill="#4A6173" id="svg_1280"/>
         </g>
        </g>
        <g id="svg_1281">
         <g id="svg_1282">
          <path d="m111.4,350.28c-0.14,-0.08 -12.09,-6.75 -27.89,-4.95c-0.01,0.13 -0.03,0.26 -0.05,0.4c15.72,-1.82 27.61,4.81 27.74,4.89c0.1,0.05 0.22,0.02 0.27,-0.07c0.05,-0.1 0.02,-0.22 -0.07,-0.27z" fill="#4A6173" id="svg_1283"/>
         </g>
        </g>
       </g>
       <g id="svg_1284">
        <g id="svg_1285">
         <g id="svg_1286">
          <path d="m99.14,361.82c-3.16,-1.16 -11.03,-6.87 -17.32,-12.11c-0.07,0.11 -0.15,0.22 -0.23,0.32c6.35,5.31 14.16,10.97 17.42,12.15c0.03,0.01 0.06,0.02 0.09,0.01c0.07,-0.01 0.13,-0.06 0.15,-0.12c0.04,-0.1 -0.01,-0.21 -0.11,-0.25z" fill="#4A6173" id="svg_1287"/>
         </g>
        </g>
        <g id="svg_1288">
         <g id="svg_1289">
          <path d="m109.04,356.74c-0.74,-0.39 -15.45,-8.2 -25.71,-10.1c-0.01,0.08 -0.02,0.16 -0.03,0.23c-0.01,0.06 -0.02,0.11 -0.02,0.16c10.3,1.95 25.39,9.96 25.57,10.06c0.1,0.04 0.22,0.01 0.27,-0.09c0.05,-0.09 0.01,-0.21 -0.08,-0.26z" fill="#4A6173" id="svg_1290"/>
         </g>
        </g>
       </g>
       <g id="svg_1291">
        <g id="svg_1292">
         <g id="svg_1293">
          <path d="m106.93,381.14c-0.03,0.01 -0.06,0 -0.1,-0.01c-0.07,-0.02 -8.03,-2.92 -15.44,-11.54c-0.07,-0.08 -0.06,-0.2 0.02,-0.27c0.08,-0.07 0.2,-0.06 0.27,0.02c7.35,8.54 15.21,11.4 15.29,11.43c0.1,0.03 0.15,0.14 0.11,0.24c-0.02,0.07 -0.08,0.12 -0.15,0.13z" fill="#4A6173" id="svg_1294"/>
         </g>
        </g>
       </g>
       <g id="svg_1295">
        <g id="svg_1296">
         <g id="svg_1297">
          <path d="m107.48,371.34c-0.03,0.01 -0.06,0.01 -0.1,-0.01c-0.11,-0.04 -11.41,-4.6 -19.64,-13.44c-0.07,-0.08 -0.07,-0.2 0.01,-0.28c0.08,-0.07 0.2,-0.07 0.28,0.01c8.17,8.79 19.38,13.31 19.5,13.35c0.1,0.04 0.14,0.15 0.11,0.25c-0.03,0.07 -0.09,0.11 -0.16,0.12z" fill="#4A6173" id="svg_1298"/>
         </g>
        </g>
       </g>
      </g>
      <g id="svg_1299">
       <g id="svg_1300">
        <g id="svg_1301">
         <g id="svg_1302">
          <path d="m122.35,321.27c-1.64,-2.29 -5.35,-2.91 -8.05,-3.35c-1.18,-0.2 -2.2,-0.37 -2.7,-0.62c-0.93,-0.46 -0.91,-0.53 -0.66,-1.19c0.25,-0.65 0.61,-1.61 0.36,-3.35c-0.08,-0.55 -0.31,-0.98 -0.69,-1.26c-0.88,-0.64 -2.33,-0.4 -3.73,-0.18c-1.21,0.2 -2.48,0.4 -2.98,-0.06c-0.22,-0.21 -0.3,-0.57 -0.24,-1.09c0.25,-2.43 -0.59,-5.69 -3.01,-7.14c-1.8,-1.07 -5.17,-1.53 -10.98,2.4c-9.6,6.5 -12.63,25.98 -13.28,31.22c0.23,0.05 0.46,0.09 0.7,0.16c0,0 0,0 0,0c0.65,-5.04 3.71,-24.52 12.98,-30.79c2.45,-1.66 4.64,-2.64 6.5,-2.94c1.45,-0.23 2.7,-0.05 3.72,0.56c2.15,1.29 2.89,4.25 2.66,6.45c-0.08,0.76 0.08,1.32 0.46,1.69c0.75,0.7 2.13,0.47 3.59,0.24c1.26,-0.2 2.55,-0.41 3.18,0.05c0.23,0.17 0.37,0.43 0.42,0.79c0.22,1.56 -0.09,2.39 -0.32,2.99c-0.35,0.93 -0.36,1.41 1,2.09c0.6,0.3 1.62,0.46 2.9,0.68c2.59,0.43 6.13,1.01 7.59,3.07c0.63,0.89 0.83,1.96 0.6,3.29c-1.12,6.59 -20.78,14.97 -38.79,19.17c0.01,0.12 0.02,0.25 0.01,0.37c0,0.12 -0.01,0.24 -0.03,0.36c18.67,-4.32 38.33,-12.78 39.51,-19.78c0.26,-1.5 0.02,-2.79 -0.72,-3.83z" fill="#4A6173" id="svg_1303"/>
         </g>
        </g>
        <g id="svg_1304">
         <g id="svg_1305">
          <path d="m76.59,337.97l0.01,0l-0.01,0z" fill="#4A6173" id="svg_1306"/>
         </g>
        </g>
       </g>
       <g id="svg_1307">
        <g id="svg_1308">
         <g id="svg_1309">
          <path d="m78.88,337.38c2.37,-15.52 11.77,-25.19 11.87,-25.3c0.08,-0.07 0.08,-0.2 0,-0.27c-0.07,-0.08 -0.2,-0.08 -0.27,0c-0.11,0.11 -9.56,9.83 -11.97,25.43c0.12,0.05 0.25,0.09 0.37,0.14z" fill="#4A6173" id="svg_1310"/>
         </g>
        </g>
        <g id="svg_1311">
         <g id="svg_1312">
          <path d="m109.59,328.46c-0.07,-0.08 -0.2,-0.08 -0.27,0c-4.57,4.53 -14.58,9.62 -26.26,13.46c0.05,0.12 0.1,0.24 0.15,0.37c11.72,-3.87 21.77,-8.99 26.38,-13.56c0.08,-0.07 0.08,-0.2 0,-0.27z" fill="#4A6173" id="svg_1313"/>
         </g>
        </g>
       </g>
       <g id="svg_1314">
        <g id="svg_1315">
         <g id="svg_1316">
          <path d="m80.08,338.1c4.56,-9.45 16.17,-21.92 16.31,-22.07c0.07,-0.08 0.07,-0.2 -0.01,-0.28c-0.08,-0.07 -0.2,-0.07 -0.27,0.01c-0.58,0.61 -11.82,12.69 -16.35,22.09c0.11,0.07 0.21,0.16 0.32,0.25z" fill="#4A6173" id="svg_1317"/>
         </g>
        </g>
        <g id="svg_1318">
         <g id="svg_1319">
          <path d="m98.72,326.59c-0.09,-0.06 -0.21,-0.04 -0.27,0.05c-1.95,2.78 -9.63,8.99 -16.37,13.72c0.09,0.1 0.17,0.2 0.26,0.3c6.81,-4.78 14.42,-10.94 16.43,-13.8c0.06,-0.09 0.04,-0.21 -0.05,-0.27z" fill="#4A6173" id="svg_1320"/>
         </g>
        </g>
       </g>
       <g id="svg_1321">
        <g id="svg_1322">
         <g id="svg_1323">
          <path d="m103.9,336.15c-0.09,0.01 -0.17,-0.03 -0.21,-0.11c-0.05,-0.09 -0.01,-0.21 0.09,-0.26c10.15,-4.88 14.95,-11.73 15,-11.8c0.06,-0.09 0.18,-0.11 0.27,-0.05c0.08,0.06 0.11,0.18 0.05,0.27c-0.05,0.07 -4.9,7 -15.15,11.93c-0.02,0.01 -0.04,0.02 -0.05,0.02z" fill="#4A6173" id="svg_1324"/>
         </g>
        </g>
       </g>
       <g id="svg_1325">
        <g id="svg_1326">
         <g id="svg_1327">
          <path d="m91.64,336.65c-0.08,0.01 -0.16,-0.03 -0.2,-0.1c-0.05,-0.1 -0.02,-0.21 0.08,-0.26c10.59,-5.62 17.87,-15.29 17.94,-15.39c0.06,-0.08 0.19,-0.1 0.27,-0.04c0.09,0.07 0.11,0.19 0.04,0.28c-0.07,0.1 -7.39,9.83 -18.07,15.49c-0.02,0.01 -0.04,0.02 -0.06,0.02z" fill="#4A6173" id="svg_1328"/>
         </g>
        </g>
       </g>
      </g>
     </g>
     <g id="svg_1329">
      <g id="svg_1330">
       <g id="svg_1331">
        <path d="m76.59,353.48c-4.78,0.76 -9.29,-2.51 -10.06,-7.3c-0.76,-4.78 2.51,-9.3 7.3,-10.06c4.78,-0.76 9.3,2.51 10.06,7.29c0.76,4.79 -2.51,9.3 -7.3,10.07z" fill="#4A6173" id="svg_1332"/>
       </g>
      </g>
     </g>
    </g>
    <g id="svg_1333">
     <g id="svg_1334">
      <g id="svg_1335">
       <g id="svg_1336">
        <g id="svg_1337">
         <g id="svg_1338">
          <path d="m114.54,374.74c0.14,0.93 0.27,1.86 0.4,2.79c0.13,-2.5 0.43,-4.99 1,-7.29c-0.02,0.02 -0.04,0.04 -0.05,0.05c-0.23,0.15 -0.5,0.14 -0.72,0.03c-0.33,1.36 -0.56,2.77 -0.73,4.2c0.04,0.06 0.08,0.13 0.1,0.22z" fill="#4A6173" id="svg_1339"/>
         </g>
        </g>
        <g id="svg_1340">
         <g id="svg_1341">
          <path d="m154.47,367.47c-2.29,-1.65 -6,-1.03 -8.7,-0.6c-1.18,0.2 -2.2,0.36 -2.76,0.28c-1.03,-0.14 -1.03,-0.21 -1,-0.92c0.02,-0.68 0.05,-1.72 -0.74,-3.28c-0.25,-0.51 -0.61,-0.83 -1.06,-0.98c-1.03,-0.33 -2.33,0.36 -3.59,1.03c-1.09,0.58 -2.22,1.18 -2.84,0.89c-0.27,-0.12 -0.46,-0.44 -0.58,-0.95c-0.54,-2.38 -2.38,-5.2 -5.13,-5.8c-2.05,-0.44 -5.39,0.2 -9.63,5.79c-0.9,1.19 -1.63,2.55 -2.21,4.02c0.05,0.06 0.09,0.13 0.1,0.22c0.06,0.33 0.16,0.66 0.22,0.99c0.61,-1.79 1.41,-3.42 2.45,-4.8c2.52,-3.32 4.98,-5.2 7.21,-5.56c0.59,-0.09 1.16,-0.08 1.71,0.04c2.45,0.53 4.09,3.09 4.58,5.25c0.17,0.74 0.5,1.23 0.98,1.45c0.94,0.43 2.17,-0.22 3.47,-0.91c1.13,-0.6 2.29,-1.21 3.04,-0.98c0.27,0.09 0.48,0.29 0.65,0.62c0.7,1.4 0.67,2.29 0.65,2.94c-0.03,0.98 0.11,1.44 1.62,1.65c0.66,0.09 1.67,-0.08 2.97,-0.29c2.58,-0.42 6.12,-1 8.17,0.48c0.88,0.64 1.41,1.6 1.62,2.93c0.86,5.4 -9.67,15.92 -22.14,24.91c0.76,-0.35 1.55,-0.64 2.33,-0.81c11.92,-8.87 21.39,-18.76 20.52,-24.22c-0.24,-1.5 -0.88,-2.64 -1.91,-3.39z" fill="#4A6173" id="svg_1342"/>
         </g>
        </g>
       </g>
       <g id="svg_1343">
        <g id="svg_1344">
         <g id="svg_1345">
          <path d="m118.44,396.62c-2.71,-15.44 3.09,-27.59 3.15,-27.73c0.05,-0.09 0.01,-0.21 -0.09,-0.26c-0.1,-0.05 -0.21,-0.01 -0.26,0.09c-0.07,0.14 -5.88,12.33 -3.2,27.85c0.13,0.01 0.27,0.03 0.4,0.05z" fill="#4A6173" id="svg_1346"/>
         </g>
        </g>
        <g id="svg_1347">
         <g id="svg_1348">
          <path d="m144.69,378.36c-0.1,-0.05 -0.22,-0.01 -0.27,0.09c-2.86,5.73 -10.63,13.7 -20.39,21.05c0.08,0.1 0.16,0.2 0.24,0.31c9.8,-7.39 17.62,-15.41 20.5,-21.19c0.05,-0.09 0.01,-0.21 -0.08,-0.26z" fill="#4A6173" id="svg_1349"/>
         </g>
        </g>
       </g>
       <g id="svg_1350">
        <g id="svg_1351">
         <g id="svg_1352">
          <path d="m119.82,396.91c1.31,-10.41 8.29,-25.9 8.38,-26.09c0.04,-0.1 0,-0.21 -0.1,-0.26c-0.1,-0.05 -0.21,0 -0.26,0.1c-0.34,0.76 -7.12,15.78 -8.41,26.14c0.13,0.04 0.26,0.07 0.39,0.11z" fill="#4A6173" id="svg_1353"/>
         </g>
        </g>
        <g id="svg_1354">
         <g id="svg_1355">
          <path d="m133.79,380.08c-0.11,-0.03 -0.22,0.03 -0.25,0.13c-0.94,3.22 -6.11,11.41 -10.93,18.01c0.11,0.08 0.22,0.16 0.32,0.23c4.88,-6.67 10.01,-14.82 10.99,-18.13c0.03,-0.1 -0.03,-0.21 -0.13,-0.24z" fill="#4A6173" id="svg_1356"/>
         </g>
        </g>
       </g>
       <g id="svg_1357">
        <g id="svg_1358">
         <g id="svg_1359">
          <path d="m141.69,387.5c-0.06,0.01 -0.12,-0.01 -0.17,-0.06c-0.07,-0.08 -0.07,-0.2 0.01,-0.27c8.05,-7.88 10.4,-15.91 10.42,-15.99c0.03,-0.1 0.14,-0.16 0.24,-0.13c0.1,0.03 0.16,0.13 0.13,0.24c-0.02,0.08 -2.39,8.2 -10.52,16.16c-0.03,0.02 -0.07,0.04 -0.11,0.05z" fill="#4A6173" id="svg_1360"/>
         </g>
        </g>
       </g>
       <g id="svg_1361">
        <g id="svg_1362">
         <g id="svg_1363">
          <path d="m130.25,391.89c-0.06,0.01 -0.12,0 -0.17,-0.05c-0.08,-0.07 -0.08,-0.19 -0.01,-0.27c8.24,-8.72 12.03,-20.2 12.07,-20.32c0.03,-0.1 0.14,-0.16 0.25,-0.12c0.1,0.03 0.15,0.14 0.12,0.24c-0.04,0.12 -3.86,11.69 -12.15,20.47c-0.04,0.03 -0.07,0.05 -0.11,0.05z" fill="#4A6173" id="svg_1364"/>
         </g>
        </g>
       </g>
      </g>
      <g id="svg_1365">
       <g id="svg_1366">
        <g id="svg_1367">
         <g id="svg_1368">
          <path d="m109.44,404.68c-2.92,-0.94 -23.13,-7.74 -28.21,-18.48c-0.1,0.29 -0.24,0.55 -0.43,0.74c5.73,11.2 26.57,17.85 28.65,18.49c-0.02,-0.26 -0.01,-0.5 -0.01,-0.75z" fill="#4A6173" id="svg_1369"/>
         </g>
        </g>
        <g id="svg_1370">
         <g id="svg_1371">
          <path d="m116.99,396.54c0.24,-0.01 0.48,0 0.72,0.01c-0.48,-9.12 -1.8,-18.4 -3.79,-25.69c-0.25,0.01 -0.5,-0.01 -0.76,-0.03c2,7.3 3.35,16.66 3.83,25.71z" fill="#4A6173" id="svg_1372"/>
         </g>
        </g>
        <g id="svg_1373">
         <g id="svg_1374">
          <path d="m87.49,373.85c0.73,0.22 1.31,0.18 1.74,-0.13c0.62,-0.44 0.81,-1.3 0.89,-2.31c-0.23,-0.33 -0.43,-0.68 -0.66,-1.02c-0.05,1.19 -0.11,2.37 -0.64,2.75c-0.24,0.17 -0.61,0.18 -1.12,0.03c-1.25,-0.39 -2.81,-0.5 -4.27,-0.2c0.04,0.23 0.05,0.47 0.05,0.71c0.12,-0.03 0.24,-0.07 0.37,-0.09c1.25,-0.2 2.57,-0.07 3.64,0.26z" fill="#4A6173" id="svg_1375"/>
         </g>
        </g>
       </g>
       <g id="svg_1376">
        <g id="svg_1377">
         <g id="svg_1378">
          <path d="m114.49,397.03c0.13,-0.05 0.25,-0.09 0.38,-0.13c-0.84,-5.85 -2.02,-11.3 -3.44,-15.89c-0.07,0.18 -0.15,0.35 -0.25,0.51c1.36,4.5 2.5,9.82 3.31,15.51z" fill="#4A6173" id="svg_1379"/>
         </g>
        </g>
        <g id="svg_1380">
         <g id="svg_1381">
          <path d="m109.6,402.79c-14.78,-5.35 -22.45,-16.47 -22.53,-16.59c-0.06,-0.09 -0.18,-0.11 -0.27,-0.05c-0.09,0.06 -0.11,0.18 -0.05,0.27c0.08,0.12 7.84,11.38 22.8,16.76c0.01,-0.13 0.03,-0.26 0.05,-0.39z" fill="#4A6173" id="svg_1382"/>
         </g>
        </g>
       </g>
       <g id="svg_1383">
        <g id="svg_1384">
         <g id="svg_1385">
          <path d="m109.95,401.31c-8.26,-6.49 -17.8,-19.71 -17.91,-19.87c-0.07,-0.09 -0.19,-0.11 -0.27,-0.05c-0.09,0.06 -0.11,0.19 -0.05,0.27c0.48,0.67 9.87,13.69 18.12,20.08c0.04,-0.14 0.07,-0.28 0.11,-0.43z" fill="#4A6173" id="svg_1386"/>
         </g>
        </g>
        <g id="svg_1387">
         <g id="svg_1388">
          <path d="m112.61,398.13c-2.23,-4.9 -4.85,-9.98 -6.98,-13.42c-0.03,0 -0.06,0.01 -0.1,0c-0.17,-0.04 -0.32,-0.09 -0.46,-0.16c2.16,3.45 4.91,8.78 7.23,13.85c0.1,-0.09 0.21,-0.18 0.31,-0.27z" fill="#4A6173" id="svg_1389"/>
         </g>
        </g>
       </g>
       <g id="svg_1390">
        <g id="svg_1391">
         <g id="svg_1392">
          <path d="m111.27,372.04c-0.05,0.25 -0.06,0.52 -0.11,0.76c0.62,1.6 1.2,3.34 1.69,5.24c0.03,0.1 0.12,0.16 0.22,0.14c0.01,0 0.01,0 0.02,0c0.1,-0.03 0.17,-0.13 0.14,-0.24c-0.56,-2.16 -1.23,-4.13 -1.96,-5.9z" fill="#4A6173" id="svg_1393"/>
         </g>
        </g>
       </g>
       <g id="svg_1394">
        <g id="svg_1395">
         <g id="svg_1396">
          <path d="m109.18,384.33c-0.06,0.09 -0.15,0.15 -0.29,0.18c-0.02,0 -0.04,-0.01 -0.06,-0.01c0.8,1.8 1.53,3.69 2.12,5.67c0.03,0.09 0.13,0.15 0.22,0.13c0.01,0 0.02,0 0.03,0c0.1,-0.03 0.16,-0.14 0.13,-0.24c-0.6,-2 -1.34,-3.92 -2.15,-5.73z" fill="#4A6173" id="svg_1397"/>
         </g>
        </g>
       </g>
      </g>
      <g id="svg_1398">
       <g id="svg_1399">
        <g id="svg_1400">
         <g id="svg_1401">
          <path d="m114.05,412.67c-0.09,0.14 -0.15,0.23 -0.15,0.24l-0.02,0.02c-0.13,0.21 -12.83,21.23 -25.49,23.25l-0.08,0.02c-5.2,0.79 -8.74,0.02 -10.25,-2.24c-1.39,-2.08 -0.79,-5.07 0.36,-6.97c0.39,-0.64 0.5,-1.22 0.3,-1.72c-0.37,-0.96 -1.71,-1.35 -3.13,-1.76c-1.22,-0.35 -2.48,-0.72 -2.85,-1.41c-0.14,-0.25 -0.15,-0.54 -0.04,-0.89c0.47,-1.5 1.11,-2.12 1.57,-2.57c0.72,-0.68 0.93,-1.11 -0.01,-2.31c-0.41,-0.53 -1.26,-1.11 -2.33,-1.86c-2.15,-1.49 -5.09,-3.54 -5.53,-6.03c-0.19,-1.07 0.09,-2.13 0.86,-3.23c1.15,-1.63 3.85,-2.7 7.56,-3.29c7.44,-1.19 18.93,-0.46 30.02,1.5c-0.8,-0.39 -1.57,-0.77 -2.31,-0.94c-0.15,-0.04 -0.24,-0.12 -0.29,-0.22c-16.18,-2.57 -32.1,-2.39 -35.56,2.54c-0.88,1.25 -1.21,2.51 -0.98,3.77c0.49,2.77 3.57,4.92 5.83,6.49c0.98,0.68 1.82,1.27 2.17,1.71c0.64,0.82 0.59,0.87 0.08,1.36c-0.49,0.48 -1.24,1.19 -1.76,2.87c-0.17,0.53 -0.14,1.02 0.09,1.44c0.51,0.95 1.92,1.36 3.29,1.76c1.18,0.34 2.41,0.7 2.66,1.33c0.11,0.28 0.03,0.64 -0.25,1.09c-1.26,2.09 -1.91,5.39 -0.34,7.74c1.16,1.74 4.01,3.6 10.94,2.54c0.03,0 0.06,-0.01 0.09,-0.01c12.93,-2.07 25.36,-22.55 25.98,-23.58c0.04,-0.05 0.13,-0.18 0.25,-0.38c-0.23,-0.07 -0.45,-0.16 -0.68,-0.26z" fill="#4A6173" id="svg_1402"/>
         </g>
        </g>
       </g>
       <g id="svg_1403">
        <g id="svg_1404">
         <g id="svg_1405">
          <path d="m109.58,406.32c-12.06,-1.47 -23.12,-1.14 -29.16,0.98c-0.11,0.04 -0.16,0.15 -0.12,0.25c0.03,0.1 0.14,0.16 0.25,0.12c6,-2.11 17.04,-2.43 29.09,-0.95c-0.03,-0.14 -0.03,-0.27 -0.06,-0.4z" fill="#4A6173" id="svg_1406"/>
         </g>
        </g>
        <g id="svg_1407">
         <g id="svg_1408">
          <path d="m112.52,411.69c-8.82,13.74 -22.08,18.68 -22.23,18.73c-0.1,0.04 -0.15,0.15 -0.11,0.25c0.03,0.09 0.12,0.14 0.21,0.13c0.01,-0.01 0.02,-0.01 0.04,-0.01c0.14,-0.06 13.5,-5.02 22.39,-18.85c-0.1,-0.07 -0.2,-0.16 -0.3,-0.25z" fill="#4A6173" id="svg_1409"/>
         </g>
        </g>
       </g>
       <g id="svg_1410">
        <g id="svg_1411">
         <g id="svg_1412">
          <path d="m111.77,410.94c-7.94,6.78 -24.68,13.42 -24.88,13.5c-0.1,0.04 -0.15,0.15 -0.11,0.25c0.04,0.09 0.13,0.14 0.22,0.12c0.01,0 0.02,0 0.04,0c0.8,-0.32 17.11,-6.79 25,-13.57c-0.09,-0.1 -0.18,-0.2 -0.27,-0.3z" fill="#4A6173" id="svg_1413"/>
         </g>
        </g>
        <g id="svg_1414">
         <g id="svg_1415">
          <path d="m89.59,413.98c2.93,-1.67 12.4,-3.96 20.47,-5.35c-0.05,-0.12 -0.1,-0.25 -0.13,-0.38c-8.16,1.4 -17.53,3.68 -20.54,5.39c-0.09,0.05 -0.12,0.17 -0.07,0.26c0.05,0.1 0.17,0.13 0.27,0.08z" fill="#4A6173" id="svg_1416"/>
         </g>
        </g>
       </g>
       <g id="svg_1417">
        <g id="svg_1418">
         <g id="svg_1419">
          <path d="m70.02,407.68c-0.08,0.01 -0.16,-0.02 -0.2,-0.1c-0.06,-0.09 -0.02,-0.21 0.07,-0.26c0.07,-0.04 7.43,-4.22 18.8,-4.28c0.11,0 0.19,0.08 0.19,0.19c0,0.11 -0.08,0.19 -0.19,0.19c-11.27,0.06 -18.54,4.19 -18.61,4.23c-0.02,0.02 -0.04,0.03 -0.06,0.03z" fill="#4A6173" id="svg_1420"/>
         </g>
        </g>
       </g>
       <g id="svg_1421">
        <g id="svg_1422">
         <g id="svg_1423">
          <path d="m77.12,414.45c-0.08,0.01 -0.16,-0.02 -0.2,-0.1c-0.05,-0.1 -0.02,-0.21 0.08,-0.26c0.11,-0.06 10.9,-5.71 22.97,-6.25c0.1,0 0.19,0.08 0.2,0.19c0,0.11 -0.09,0.2 -0.19,0.2c-11.98,0.53 -22.7,6.15 -22.8,6.2c-0.02,0.01 -0.04,0.02 -0.06,0.02z" fill="#4A6173" id="svg_1424"/>
         </g>
        </g>
       </g>
      </g>
      <g id="svg_1425">
       <g id="svg_1426">
        <g id="svg_1427">
         <g id="svg_1428">
          <path d="m128.68,414.6c-0.86,-0.23 -1.56,-0.79 -2.3,-1.28c5.43,5.38 15.35,16.51 15.18,25.89c-0.09,5.26 -1.44,8.62 -3.92,9.73c-2.29,1.02 -5.14,-0.08 -6.81,-1.53c-0.57,-0.5 -1.11,-0.69 -1.65,-0.59c-1.01,0.21 -1.61,1.46 -2.26,2.79c-0.55,1.14 -1.13,2.33 -1.87,2.58c-0.27,0.08 -0.56,0.05 -0.89,-0.12c-1.4,-0.71 -1.89,-1.44 -2.26,-1.98c-0.56,-0.82 -0.94,-1.1 -2.28,-0.38c-0.59,0.32 -1.31,1.06 -2.23,1.98c-1.83,1.87 -4.35,4.44 -6.87,4.45c-1.09,0 -2.09,-0.45 -3.04,-1.4c-4.46,-4.42 -0.81,-23.13 5.38,-39.59c-0.06,0.07 -0.12,0.14 -0.19,0.21c-0.14,0.25 -0.29,0.49 -0.43,0.74c-0.2,0.38 -0.35,0.76 -0.71,1.03c-0.05,0.04 -0.12,0.06 -0.19,0.08c-5.85,16.3 -8.88,33.56 -4.37,38.03c1.09,1.08 2.28,1.62 3.55,1.61c0.24,0 0.48,-0.02 0.71,-0.06c2.55,-0.41 4.91,-2.81 6.67,-4.6c0.84,-0.85 1.56,-1.58 2.05,-1.85c0.92,-0.5 0.96,-0.44 1.36,0.15c0.38,0.56 0.97,1.42 2.53,2.22c0.5,0.25 0.98,0.31 1.43,0.15c1.03,-0.35 1.67,-1.67 2.29,-2.94c0.54,-1.12 1.1,-2.27 1.76,-2.41c0.31,-0.04 0.64,0.09 1.04,0.43c1.84,1.6 4.99,2.79 7.56,1.64c1.92,-0.85 4.23,-3.34 4.35,-10.36c0.16,-8.78 -7.95,-18.76 -13.59,-24.62z" fill="#4A6173" id="svg_1429"/>
         </g>
        </g>
       </g>
       <g id="svg_1430">
        <g id="svg_1431">
         <g id="svg_1432">
          <path d="m115.71,413.15c-3.49,11.67 -5.03,22.65 -3.95,28.98c0.02,0.1 0.12,0.17 0.22,0.15l0,0c0.11,-0.01 0.18,-0.11 0.16,-0.22c-1.07,-6.28 0.47,-17.23 3.96,-28.86c-0.13,-0.01 -0.26,-0.03 -0.39,-0.05z" fill="#4A6173" id="svg_1433"/>
         </g>
        </g>
        <g id="svg_1434">
         <g id="svg_1435">
          <path d="m122.66,411.79c-0.12,0.06 -0.25,0.11 -0.39,0.17c11.39,10.87 13.91,24.17 13.94,24.32c0.02,0.11 0.12,0.17 0.22,0.16l0.01,0c0.1,-0.02 0.17,-0.12 0.15,-0.23c-0.03,-0.15 -2.55,-13.47 -13.93,-24.42z" fill="#4A6173" id="svg_1436"/>
         </g>
        </g>
       </g>
       <g id="svg_1437">
        <g id="svg_1438">
         <g id="svg_1439">
          <path d="m118.06,413.17c-0.14,0.02 -0.27,0.03 -0.4,0.04c0.01,8.27 0.68,17.88 1.85,21.13c0.04,0.1 0.14,0.15 0.25,0.12c0.1,-0.04 0.15,-0.15 0.12,-0.25c-1.14,-3.16 -1.81,-12.86 -1.82,-21.04z" fill="#4A6173" id="svg_1440"/>
         </g>
        </g>
        <g id="svg_1441">
         <g id="svg_1442">
          <path d="m120.98,412.45c5.16,9.13 8.72,25.98 8.76,26.18c0.02,0.1 0.12,0.17 0.22,0.15l0.01,0c0.11,-0.02 0.17,-0.12 0.15,-0.23c-0.17,-0.82 -3.63,-17.15 -8.76,-26.23c-0.12,0.04 -0.25,0.09 -0.38,0.13z" fill="#4A6173" id="svg_1443"/>
         </g>
        </g>
       </g>
       <g id="svg_1444">
        <g id="svg_1445">
         <g id="svg_1446">
          <path d="m110.21,452.63c-0.09,0.01 -0.18,-0.03 -0.21,-0.12c-0.03,-0.08 -2.91,-8.04 -1.06,-19.26c0.02,-0.11 0.12,-0.18 0.23,-0.16c0.1,0.02 0.18,0.12 0.16,0.23c-1.84,11.11 1.01,18.97 1.04,19.05c0.03,0.1 -0.02,0.21 -0.12,0.25c-0.01,0.01 -0.03,0.01 -0.04,0.01z" fill="#4A6173" id="svg_1447"/>
         </g>
        </g>
       </g>
       <g id="svg_1448">
        <g id="svg_1449">
         <g id="svg_1450">
          <path d="m118.08,446.77c-0.09,0.01 -0.18,-0.04 -0.21,-0.13c-0.04,-0.12 -3.79,-11.71 -2.29,-23.69c0.02,-0.11 0.11,-0.19 0.22,-0.17c0.11,0.01 0.18,0.11 0.17,0.22c-1.5,11.9 2.23,23.4 2.27,23.52c0.03,0.1 -0.02,0.21 -0.13,0.24c-0.01,0.01 -0.02,0.01 -0.03,0.01z" fill="#4A6173" id="svg_1451"/>
         </g>
        </g>
       </g>
      </g>
      <g id="svg_1452">
       <g id="svg_1453">
        <g id="svg_1454">
         <g id="svg_1455">
          <path d="m162.4,404.54c2.02,-1.37 3.99,-4.1 3.55,-6.88c-0.33,-2.08 -2.14,-4.95 -8.89,-6.89c-11.03,-3.16 -27.67,6.76 -32.33,9.75c0.12,0.21 0.22,0.43 0.32,0.65c3.4,-2.17 13.89,-8.44 23.41,-9.96c2.98,-0.47 5.87,-0.48 8.41,0.25c5.05,1.44 7.95,3.63 8.37,6.31c0.4,2.47 -1.4,4.94 -3.24,6.18c-0.62,0.42 -0.96,0.91 -0.99,1.43c-0.06,1.03 0.99,1.94 2.11,2.91c0.96,0.83 1.96,1.7 2.01,2.48c0.01,0.28 -0.1,0.55 -0.34,0.82c-1.05,1.17 -1.89,1.46 -2.51,1.68c-0.93,0.32 -1.3,0.62 -0.95,2.11c0.16,0.65 0.68,1.53 1.34,2.65c1.33,2.26 3.15,5.35 2.51,7.79c-0.27,1.06 -0.97,1.9 -2.14,2.58c-5.75,3.35 -24.65,-6.26 -39.39,-17.32c-0.17,0.19 -0.35,0.34 -0.56,0.48c13.9,10.45 30.87,19.3 38.39,18.1c0.73,-0.12 1.38,-0.33 1.92,-0.65c1.32,-0.76 2.15,-1.78 2.47,-3.01c0.71,-2.72 -1.2,-5.96 -2.59,-8.33c-0.6,-1.03 -1.13,-1.92 -1.26,-2.46c-0.24,-1.02 -0.17,-1.04 0.5,-1.27c0.64,-0.23 1.62,-0.57 2.79,-1.87c0.38,-0.42 0.55,-0.87 0.53,-1.35c-0.07,-1.08 -1.18,-2.04 -2.26,-2.97c-0.93,-0.81 -1.9,-1.65 -1.86,-2.32c0.02,-0.3 0.24,-0.59 0.68,-0.89z" fill="#4A6173" id="svg_1456"/>
         </g>
        </g>
        <g id="svg_1457">
         <g id="svg_1458">
          <path d="m123.71,401.62l0.01,0l-0.01,0z" fill="#4A6173" id="svg_1459"/>
         </g>
        </g>
       </g>
       <g id="svg_1460">
        <g id="svg_1461">
         <g id="svg_1462">
          <path d="m152.68,395.49c-0.15,-0.02 -13.66,-1.03 -27.17,7.12c0.03,0.13 0.05,0.27 0.08,0.41c13.43,-8.16 26.91,-7.16 27.06,-7.15c0.11,0.01 0.2,-0.07 0.21,-0.18c0.01,-0.1 -0.07,-0.2 -0.18,-0.2z" fill="#4A6173" id="svg_1463"/>
         </g>
        </g>
        <g id="svg_1464">
         <g id="svg_1465">
          <path d="m152,420.62c-6.41,-0.6 -16.74,-5.02 -27.2,-11.52c-0.05,0.11 -0.11,0.23 -0.18,0.35c10.5,6.52 20.88,10.95 27.35,11.55c0.01,0 0.03,0 0.04,0c0.09,-0.01 0.16,-0.08 0.17,-0.17c0.01,-0.11 -0.07,-0.2 -0.18,-0.21z" fill="#4A6173" id="svg_1466"/>
         </g>
        </g>
       </g>
       <g id="svg_1467">
        <g id="svg_1468">
         <g id="svg_1469">
          <path d="m146.42,411.11c-3.36,0.29 -12.94,-1.59 -20.86,-3.7c-0.04,0.13 -0.08,0.25 -0.12,0.37c8.01,2.15 17.55,4.01 21.01,3.72l0.02,0c0.1,-0.02 0.17,-0.11 0.16,-0.21c-0.01,-0.11 -0.1,-0.19 -0.21,-0.18z" fill="#4A6173" id="svg_1470"/>
         </g>
        </g>
        <g id="svg_1471">
         <g id="svg_1472">
          <path d="m153.26,402.34c-0.84,-0.05 -17.42,-0.93 -27.53,1.65c0.01,0.14 0.02,0.27 0.03,0.41c10.16,-2.6 27.28,-1.68 27.48,-1.67c0.11,0 0.2,-0.08 0.21,-0.19c0,-0.1 -0.08,-0.19 -0.19,-0.2z" fill="#4A6173" id="svg_1473"/>
         </g>
        </g>
       </g>
       <g id="svg_1474">
        <g id="svg_1475">
         <g id="svg_1476">
          <path d="m161.55,425.39c0,0 -0.01,0 -0.01,0c-0.09,0.01 -8.52,0.73 -18.87,-3.97c-0.1,-0.04 -0.14,-0.16 -0.1,-0.25c0.04,-0.1 0.16,-0.15 0.26,-0.1c10.26,4.65 18.59,3.94 18.67,3.93c0.11,-0.01 0.21,0.07 0.22,0.18c0,0.1 -0.07,0.19 -0.17,0.21z" fill="#4A6173" id="svg_1477"/>
         </g>
        </g>
       </g>
       <g id="svg_1478">
        <g id="svg_1479">
         <g id="svg_1480">
          <path d="m157.93,416.27c-0.01,0 -0.02,0 -0.02,0c-0.13,0.01 -12.29,0.63 -23.48,-3.92c-0.1,-0.04 -0.15,-0.16 -0.11,-0.26c0.04,-0.1 0.16,-0.15 0.26,-0.1c11.1,4.52 23.18,3.9 23.3,3.89c0.11,0 0.2,0.08 0.21,0.18c0,0.11 -0.07,0.19 -0.16,0.21z" fill="#4A6173" id="svg_1481"/>
         </g>
        </g>
       </g>
      </g>
     </g>
     <g id="svg_1482">
      <g id="svg_1483">
       <g id="svg_1484">
        <path d="m118.97,413.61c-2.48,0.4 -5.11,-0.27 -7.16,-2.04c-3.65,-3.18 -4.04,-8.75 -0.86,-12.4c3.18,-3.66 8.75,-4.04 12.4,-0.86c3.66,3.18 4.04,8.74 0.86,12.4l0,0c-1.4,1.61 -3.27,2.59 -5.24,2.9zm4.97,-3.14l0.01,0l-0.01,0z" fill="#4A6173" id="svg_1485"/>
       </g>
      </g>
     </g>
    </g>
    <g id="svg_1486">
     <g id="svg_1487">
      <g id="svg_1488">
       <g id="svg_1489">
        <g id="svg_1490">
         <g id="svg_1491">
          <path d="m141.25,298.4c-2.04,0.32 -3.99,-1.6 -4.17,-1.78c-0.68,-0.6 -13.41,-11.92 -13.14,-21.23c0.15,-5.02 1.84,-6.79 3.23,-7.39c1.87,-0.81 4.14,0.08 5.45,1.24c0.25,0.23 0.44,0.32 0.64,0.29c0.42,-0.08 0.83,-0.9 1.19,-1.63c0.46,-0.92 0.94,-1.87 1.71,-2.12c0.35,-0.11 0.72,-0.07 1.09,0.13c1.13,0.59 1.54,1.21 1.81,1.63c0.26,0.38 0.26,0.38 0.83,0.08c0.33,-0.18 0.85,-0.69 1.44,-1.28c1.39,-1.38 3.29,-3.28 5.33,-3.26c0.93,0.01 1.8,0.41 2.58,1.2c3.61,3.67 0.17,18.96 -5.24,31.63c-0.68,1.46 -1.59,2.29 -2.72,2.48c-0.01,0 -0.02,0 -0.03,0.01zm-13.05,-29.96c-0.26,0.04 -0.5,0.11 -0.75,0.21c-1.72,0.75 -2.69,3.08 -2.79,6.76c-0.27,9.03 12.77,20.57 12.9,20.68l0.02,0.02c0.02,0.02 1.83,1.86 3.56,1.58c0.01,0 0.02,0 0.02,0c0.89,-0.15 1.62,-0.85 2.19,-2.07c5.2,-12.18 8.74,-27.44 5.38,-30.84c-0.65,-0.66 -1.33,-0.98 -2.07,-0.99c-1.75,-0.01 -3.53,1.76 -4.83,3.06c-0.66,0.65 -1.18,1.17 -1.61,1.4c-0.98,0.52 -1.32,0.33 -1.75,-0.32c-0.25,-0.37 -0.59,-0.88 -1.55,-1.39c-0.27,-0.14 -0.44,-0.11 -0.54,-0.08c-0.49,0.16 -0.91,1.01 -1.29,1.76c-0.48,0.96 -0.93,1.86 -1.7,2.01c-0.39,0.07 -0.82,-0.08 -1.24,-0.45c-0.98,-0.87 -2.53,-1.57 -3.95,-1.34z" fill="#4A6173" id="svg_1492"/>
         </g>
        </g>
       </g>
       <g id="svg_1493">
        <g id="svg_1494">
         <g id="svg_1495">
          <path d="m141.32,298.13l-0.21,-0.16c-10.97,-8.19 -13.1,-20.27 -13.12,-20.39c-0.02,-0.11 0.05,-0.21 0.16,-0.22l0,0c0.11,-0.02 0.21,0.05 0.22,0.16c0.02,0.11 2.11,11.89 12.76,19.98c3.36,-9.44 5.01,-18.78 4.21,-23.85c-0.02,-0.11 0.05,-0.21 0.16,-0.23c0,0 0,0 0,0c0.11,-0.01 0.21,0.06 0.22,0.16c0.82,5.18 -0.87,14.72 -4.31,24.3l-0.09,0.25z" fill="#4A6173" id="svg_1496"/>
         </g>
        </g>
       </g>
       <g id="svg_1497">
        <g id="svg_1498">
         <g id="svg_1499">
          <path d="m141.17,298.09l-0.3,-0.29c-4.84,-4.54 -8.15,-21.11 -8.28,-21.82c-0.02,-0.1 0.04,-0.21 0.15,-0.23c0.09,-0.02 0.21,0.05 0.23,0.16c0.03,0.16 3.27,16.43 7.86,21.3c0.28,-6.15 -0.1,-15.39 -1.03,-18.07c-0.03,-0.1 0.02,-0.21 0.12,-0.24c0.1,-0.04 0.21,0.01 0.25,0.12c0.98,2.82 1.36,12.35 1.03,18.65l-0.03,0.42z" fill="#4A6173" id="svg_1500"/>
         </g>
        </g>
       </g>
       <g id="svg_1501">
        <g id="svg_1502">
         <g id="svg_1503">
          <path d="m147.48,280.06c-0.02,0.01 -0.04,0.01 -0.07,0c-0.1,-0.02 -0.17,-0.12 -0.15,-0.22c1.39,-7.84 -0.55,-13.41 -0.57,-13.47c-0.04,-0.1 0.01,-0.21 0.11,-0.25c0.1,-0.03 0.22,0.02 0.25,0.12c0.02,0.06 2,5.73 0.59,13.66c-0.01,0.09 -0.08,0.15 -0.16,0.16z" fill="#4A6173" id="svg_1504"/>
         </g>
        </g>
       </g>
       <g id="svg_1505">
        <g id="svg_1506">
         <g id="svg_1507">
          <path d="m142.7,287.31c-0.02,0 -0.04,0 -0.06,0c-0.11,-0.02 -0.18,-0.12 -0.17,-0.22c1.16,-8.4 -1.38,-16.56 -1.4,-16.64c-0.04,-0.11 0.02,-0.21 0.12,-0.25c0.11,-0.04 0.21,0.03 0.25,0.13c0.02,0.08 2.59,8.33 1.42,16.81c-0.01,0.09 -0.08,0.15 -0.16,0.17z" fill="#4A6173" id="svg_1508"/>
         </g>
        </g>
       </g>
      </g>
      <g id="svg_1509">
       <g id="svg_1510">
        <g id="svg_1511">
         <g id="svg_1512">
          <path d="m163.33,271.02c-1.68,-1.15 -4.07,-0.71 -5.58,0.19c-0.29,0.17 -0.52,0.22 -0.69,0.16c-0.4,-0.16 -0.64,-1.05 -0.86,-1.83c-0.28,-0.99 -0.56,-2.01 -1.27,-2.4c-0.32,-0.18 -0.69,-0.21 -1.1,-0.08c-1.21,0.36 -1.74,0.89 -2.08,1.25c-0.33,0.32 -0.33,0.32 -0.83,-0.08c-0.21,-0.17 -0.47,-0.51 -0.77,-0.94c0.09,0.45 0.17,0.89 0.16,1.34c0.06,0.06 0.11,0.11 0.17,0.16c0.86,0.69 1.23,0.57 1.77,0.02c0.32,-0.32 0.75,-0.76 1.79,-1.07c0.29,-0.09 0.45,-0.03 0.55,0.02c0.44,0.25 0.7,1.16 0.92,1.97c0.29,1.03 0.56,2.01 1.29,2.3c0.38,0.15 0.82,0.08 1.31,-0.21c1.32,-0.79 3.39,-1.19 4.82,-0.21c1.55,1.06 2.06,3.54 1.46,7.16c-1.46,8.92 -16.45,17.77 -16.6,17.86l-0.03,0.01c-0.02,0.02 -2.16,1.49 -3.81,0.87c-0.31,-0.11 -0.56,-0.32 -0.8,-0.56c-0.11,0.21 -0.26,0.4 -0.42,0.58c0.29,0.28 0.6,0.51 0.97,0.65c0.59,0.22 1.22,0.23 1.81,0.14c1.35,-0.22 2.5,-0.98 2.65,-1.08c0.78,-0.46 15.43,-9.15 16.93,-18.35c0.82,-4.95 -0.51,-7.01 -1.76,-7.87z" fill="#4A6173" id="svg_1513"/>
         </g>
        </g>
       </g>
       <g id="svg_1514">
        <g id="svg_1515">
         <g id="svg_1516">
          <path d="m160.59,280.02c-0.1,-0.04 -0.21,0.01 -0.25,0.11c-0.04,0.12 -4.32,11.28 -16.32,17.2c-0.09,-0.6 -0.18,-1.19 -0.26,-1.78c-0.11,0.13 -0.22,0.26 -0.32,0.41c0,0 -0.01,0 -0.01,0.01c0.08,0.56 0.16,1.12 0.24,1.68l0.04,0.26l0.24,-0.11c12.32,-5.96 16.71,-17.41 16.76,-17.53c0.04,-0.1 -0.02,-0.21 -0.12,-0.25z" fill="#4A6173" id="svg_1517"/>
         </g>
        </g>
       </g>
       <g id="svg_1518">
        <g id="svg_1519">
         <g id="svg_1520">
          <path d="m156.39,277.57c-0.1,-0.04 -0.21,0.01 -0.25,0.11c-0.07,0.16 -6.34,15.51 -11.77,19.42c0.24,-1.68 0.59,-3.58 0.98,-5.5c-0.04,0.07 -0.06,0.15 -0.1,0.22c-0.22,0.4 -0.37,0.83 -0.58,1.23c-0.3,1.55 -0.56,3.07 -0.75,4.43l-0.06,0.42l0.36,-0.23c5.61,-3.54 12.01,-19.18 12.28,-19.84c0.04,-0.1 -0.01,-0.22 -0.11,-0.26z" fill="#4A6173" id="svg_1521"/>
         </g>
        </g>
       </g>
      </g>
      <g id="svg_1522">
       <g id="svg_1523">
        <g id="svg_1524">
         <path d="m140.58,298.42c-0.02,0 -0.04,0 -0.06,0c-8.9,-0.1 -16.95,-5.17 -21.54,-13.59c-3.04,-5.57 -4,-8.84 -3.21,-10.92c0.47,-1.22 1.52,-2.06 3.41,-2.73c4.35,-1.55 5.63,1.59 5.64,1.63c0.07,0.18 -0.02,0.38 -0.2,0.46c-0.18,0.07 -0.39,-0.02 -0.46,-0.21l0,0c-0.04,-0.1 -1.06,-2.51 -4.74,-1.21c-1.7,0.61 -2.59,1.3 -2.98,2.31c-0.7,1.84 0.27,5.03 3.17,10.33c4.46,8.19 12.28,13.13 20.92,13.22c0.2,0 0.36,0.16 0.35,0.36c0,0.18 -0.13,0.32 -0.3,0.35z" fill="#4A6173" id="svg_1525"/>
        </g>
       </g>
      </g>
      <g id="svg_1526">
       <g id="svg_1527">
        <g id="svg_1528">
         <path d="m151.38,298.75c-1.95,0.31 -3.86,0.29 -5.67,-0.15c-0.19,-0.05 -0.31,-0.24 -0.26,-0.43c0.04,-0.19 0.24,-0.31 0.43,-0.26c6.83,1.67 15.33,-3.02 20.73,-8.4c3.73,-3.71 5.7,-7.43 5.15,-9.71c-0.39,-1.65 -1.12,-2.68 -2.15,-3.06c-1.96,-0.73 -4.46,1.05 -4.49,1.07c-0.16,0.12 -0.38,0.08 -0.49,-0.08c-0.12,-0.16 -0.08,-0.38 0.08,-0.49c0.11,-0.09 2.83,-2.02 5.15,-1.17c1.26,0.47 2.14,1.67 2.59,3.57c0.61,2.51 -1.44,6.49 -5.34,10.38c-4.12,4.11 -10.04,7.82 -15.73,8.73z" fill="#4A6173" id="svg_1529"/>
        </g>
       </g>
      </g>
     </g>
     <g id="svg_1530">
      <g id="svg_1531">
       <g id="svg_1532">
        <path d="m143.52,300.33c-0.08,0.41 -0.25,0.78 -0.46,1.18c0.02,0.72 -0.3,1.36 -0.57,2.03c-0.17,0.42 -0.35,0.85 -0.67,1.14c-0.53,11.29 -3.73,33.34 -19.6,51.39c0.07,1.08 -0.05,2.53 -0.72,3.35c0.03,-0.01 0.05,0.01 0.08,0c0.22,-0.03 0.42,-0.13 0.58,-0.3c19.94,-21.29 21.78,-48.79 21.75,-58.49c-0.12,-0.11 -0.26,-0.2 -0.39,-0.3z" fill="#4A6173" id="svg_1533"/>
       </g>
      </g>
     </g>
     <g id="svg_1534">
      <g id="svg_1535">
       <g id="svg_1536">
        <path d="m147.83,316.54l-0.13,-0.54c-0.02,-0.11 -0.02,-0.25 0,-0.67c0.19,-5.77 -1.15,-10.53 -3.99,-14.17c-0.39,1.53 -1.39,3.4 -2.79,6.01c-1.13,2.12 -2.54,4.75 -4.11,8.11l-0.5,1.05l-0.18,-1.14c-0.07,-0.47 -0.21,-1.09 -0.38,-1.82c-0.78,-3.43 -2.06,-9.04 0.18,-12.66c-3.68,0.41 -6.76,1.78 -11,6.68l-0.52,0.61l-0.1,-0.8c-1.28,-10.42 4.07,-12.73 4.3,-12.83c0.19,-0.07 0.39,0.02 0.46,0.2c0.08,0.18 -0.01,0.39 -0.19,0.46c-0.05,0.02 -4.8,2.12 -3.95,11.29c4.41,-4.91 7.66,-6.08 11.71,-6.39l0.82,-0.06l-0.52,0.64c-2.64,3.29 -1.3,9.18 -0.5,12.7c0.07,0.28 0.13,0.55 0.18,0.8c1.4,-2.92 2.65,-5.26 3.67,-7.17c1.61,-3 2.67,-4.98 2.87,-6.53l0.1,-0.79l0.52,0.6c3.24,3.8 4.8,8.84 4.64,15c3.44,-3.41 3.82,-10.91 3.17,-13.58l-0.1,-0.42l0.43,-0.02c3.86,-0.18 6.78,2.16 8.67,6.97c0.78,-2.2 0.8,-5.24 0.01,-7.58c-0.62,-1.83 -1.69,-3.16 -3.08,-3.84c-0.18,-0.09 -0.25,-0.3 -0.16,-0.48c0.09,-0.18 0.3,-0.25 0.48,-0.16c1.56,0.77 2.75,2.24 3.43,4.25c0.97,2.85 0.81,6.52 -0.38,8.92l-0.34,0.7l-0.3,-0.71c-0.04,-0.09 -0.09,-0.22 -0.15,-0.38c-0.64,-1.75 -2.56,-6.95 -7.72,-6.98c0.65,3.57 -0.14,11.29 -4.11,14.39l-0.44,0.34z" fill="#4A6173" id="svg_1537"/>
       </g>
      </g>
     </g>
    </g>
    <g id="svg_1538">
     <g id="svg_1539">
      <g id="svg_1540">
       <path d="m137.88,332.96c0,0 0,0.01 0,0.01l-0.85,0.13l0.47,-0.71c0.12,-0.17 11.64,-17.17 32.06,-14.41l0.89,0.12l-0.72,0.55c-13.77,10.53 -26.85,13.52 -31.85,14.31zm22.39,-14.15c-12.11,1.93 -19.61,10.66 -21.61,13.26c5.38,-0.97 17.27,-4.05 29.88,-13.45c-2.95,-0.32 -5.72,-0.22 -8.27,0.19z" fill="#4A6173" id="svg_1541"/>
      </g>
     </g>
     <g id="svg_1542">
      <g id="svg_1543">
       <path d="m137.85,332.79c-0.07,0.01 -0.15,-0.02 -0.19,-0.08c-0.06,-0.09 -0.04,-0.21 0.04,-0.27c8.96,-6.45 27.05,-13.35 27.23,-13.42c0.11,-0.03 0.22,0.02 0.25,0.12c0.04,0.1 -0.01,0.21 -0.11,0.25c-0.18,0.07 -18.22,6.95 -27.14,13.36c-0.03,0.02 -0.05,0.03 -0.08,0.04z" fill="#4A6173" id="svg_1544"/>
      </g>
     </g>
    </g>
    <g id="svg_1545">
     <g id="svg_1546">
      <g id="svg_1547">
       <path d="m124.61,356.18c0,0 -0.01,0 -0.01,0l-0.84,0.14l0.47,-0.71c0.11,-0.17 11.63,-17.17 32.05,-14.41l0.89,0.12l-0.71,0.55c-13.77,10.53 -26.85,13.51 -31.85,14.31zm22.39,-14.15c-12.12,1.93 -19.62,10.66 -21.61,13.26c5.37,-0.97 17.26,-4.05 29.87,-13.46c-2.95,-0.31 -5.71,-0.21 -8.26,0.2z" fill="#4A6173" id="svg_1548"/>
      </g>
     </g>
     <g id="svg_1549">
      <g id="svg_1550">
       <path d="m124.57,356.01c-0.07,0.01 -0.14,-0.02 -0.19,-0.08c-0.06,-0.09 -0.04,-0.21 0.04,-0.27c8.96,-6.45 27.05,-13.35 27.24,-13.42c0.1,-0.04 0.21,0.02 0.25,0.12c0.04,0.1 -0.02,0.21 -0.12,0.25c-0.18,0.06 -18.22,6.95 -27.14,13.36c-0.02,0.02 -0.05,0.03 -0.08,0.04z" fill="#4A6173" id="svg_1551"/>
      </g>
     </g>
    </g>
    <g id="svg_1552">
     <g id="svg_1553">
      <g id="svg_1554">
       <path d="m126.63,351.89l-0.12,-0.84c-0.71,-5 -1.73,-18.39 4.27,-34.67l0.31,-0.84l0.38,0.82c8.67,18.68 -4.17,34.71 -4.3,34.87l-0.54,0.66zm4.54,-34.38c-5.27,14.82 -4.7,27.09 -4.04,32.52c2.3,-3.24 10.79,-16.84 4.04,-32.52z" fill="#4A6173" id="svg_1555"/>
      </g>
     </g>
     <g id="svg_1556">
      <g id="svg_1557">
       <path d="m126.91,351.19c-0.03,0 -0.06,0 -0.09,-0.01c-0.1,-0.04 -0.16,-0.15 -0.12,-0.25c3.49,-10.41 4.74,-29.68 4.75,-29.88c0.01,-0.1 0.11,-0.19 0.21,-0.18c0.11,0.01 0.19,0.1 0.18,0.21c-0.01,0.19 -1.26,19.51 -4.77,29.98c-0.03,0.07 -0.09,0.11 -0.16,0.13z" fill="#4A6173" id="svg_1558"/>
      </g>
     </g>
    </g>
   </g>
   <g id="svg_1559">
    <g id="svg_1560">
     <path d="m73.66,340.2c0,0.63 -0.51,1.13 -1.13,1.13c-0.63,0 -1.14,-0.5 -1.14,-1.13c0,-0.62 0.51,-1.13 1.14,-1.13c0.62,0 1.13,0.51 1.13,1.13z" fill="#FFFAFF" id="svg_1561"/>
    </g>
    <g id="svg_1562">
     <path d="m70.26,342.46c0,0.63 -0.51,1.13 -1.13,1.13c-0.63,0 -1.13,-0.5 -1.13,-1.13c0,-0.62 0.5,-1.13 1.13,-1.13c0.62,0 1.13,0.51 1.13,1.13z" fill="#FFFAFF" id="svg_1563"/>
    </g>
    <g id="svg_1564">
     <path d="m71.6,347.77c0,0.62 -0.5,1.13 -1.13,1.13c-0.62,0 -1.13,-0.51 -1.13,-1.13s0.51,-1.13 1.13,-1.13c0.63,0 1.13,0.5 1.13,1.13z" fill="#FFFAFF" id="svg_1565"/>
    </g>
    <g id="svg_1566">
     <path d="m75.44,350.64c0,0.63 -0.51,1.13 -1.13,1.13c-0.63,0 -1.13,-0.5 -1.13,-1.13s0.5,-1.13 1.13,-1.13c0.62,0 1.13,0.51 1.13,1.13z" fill="#FFFAFF" id="svg_1567"/>
    </g>
    <g id="svg_1568">
     <path d="m74.79,346.15c0,0.63 -0.51,1.13 -1.13,1.13c-0.63,0 -1.13,-0.5 -1.13,-1.13c0,-0.62 0.5,-1.13 1.13,-1.13c0.62,0 1.13,0.51 1.13,1.13z" fill="#FFFAFF" id="svg_1569"/>
    </g>
    <g id="svg_1570">
     <path d="m77.62,342.46c0,0.63 -0.51,1.13 -1.14,1.13c-0.62,0 -1.13,-0.5 -1.13,-1.13c0,-0.62 0.51,-1.13 1.13,-1.13c0.63,0 1.14,0.51 1.14,1.13z" fill="#FFFAFF" id="svg_1571"/>
    </g>
    <g id="svg_1572">
     <path d="m79.91,348.29c0,0.63 -0.51,1.13 -1.13,1.13c-0.63,0 -1.13,-0.5 -1.13,-1.13s0.5,-1.13 1.13,-1.13c0.62,0 1.13,0.51 1.13,1.13z" fill="#FFFAFF" id="svg_1573"/>
    </g>
    <g id="svg_1574">
     <path d="m81.44,344.17c0,0.62 -0.51,1.13 -1.13,1.13c-0.63,0 -1.14,-0.51 -1.14,-1.13s0.51,-1.13 1.14,-1.13c0.62,0 1.13,0.51 1.13,1.13z" fill="#FFFAFF" id="svg_1575"/>
    </g>
    <g id="svg_1576">
     <path d="m78.2,338.88c0,0.62 -0.5,1.13 -1.13,1.13c-0.62,0 -1.13,-0.51 -1.13,-1.13c0,-0.63 0.51,-1.13 1.13,-1.13c0.63,0 1.13,0.5 1.13,1.13z" fill="#FFFAFF" id="svg_1577"/>
    </g>
   </g>
   <g id="svg_1578">
    <g id="svg_1579">
     <path d="m116.27,400.87c0,0.63 -0.5,1.13 -1.13,1.13c-0.62,0 -1.13,-0.5 -1.13,-1.13c0,-0.62 0.51,-1.13 1.13,-1.13c0.63,0 1.13,0.51 1.13,1.13z" fill="#FFFAFF" id="svg_1580"/>
    </g>
    <g id="svg_1581">
     <circle cx="111.75" cy="403.13" fill="#FFFAFF" id="svg_1582" r="1.13"/>
    </g>
    <g id="svg_1583">
     <path d="m114.22,408.44c0,0.62 -0.5,1.13 -1.13,1.13c-0.62,0 -1.13,-0.51 -1.13,-1.13s0.51,-1.13 1.13,-1.13c0.63,0 1.13,0.5 1.13,1.13z" fill="#FFFAFF" id="svg_1584"/>
    </g>
    <g id="svg_1585">
     <path d="m118.06,411.31c0,0.63 -0.51,1.13 -1.13,1.13s-1.13,-0.5 -1.13,-1.13c0,-0.62 0.5,-1.13 1.13,-1.13s1.13,0.51 1.13,1.13z" fill="#FFFAFF" id="svg_1586"/>
    </g>
    <g id="svg_1587">
     <path d="m117.41,406.82c0,0.62 -0.51,1.13 -1.14,1.13c-0.62,0 -1.13,-0.51 -1.13,-1.13c0,-0.63 0.51,-1.13 1.13,-1.13c0.63,0 1.14,0.5 1.14,1.13z" fill="#FFFAFF" id="svg_1588"/>
    </g>
    <g id="svg_1589">
     <path d="m120.23,403.13c0,0.63 -0.5,1.13 -1.13,1.13c-0.62,0 -1.13,-0.5 -1.13,-1.13s0.51,-1.13 1.13,-1.13c0.63,0 1.13,0.51 1.13,1.13z" fill="#FFFAFF" id="svg_1590"/>
    </g>
    <g id="svg_1591">
     <path d="m122.53,408.96c0,0.63 -0.51,1.13 -1.14,1.13s-1.13,-0.5 -1.13,-1.13c0,-0.62 0.51,-1.13 1.13,-1.13s1.14,0.51 1.14,1.13z" fill="#FFFAFF" id="svg_1592"/>
    </g>
    <g id="svg_1593">
     <path d="m124.05,404.84c0,0.62 -0.5,1.13 -1.13,1.13s-1.13,-0.51 -1.13,-1.13c0,-0.63 0.51,-1.13 1.13,-1.13s1.13,0.5 1.13,1.13z" fill="#FFFAFF" id="svg_1594"/>
    </g>
    <g id="svg_1595">
     <path d="m120.82,399.55c0,0.62 -0.51,1.13 -1.13,1.13c-0.63,0 -1.13,-0.51 -1.13,-1.13c0,-0.63 0.5,-1.14 1.13,-1.14c0.62,0 1.13,0.51 1.13,1.14z" fill="#FFFAFF" id="svg_1596"/>
    </g>
   </g>
  </g>
 </g>
</svg>