<svg width="400" height="400" xmlns="http://www.w3.org/2000/svg" xml:space="preserve" version="1.1">

 <g>
  <title>Layer 1</title>
  <g id="BACKGROUND"/>
  <g id="svg_47">
   <g id="svg_48">
    <path id="svg_49" fill="#c8a96e" d="m279.02456,187.01628c1.89,3.67 0.21,7.72 -1.68,10.99c-3.12,5.41 -7.1,10.39 -11.41,14.88c-0.58,0.61 -1.41,0.09 -1.48,-0.54c-0.22,0.09 -0.47,0.07 -0.68,-0.15c-1.09,-1.15 -2.03,-2.44 -3.12,-3.61c-1.08,-1.17 -2.26,-2.22 -3.43,-3.31c-0.08,-0.07 -0.11,-0.16 -0.13,-0.25c-2.25,2.01 -4.69,3.91 -7.28,5.24c-0.48,0.25 -0.87,0.04 -1.04,-0.31c-1.28,8.42 -10.12,15.09 -17.7,18.22c-5.38,2.23 -11.09,3.49 -16.87,3.91c5.53,13.53 -2.8,27.82 -13.64,35.95c-6.63,4.98 -14.3,8.33 -21.93,11.46c-9.35,3.84 -18.75,7.58 -28.12,11.36c-1,0.41 -1.48,-1.08 -0.72,-1.63c5.5,-3.94 8,-10.36 11.58,-15.94c0.26,-6.43 2.8,-12.45 6.74,-17.4c-0.08,-0.07 -0.14,-0.17 -0.13,-0.31c0.91,-12.64 10.05,-20.65 20.19,-26.93c0.19,-0.12 0.38,-0.14 0.54,-0.1c0.55,0.13 0.85,0.97 0.24,1.39c-9.68,6.67 -17.41,12.98 -19.91,24.83c3.59,-4.13 8.18,-7.42 13.24,-9.41c1,-0.4 1.46,1.2 0.47,1.6c-10.9,4.4 -17.56,13.49 -20.16,24.53c0.43,-0.59 0.87,-1.18 1.35,-1.74c4.66,-5.54 10.75,-9.49 17.55,-11.9c1.09,-0.38 1.58,1.34 0.5,1.73c-8.4,2.96 -15.39,8.47 -20.07,16.06c-2.51,4.06 -4.49,8.28 -7.54,11.77c13.42,-5.22 27.51,-9.99 39.84,-17.29c13.12,-7.77 23.89,-22.09 18.89,-37.95c-8.14,0.44 -16.41,-0.82 -24.06,-3.55c-0.11,-0.04 -0.21,-0.08 -0.32,-0.12c-12.6,-4.57 -23.51,-13.07 -31.92,-23.42c-4.47,-5.51 -7.71,-14.36 -14.48,-17.21c-3.99,-1.68 -8.5,-2.34 -12.57,-3.94c-3.14,-1.23 -6.18,-2.66 -9.17,-4.23c-0.74,-0.39 -0.48,-1.37 0.18,-1.64l9.21,-3.73c-1.8,-2.91 -3.59,-5.82 -5.38,-8.72c-0.45,-0.73 0.26,-1.43 0.99,-1.33c2.6,0.32 5.02,0.9 7.46,1.75c-0.98,-4.79 -1.36,-9.57 -1.13,-14.49c0.05,-0.87 1.18,-1.26 1.67,-0.48c6.65,10.66 12.65,23.85 23.48,30.88c10.53,6.84 23.68,10.36 35.79,13.43c1.06,-11.07 -11.52,-18.79 -8.75,-30.12c0,-0.01 0,-0.01 0,-0.01c-3.86,-5.36 -6.04,-11.9 -5.81,-18.61c-3.5,-5.87 -5.14,-12.42 -2.4,-19.31c0.03,-0.08 0.07,-0.14 0.12,-0.19c-3.09,-5.26 -5.51,-10.92 -7.22,-16.89c-0.2,-0.71 0.63,-1.48 1.3,-1.03c8.3,5.46 16.62,10.93 24.42,17.11c6.3,4.99 12.83,10.5 16.62,17.74c9.06,17.31 -6.65,36.39 3.13,53.51c0.03,-0.03 0.05,-0.07 0.09,-0.1c9.26,-6.62 26.99,-8.21 32.94,3.8c2.34,-0.12 4.68,-0.19 7.01,-0.25c-3.18,-3 -7.49,-11.14 -2.29,-13.97c4.59,-2.5 10.22,1.21 13.13,4.96c1.12,-3.44 3.02,-6.99 6.69,-8.06c2.95,-0.85 5.77,0.33 7.18,3.07zm-1.02,5.48c0.84,-4.2 -2.83,-8.6 -7.17,-6.16c-2.58,1.45 -3.69,4.16 -4.92,6.72c0.54,0.86 -0.77,1.63 -1.34,0.81c-2.16,-3.06 -6.51,-6.9 -10.66,-5.76c-5.65,1.55 -0.81,9.95 1.45,12.54c0.1,0.12 0.14,0.24 0.13,0.35c1.33,-0.02 2.66,-0.05 3.99,-0.06c0.66,-0.01 1.08,0.85 0.58,1.33c-0.77,0.74 -1.56,1.49 -2.37,2.23c0.03,0.01 0.06,0.01 0.09,0.03c2.66,1.64 5.46,4.11 7.03,6.84c0.02,0.04 0.03,0.08 0.04,0.13c4.09,-4.44 7.92,-9.13 11.01,-14.33c0.84,-1.41 1.81,-3.04 2.14,-4.67zm-20.61,9.99c-3.22,-0.04 -6.43,-0.11 -9.65,-0.26c1.01,2.39 1.33,4.7 1.13,6.9c0.05,-0.05 0.08,-0.11 0.15,-0.16c2.77,-2.21 5.65,-4.2 8.37,-6.48zm-17.13,18.27c7.32,-6.29 9.87,-17.98 0.55,-23.83c-7.91,-4.97 -18.27,-3.07 -25.73,1.73c-0.33,0.22 -0.63,0.11 -0.83,-0.11c-0.21,0.2 -0.54,0.27 -0.78,-0.01c-11.67,-13.95 2.4,-33.27 -1.95,-48.78c-2.5,-8.89 -9.88,-15.4 -16.8,-21.01c-7.46,-6.05 -15.47,-11.38 -23.49,-16.66c3.84,11.91 10.61,22.39 19.92,30.83c0.86,0.78 -0.39,2.07 -1.24,1.29c-5.19,-4.7 -9.61,-10.05 -13.2,-15.91c-2.68,13.93 6.91,23.7 16.44,32.48c0.84,0.77 -0.38,2.02 -1.22,1.26c-4.15,-3.74 -8.86,-8.27 -12.33,-13.37c1.21,9.72 6,17.97 14.31,23.58c0.86,0.58 0.1,1.99 -0.8,1.43c-3.17,-1.96 -5.93,-4.48 -8.2,-7.38c-0.47,11.13 11.04,18.68 9.48,30.1c-0.01,0.08 -0.04,0.14 -0.07,0.21c-0.1,0.46 -0.49,0.85 -1.07,0.71c-12.89,-3.26 -27.46,-6.98 -38.46,-14.77c-9.48,-6.7 -15.21,-18.02 -21.13,-27.93c0.02,4.23 0.49,8.37 1.46,12.54c0.14,0.59 -0.4,1.39 -1.08,1.12c-2.29,-0.9 -4.54,-1.53 -6.9,-1.96c1.64,2.66 3.28,5.31 4.92,7.97c0.32,0.53 0.01,1.11 -0.52,1.32c-2.78,1.13 -5.57,2.26 -8.35,3.4c3.64,1.82 7.37,3.44 11.24,4.72c3.28,1.09 6.97,1.56 10.09,3.09c5.22,2.56 7.59,8.95 10.83,13.43c9.04,12.49 21.68,22.78 36.53,27.43c15.39,4.81 35.59,4.09 48.38,-6.92z"/>
    <path id="svg_50" fill="#c8a96e" d="m270.83456,186.33628c4.34,-2.44 8.01,1.96 7.17,6.16c-0.33,1.63 -1.3,3.26 -2.14,4.67c-3.09,5.2 -6.92,9.89 -11.01,14.33c-0.01,-0.05 -0.02,-0.09 -0.04,-0.13c-1.57,-2.73 -4.37,-5.2 -7.03,-6.84c-0.03,-0.02 -0.06,-0.02 -0.09,-0.03c0.81,-0.74 1.6,-1.49 2.37,-2.23c0.5,-0.48 0.08,-1.34 -0.58,-1.33c-1.33,0.01 -2.66,0.04 -3.99,0.06c0.01,-0.11 -0.03,-0.23 -0.13,-0.35c-2.26,-2.59 -7.1,-10.99 -1.45,-12.54c4.15,-1.14 8.5,2.7 10.66,5.76c0.57,0.82 1.88,0.05 1.34,-0.81c1.23,-2.56 2.34,-5.27 4.92,-6.72z"/>
    <path id="svg_51" fill="#c8a96e" d="m234.64456,199.18628c2.28,2.27 1.73,6.67 -1.27,8.1c-3.21,1.53 -7.43,-1.68 -6.58,-5.2c0.08,-0.33 0.57,-0.26 0.59,0.07c0.09,2.64 3.09,5.52 5.75,3.81c1.92,-1.24 2.21,-4.27 0.61,-5.85c-0.59,-0.59 0.31,-1.52 0.9,-0.93z"/>
   </g>
   <g id="svg_52" opacity="0.42">
    <path id="svg_53" fill="#c8a96e" d="m274.54556,201.52528c-0.965,0.762 -1.273,1.661 -1.226,2.622c0.812,-1.108 1.587,-2.239 2.331,-3.39c-0.413,0.26 -0.791,0.52 -1.105,0.768z"/>
    <path id="svg_54" fill="#c8a96e" d="m262.81556,208.67828c-1.48,-1.633 -3.282,-3.074 -5.031,-4.152c-0.03,-0.02 -0.06,-0.02 -0.09,-0.03c0.81,-0.74 1.6,-1.49 2.37,-2.23c0.5,-0.48 0.08,-1.34 -0.58,-1.33c-1.33,0.01 -2.66,0.04 -3.99,0.06c0.01,-0.11 -0.03,-0.23 -0.13,-0.35c-2.26,-2.59 -7.1,-10.99 -1.45,-12.54c4.15,-1.14 8.5,2.7 10.66,5.76c0.246,0.354 0.626,0.401 0.939,0.283c0.164,-0.168 0.328,-0.335 0.5,-0.499c0.052,-0.178 0.033,-0.383 -0.099,-0.593c1.23,-2.56 2.34,-5.27 4.92,-6.72c2.457,-1.381 4.697,-0.569 6.028,1.157c0.711,-0.209 1.423,-0.384 2.133,-0.523c-1.418,-2.705 -4.219,-3.869 -7.151,-3.024c-3.67,1.07 -5.57,4.62 -6.69,8.06c-2.91,-3.75 -8.54,-7.46 -13.13,-4.96c-5.2,2.83 -0.89,10.97 2.29,13.97c-2.33,0.06 -4.67,0.13 -7.01,0.25c-5.95,-12.01 -23.68,-10.42 -32.94,-3.8c-0.04,0.03 -0.06,0.07 -0.09,0.1c-9.78,-17.12 5.93,-36.2 -3.13,-53.51c-3.79,-7.24 -10.32,-12.75 -16.62,-17.74c-7.8,-6.18 -16.12,-11.65 -24.42,-17.11c-0.67,-0.45 -1.5,0.32 -1.3,1.03c1.71,5.97 4.13,11.63 7.22,16.89c-0.05,0.05 -0.09,0.11 -0.12,0.19c-2.74,6.89 -1.1,13.44 2.4,19.31c-0.23,6.71 1.95,13.25 5.81,18.61c0,0 0,0 0,0.01c-2.77,11.33 9.81,19.05 8.75,30.12c-12.11,-3.07 -25.26,-6.59 -35.79,-13.43c-10.83,-7.03 -16.83,-20.22 -23.48,-30.88c-0.49,-0.78 -1.62,-0.39 -1.67,0.48c-0.23,4.92 0.15,9.7 1.13,14.49c-2.44,-0.85 -4.86,-1.43 -7.46,-1.75c-0.73,-0.1 -1.44,0.6 -0.99,1.33c1.79,2.9 3.58,5.81 5.38,8.72l-9.21,3.73c-0.66,0.27 -0.92,1.25 -0.18,1.64c2.99,1.57 6.03,3 9.17,4.23c4.07,1.6 8.58,2.26 12.57,3.94c6.77,2.85 10.01,11.7 14.48,17.21c8.41,10.35 19.32,18.85 31.92,23.42c0.11,0.04 0.21,0.08 0.32,0.12c7.65,2.73 15.92,3.99 24.06,3.55c5,15.86 -5.77,30.18 -18.89,37.95c-12.33,7.3 -26.42,12.07 -39.84,17.29c3.05,-3.49 5.03,-7.71 7.54,-11.77c4.68,-7.59 11.67,-13.1 20.07,-16.06c1.08,-0.39 0.59,-2.11 -0.5,-1.73c-6.8,2.41 -12.89,6.36 -17.55,11.9c-0.48,0.56 -0.92,1.15 -1.35,1.74c2.6,-11.04 9.26,-20.13 20.16,-24.53c0.99,-0.4 0.53,-2 -0.47,-1.6c-5.06,1.99 -9.65,5.28 -13.24,9.41c2.5,-11.85 10.23,-18.16 19.91,-24.83c0.61,-0.42 0.31,-1.26 -0.24,-1.39c-0.16,-0.04 -0.35,-0.02 -0.54,0.1c-10.14,6.28 -19.28,14.29 -20.19,26.93c-0.01,0.14 0.05,0.24 0.13,0.31c-3.94,4.95 -6.48,10.97 -6.74,17.4c-3.58,5.58 -6.08,12 -11.58,15.94c-0.76,0.55 -0.28,2.04 0.72,1.63c9.37,-3.78 18.77,-7.52 28.12,-11.36c7.63,-3.13 15.3,-6.48 21.93,-11.46c10.84,-8.13 19.17,-22.42 13.64,-35.95c5.78,-0.42 11.49,-1.68 16.87,-3.91c7.58,-3.13 16.42,-9.8 17.7,-18.22c0.17,0.35 0.56,0.56 1.04,0.31c2.59,-1.33 5.03,-3.23 7.28,-5.24c0.02,0.09 0.05,0.18 0.13,0.25c1.17,1.09 2.35,2.14 3.43,3.31c1.09,1.17 2.03,2.46 3.12,3.61c0.127,0.134 0.27,0.187 0.411,0.193c-0.51,-1.228 -0.984,-2.468 -1.37,-3.712zm-22.551,12.078c-12.79,11.01 -32.99,11.73 -48.38,6.92c-14.85,-4.65 -27.49,-14.94 -36.53,-27.43c-3.24,-4.48 -5.61,-10.87 -10.83,-13.43c-3.12,-1.53 -6.81,-2 -10.09,-3.09c-3.87,-1.28 -7.6,-2.9 -11.24,-4.72c2.78,-1.14 5.57,-2.27 8.35,-3.4c0.53,-0.21 0.84,-0.79 0.52,-1.32c-1.64,-2.66 -3.28,-5.31 -4.92,-7.97c2.36,0.43 4.61,1.06 6.9,1.96c0.68,0.27 1.22,-0.53 1.08,-1.12c-0.97,-4.17 -1.44,-8.31 -1.46,-12.54c5.92,9.91 11.65,21.23 21.13,27.93c11,7.79 25.57,11.51 38.46,14.77c0.58,0.14 0.97,-0.25 1.07,-0.71c0.03,-0.07 0.06,-0.13 0.07,-0.21c1.56,-11.42 -9.95,-18.97 -9.48,-30.1c2.27,2.9 5.03,5.42 8.2,7.38c0.9,0.56 1.66,-0.85 0.8,-1.43c-8.31,-5.61 -13.1,-13.86 -14.31,-23.58c3.47,5.1 8.18,9.63 12.33,13.37c0.84,0.76 2.06,-0.49 1.22,-1.26c-9.53,-8.78 -19.12,-18.55 -16.44,-32.48c3.59,5.86 8.01,11.21 13.2,15.91c0.85,0.78 2.1,-0.51 1.24,-1.29c-9.31,-8.44 -16.08,-18.92 -19.92,-30.83c8.02,5.28 16.03,10.61 23.49,16.66c6.92,5.61 14.3,12.12 16.8,21.01c4.35,15.51 -9.72,34.83 1.95,48.78c0.24,0.28 0.57,0.21 0.78,0.01c0.2,0.22 0.5,0.33 0.83,0.11c7.46,-4.8 17.82,-6.7 25.73,-1.73c9.32,5.85 6.77,17.54 -0.55,23.83zm8.76,-11.79c-0.07,0.05 -0.1,0.11 -0.15,0.16c0.2,-2.2 -0.12,-4.51 -1.13,-6.9c3.22,0.15 6.43,0.22 9.65,0.26c-2.72,2.28 -5.6,4.27 -8.37,6.48z"/>
    <path id="svg_55" fill="#c8a96e" d="m266.01456,193.65028c2.884,-2.745 6.836,-4.976 10.849,-6.156c-1.331,-1.726 -3.571,-2.539 -6.028,-1.157c-2.58,1.45 -3.69,4.16 -4.92,6.72c0.132,0.21 0.15,0.415 0.099,0.593z"/>
    <path id="svg_56" fill="#c8a96e" d="m265.27256,194.39028c0.078,-0.082 0.162,-0.16 0.242,-0.241c-0.314,0.118 -0.693,0.071 -0.939,-0.283c-2.16,-3.06 -6.51,-6.9 -10.66,-5.76c-5.65,1.55 -0.81,9.95 1.45,12.54c0.1,0.12 0.14,0.24 0.13,0.35c1.33,-0.02 2.66,-0.05 3.99,-0.06c0.66,-0.01 1.08,0.85 0.58,1.33c-0.77,0.74 -1.56,1.49 -2.37,2.23c0.03,0.01 0.06,0.01 0.09,0.03c1.749,1.078 3.551,2.519 5.031,4.152c-1.53,-4.931 -1.701,-9.906 2.456,-14.288z"/>
    <path id="svg_57" fill="#c8a96e" d="m234.64456,199.18628c2.28,2.27 1.73,6.67 -1.27,8.1c-3.21,1.53 -7.43,-1.68 -6.58,-5.2c0.08,-0.33 0.57,-0.26 0.59,0.07c0.09,2.64 3.09,5.52 5.75,3.81c1.92,-1.24 2.21,-4.27 0.61,-5.85c-0.59,-0.59 0.31,-1.52 0.9,-0.93z"/>
   </g>
  </g>
 </g>
</svg>